Rhodium Libre-Regular.ufo
<glyph name="exclam" format="1">
  <advance width="280"/>
  <unicode hex="0021"/>
  <outline>
    <contour>
      <point x="97" y="692"/>
      <point x="78" y="672"/>
      <point x="78" y="627" type="curve" smooth="yes"/>
      <point x="78" y="572"/>
      <point x="98" y="395"/>
      <point x="120" y="200" type="curve"/>
      <point x="160" y="200" type="line"/>
      <point x="182" y="395"/>
      <point x="202" y="572"/>
      <point x="202" y="627" type="curve" smooth="yes"/>
      <point x="202" y="672"/>
      <point x="183" y="692"/>
      <point x="140" y="692" type="curve" smooth="yes"/>
    </contour>
    <contour>
      <point x="98" y="128"/>
      <point x="72" y="104"/>
      <point x="72" y="60" type="curve" smooth="yes"/>
      <point x="72" y="16"/>
      <point x="98" y="-8"/>
      <point x="140" y="-8" type="curve" smooth="yes"/>
      <point x="182" y="-8"/>
      <point x="208" y="16"/>
      <point x="208" y="60" type="curve" smooth="yes"/>
      <point x="208" y="104"/>
      <point x="182" y="128"/>
      <point x="140" y="128" type="curve" smooth="yes"/>
    </contour>
  </outline>
</glyph>
<glyph name="quotedbl" format="1">
  <advance width="412"/>
  <unicode hex="0022"/>
  <outline>
    <contour>
      <point x="171" y="680" type="line"/>
      <point x="71" y="680" type="line"/>
      <point x="71" y="635" type="line"/>
      <point x="97" y="358" type="line"/>
      <point x="145" y="358" type="line"/>
      <point x="171" y="635" type="line"/>
    </contour>
    <contour>
      <point x="341" y="680" type="line"/>
      <point x="241" y="680" type="line"/>
      <point x="241" y="635" type="line"/>
      <point x="267" y="358" type="line"/>
      <point x="315" y="358" type="line"/>
      <point x="341" y="635" type="line"/>
    </contour>
  </outline>
</glyph>
<glyph name="numbersign" format="1">
  <advance width="721"/>
  <unicode hex="0023"/>
  <outline>
    <contour>
      <point x="701" y="505" type="line"/>
      <point x="562" y="505" type="line"/>
      <point x="599" y="680" type="line"/>
      <point x="521" y="680" type="line"/>
      <point x="484" y="505" type="line"/>
      <point x="298" y="505" type="line"/>
      <point x="335" y="680" type="line"/>
      <point x="257" y="680" type="line"/>
      <point x="220" y="505" type="line"/>
      <point x="65" y="505" type="line"/>
      <point x="65" y="435" type="line"/>
      <point x="205" y="435" type="line"/>
      <point x="164" y="245" type="line"/>
      <point x="10" y="245" type="line"/>
      <point x="10" y="175" type="line"/>
      <point x="149" y="175" type="line"/>
      <point x="112" y="0" type="line"/>
      <point x="190" y="0" type="line"/>
      <point x="227" y="175" type="line"/>
      <point x="414" y="175" type="line"/>
      <point x="377" y="0" type="line"/>
      <point x="455" y="0" type="line"/>
      <point x="492" y="175" type="line"/>
      <point x="646" y="175" type="line"/>
      <point x="646" y="245" type="line"/>
      <point x="507" y="245" type="line"/>
      <point x="547" y="435" type="line"/>
      <point x="701" y="435" type="line"/>
    </contour>
    <contour>
      <point x="242" y="245" type="line"/>
      <point x="283" y="435" type="line"/>
      <point x="469" y="435" type="line"/>
      <point x="429" y="245" type="line"/>
    </contour>
  </outline>
</glyph>
<glyph name="dollar" format="1">
  <advance width="546"/>
  <unicode hex="0024"/>
  <outline>
    <contour>
      <point x="310" y="310" type="curve"/>
      <point x="334" y="483" type="line"/>
      <point x="358" y="481"/>
      <point x="381" y="477"/>
      <point x="406" y="471" type="curve"/>
      <point x="433" y="393" type="line"/>
      <point x="486" y="393" type="line"/>
      <point x="486" y="524" type="line"/>
      <point x="435" y="536"/>
      <point x="389" y="543"/>
      <point x="343" y="546" type="curve"/>
      <point x="358" y="652" type="line"/>
      <point x="294" y="652" type="line"/>
      <point x="279" y="548" type="line"/>
      <point x="97" y="548"/>
      <point x="50" y="505"/>
      <point x="50" y="397" type="curve" smooth="yes"/>
      <point x="50" y="296"/>
      <point x="96" y="257"/>
      <point x="236" y="237" type="curve"/>
      <point x="213" y="74" type="line"/>
      <point x="188" y="77"/>
      <point x="164" y="82"/>
      <point x="137" y="88" type="curve"/>
      <point x="110" y="167" type="line"/>
      <point x="57" y="167" type="line"/>
      <point x="57" y="36" type="line"/>
      <point x="109" y="22"/>
      <point x="156" y="15"/>
      <point x="204" y="11" type="curve"/>
      <point x="188" y="-102" type="line"/>
      <point x="252" y="-102" type="line"/>
      <point x="268" y="9" type="line"/>
      <point x="441" y="9"/>
      <point x="496" y="46"/>
      <point x="496" y="160" type="curve" smooth="yes"/>
      <point x="496" y="266"/>
      <point x="460" y="290"/>
    </contour>
    <contour>
      <point x="134" y="469"/>
      <point x="164" y="486"/>
      <point x="271" y="486" type="curve"/>
      <point x="247" y="319" type="line"/>
      <point x="165" y="331"/>
      <point x="134" y="345"/>
      <point x="134" y="407" type="curve" smooth="yes"/>
    </contour>
    <contour>
      <point x="276" y="71" type="curve"/>
      <point x="298" y="228" type="line"/>
      <point x="377" y="217"/>
      <point x="412" y="205"/>
      <point x="412" y="150" type="curve" smooth="yes"/>
      <point x="412" y="89"/>
      <point x="380" y="71"/>
    </contour>
  </outline>
</glyph>
<glyph name="percent" format="1">
  <advance width="1043"/>
  <unicode hex="0025"/>
  <outline>
    <contour>
      <point x="125" y="692"/>
      <point x="30" y="621"/>
      <point x="30" y="479" type="curve" smooth="yes"/>
      <point x="30" y="336"/>
      <point x="125" y="265"/>
      <point x="231" y="265" type="curve" smooth="yes"/>
      <point x="340" y="265"/>
      <point x="432" y="336"/>
      <point x="432" y="479" type="curve" smooth="yes"/>
      <point x="432" y="621"/>
      <point x="340" y="692"/>
      <point x="231" y="692" type="curve" smooth="yes"/>
    </contour>
    <contour>
      <point x="308" y="628"/>
      <point x="354" y="592"/>
      <point x="354" y="479" type="curve" smooth="yes"/>
      <point x="354" y="365"/>
      <point x="308" y="329"/>
      <point x="231" y="329" type="curve" smooth="yes"/>
      <point x="154" y="329"/>
      <point x="108" y="365"/>
      <point x="108" y="479" type="curve" smooth="yes"/>
      <point x="108" y="592"/>
      <point x="154" y="628"/>
      <point x="231" y="628" type="curve" smooth="yes"/>
    </contour>
    <contour>
      <point x="706" y="415"/>
      <point x="611" y="344"/>
      <point x="611" y="202" type="curve" smooth="yes"/>
      <point x="611" y="59"/>
      <point x="706" y="-12"/>
      <point x="812" y="-12" type="curve" smooth="yes"/>
      <point x="921" y="-12"/>
      <point x="1013" y="59"/>
      <point x="1013" y="202" type="curve" smooth="yes"/>
      <point x="1013" y="344"/>
      <point x="921" y="415"/>
      <point x="812" y="415" type="curve" smooth="yes"/>
    </contour>
    <contour>
      <point x="889" y="351"/>
      <point x="935" y="315"/>
      <point x="935" y="202" type="curve" smooth="yes"/>
      <point x="935" y="88"/>
      <point x="889" y="52"/>
      <point x="812" y="52" type="curve" smooth="yes"/>
      <point x="735" y="52"/>
      <point x="689" y="88"/>
      <point x="689" y="202" type="curve" smooth="yes"/>
      <point x="689" y="315"/>
      <point x="735" y="351"/>
      <point x="812" y="351" type="curve" smooth="yes"/>
    </contour>
    <component base="fraction" xOffset="271"/>
  </outline>
</glyph>
<glyph name="ampersand" format="1">
  <advance width="678"/>
  <unicode hex="0026"/>
  <outline>
    <contour>
      <point x="514" y="165"/>
      <point x="431" y="62"/>
      <point x="283" y="62" type="curve" smooth="yes"/>
      <point x="188" y="62"/>
      <point x="128" y="102"/>
      <point x="128" y="202" type="curve" smooth="yes"/>
      <point x="128" y="289"/>
      <point x="154" y="325"/>
      <point x="267" y="368" type="curve" smooth="yes"/>
      <point x="420" y="425"/>
      <point x="461" y="474"/>
      <point x="461" y="562" type="curve" smooth="yes"/>
      <point x="461" y="642"/>
      <point x="415" y="692"/>
      <point x="315" y="692" type="curve" smooth="yes"/>
      <point x="197" y="692"/>
      <point x="146" y="637"/>
      <point x="146" y="545" type="curve" smooth="yes"/>
      <point x="146" y="500"/>
      <point x="158" y="459"/>
      <point x="200" y="398" type="curve"/>
      <point x="230" y="358" type="line"/>
      <point x="539" y="0" type="line"/>
      <point x="648" y="0" type="line"/>
      <point x="648" y="55" type="line"/>
      <point x="577" y="85" type="line"/>
      <point x="301" y="391" type="line"/>
      <point x="275" y="423" type="line"/>
      <point x="248" y="460"/>
      <point x="226" y="504"/>
      <point x="226" y="546" type="curve" smooth="yes"/>
      <point x="226" y="599"/>
      <point x="252" y="629"/>
      <point x="315" y="629" type="curve" smooth="yes"/>
      <point x="370" y="629"/>
      <point x="389" y="602"/>
      <point x="389" y="556" type="curve" smooth="yes"/>
      <point x="389" y="491"/>
      <point x="362" y="463"/>
      <point x="243" y="422" type="curve" smooth="yes"/>
      <point x="79" y="365"/>
      <point x="38" y="307"/>
      <point x="38" y="190" type="curve" smooth="yes"/>
      <point x="38" y="56"/>
      <point x="126" y="-12"/>
      <point x="271" y="-12" type="curve" smooth="yes"/>
      <point x="462" y="-12"/>
      <point x="570" y="135"/>
      <point x="584" y="314" type="curve"/>
      <point x="648" y="345" type="line"/>
      <point x="648" y="400" type="line"/>
      <point x="460" y="400" type="line"/>
      <point x="460" y="345" type="line"/>
      <point x="514" y="314" type="line"/>
    </contour>
  </outline>
</glyph>
<glyph name="quotesingle" format="1">
  <advance width="242"/>
  <unicode hex="0027"/>
  <outline>
    <contour>
      <point x="171" y="680" type="line"/>
      <point x="71" y="680" type="line"/>
      <point x="71" y="635" type="line"/>
      <point x="97" y="358" type="line"/>
      <point x="145" y="358" type="line"/>
      <point x="171" y="635" type="line"/>
    </contour>
  </outline>
</glyph>
<glyph name="parenleft" format="1">
  <advance width="412"/>
  <unicode hex="0028"/>
  <outline>
    <contour>
      <point x="170" y="680"/>
      <point x="55" y="509"/>
      <point x="55" y="246" type="curve" smooth="yes"/>
      <point x="55" y="-17"/>
      <point x="170" y="-188"/>
      <point x="372" y="-224" type="curve"/>
      <point x="372" y="-152" type="line"/>
      <point x="226" y="-118"/>
      <point x="145" y="7"/>
      <point x="145" y="246" type="curve" smooth="yes"/>
      <point x="145" y="485"/>
      <point x="226" y="610"/>
      <point x="372" y="644" type="curve"/>
      <point x="372" y="716" type="line"/>
    </contour>
  </outline>
</glyph>
<glyph name="asterisk" format="1">
  <advance width="463"/>
  <unicode hex="002A"/>
  <outline>
    <contour>
      <point x="404" y="599" type="line"/>
      <point x="257" y="532" type="line"/>
      <point x="275" y="692" type="line"/>
      <point x="187" y="692" type="line"/>
      <point x="206" y="531" type="line"/>
      <point x="59" y="598" type="line"/>
      <point x="32" y="515" type="line"/>
      <point x="190" y="483" type="line"/>
      <point x="81" y="364" type="line"/>
      <point x="152" y="312" type="line"/>
      <point x="232" y="453" type="line"/>
      <point x="311" y="313" type="line"/>
      <point x="382" y="365" type="line"/>
      <point x="274" y="484" type="line"/>
      <point x="431" y="515" type="line"/>
    </contour>
  </outline>
</glyph>
<glyph name="plus" format="1">
  <advance width="582"/>
  <unicode hex="002B"/>
  <outline>
    <contour>
      <point x="64" y="309" type="line"/>
      <point x="64" y="239" type="line"/>
      <point x="518" y="239" type="line"/>
      <point x="518" y="309" type="line"/>
    </contour>
    <contour>
      <point x="324" y="501" type="line"/>
      <point x="258" y="501" type="line"/>
      <point x="258" y="47" type="line"/>
      <point x="324" y="47" type="line"/>
    </contour>
  </outline>
</glyph>
<glyph name="comma" format="1">
  <advance width="246"/>
  <unicode hex="002C"/>
  <outline>
    <contour>
      <point x="78" y="128"/>
      <point x="52" y="102"/>
      <point x="52" y="55" type="curve" smooth="yes"/>
      <point x="52" y="40"/>
      <point x="57" y="24"/>
      <point x="66" y="13" type="curve"/>
      <point x="134" y="-8" type="line"/>
      <point x="134" y="-104"/>
      <point x="114" y="-123"/>
      <point x="52" y="-127" type="curve"/>
      <point x="52" y="-177" type="line"/>
      <point x="141" y="-171"/>
      <point x="194" y="-125"/>
      <point x="194" y="2" type="curve" smooth="yes"/>
      <point x="194" y="80"/>
      <point x="183" y="128"/>
      <point x="123" y="128" type="curve" smooth="yes"/>
    </contour>
  </outline>
</glyph>
<glyph name="hyphen" format="1">
  <advance width="421"/>
  <unicode hex="002D"/>
  <outline>
    <contour>
      <point x="60" y="340" type="line"/>
      <point x="60" y="258" type="line"/>
      <point x="361" y="258" type="line"/>
      <point x="361" y="340" type="line"/>
    </contour>
  </outline>
</glyph>
<glyph name="period" format="1">
  <advance width="246"/>
  <unicode hex="002E"/>
  <outline>
    <contour>
      <point x="81" y="128"/>
      <point x="55" y="104"/>
      <point x="55" y="60" type="curve" smooth="yes"/>
      <point x="55" y="16"/>
      <point x="81" y="-8"/>
      <point x="123" y="-8" type="curve" smooth="yes"/>
      <point x="165" y="-8"/>
      <point x="191" y="16"/>
      <point x="191" y="60" type="curve" smooth="yes"/>
      <point x="191" y="104"/>
      <point x="165" y="128"/>
      <point x="123" y="128" type="curve" smooth="yes"/>
    </contour>
  </outline>
</glyph>
<glyph name="slash" format="1">
  <advance width="358"/>
  <unicode hex="002F"/>
  <outline>
    <contour>
      <point x="266" y="750" type="line"/>
      <point x="-2" y="-126" type="line"/>
      <point x="80" y="-126" type="line"/>
      <point x="348" y="750" type="line"/>
    </contour>
  </outline>
</glyph>
<glyph name="zero" format="1">
  <advance width="640"/>
  <unicode hex="0030"/>
  <outline>
    <contour>
      <point x="471" y="-15"/>
      <point x="590" y="59"/>
      <point x="590" y="274" type="curve" smooth="yes"/>
      <point x="590" y="489"/>
      <point x="470" y="563"/>
      <point x="320" y="563" type="curve" smooth="yes"/>
      <point x="170" y="563"/>
      <point x="50" y="489"/>
      <point x="50" y="274" type="curve" smooth="yes"/>
      <point x="50" y="59"/>
      <point x="169" y="-15"/>
      <point x="320" y="-15" type="curve" smooth="yes"/>
    </contour>
    <contour>
      <point x="192" y="57"/>
      <point x="138" y="102"/>
      <point x="138" y="274" type="curve" smooth="yes"/>
      <point x="138" y="446"/>
      <point x="192" y="491"/>
      <point x="320" y="491" type="curve" smooth="yes"/>
      <point x="448" y="491"/>
      <point x="502" y="446"/>
      <point x="502" y="274" type="curve" smooth="yes"/>
      <point x="502" y="102"/>
      <point x="448" y="57"/>
      <point x="320" y="57" type="curve" smooth="yes"/>
    </contour>
  </outline>
</glyph>
<glyph name="one" format="1">
  <advance width="354"/>
  <unicode hex="0031"/>
  <outline>
    <contour>
      <point x="52" y="55" type="line"/>
      <point x="52" y="0" type="line"/>
      <point x="322" y="0" type="line"/>
      <point x="322" y="55" type="line"/>
      <point x="229" y="85" type="line"/>
      <point x="229" y="548" type="line"/>
      <point x="165" y="548" type="line"/>
      <point x="37" y="518" type="line"/>
      <point x="37" y="463" type="line"/>
      <point x="145" y="463" type="line"/>
      <point x="145" y="85" type="line"/>
    </contour>
  </outline>
</glyph>
<glyph name="two" format="1">
  <advance width="615"/>
  <unicode hex="0032"/>
  <outline>
    <contour>
      <point x="565" y="0" type="line"/>
      <point x="565" y="170" type="line"/>
      <point x="508" y="170" type="line"/>
      <point x="480" y="50" type="line"/>
      <point x="514" y="70" type="line"/>
      <point x="103" y="70" type="line"/>
      <point x="109" y="46" type="line"/>
      <point x="216" y="197"/>
      <point x="530" y="160"/>
      <point x="530" y="381" type="curve" smooth="yes"/>
      <point x="530" y="512"/>
      <point x="463" y="563"/>
      <point x="301" y="563" type="curve" smooth="yes"/>
      <point x="142" y="563"/>
      <point x="40" y="497"/>
      <point x="40" y="406" type="curve" smooth="yes"/>
      <point x="40" y="354"/>
      <point x="71" y="326"/>
      <point x="113" y="326" type="curve" smooth="yes"/>
      <point x="142" y="326"/>
      <point x="167" y="339"/>
      <point x="177" y="360" type="curve"/>
      <point x="134" y="471" type="line"/>
      <point x="126" y="448" type="line"/>
      <point x="162" y="468"/>
      <point x="209" y="491"/>
      <point x="299" y="491" type="curve" smooth="yes"/>
      <point x="409" y="491"/>
      <point x="442" y="460"/>
      <point x="442" y="382" type="curve" smooth="yes"/>
      <point x="442" y="231"/>
      <point x="151" y="246"/>
      <point x="25" y="62" type="curve"/>
      <point x="25" y="0" type="line"/>
    </contour>
  </outline>
</glyph>
<glyph name="three" format="1">
  <advance width="564"/>
  <unicode hex="0033"/>
  <outline>
    <contour>
      <point x="40" y="548" type="line"/>
      <point x="40" y="378" type="line"/>
      <point x="98" y="378" type="line"/>
      <point x="127" y="501" type="line"/>
      <point x="105" y="478" type="line"/>
      <point x="444" y="478" type="line"/>
      <point x="444" y="514" type="line"/>
      <point x="194" y="251" type="line"/>
      <point x="194" y="191" type="line"/>
      <point x="231" y="191" type="line" smooth="yes"/>
      <point x="399" y="191"/>
      <point x="441" y="152"/>
      <point x="441" y="63" type="curve" smooth="yes"/>
      <point x="441" y="-36"/>
      <point x="393" y="-72"/>
      <point x="277" y="-72" type="curve" smooth="yes"/>
      <point x="231" y="-72"/>
      <point x="189" y="-67"/>
      <point x="153" y="-57" type="curve"/>
      <point x="191" y="-99" type="line"/>
      <point x="124" y="63" type="line"/>
      <point x="56" y="63"/>
      <point x="30" y="39"/>
      <point x="30" y="-11" type="curve" smooth="yes"/>
      <point x="30" y="-95"/>
      <point x="125" y="-144"/>
      <point x="273" y="-144" type="curve" smooth="yes"/>
      <point x="462" y="-144"/>
      <point x="529" y="-57"/>
      <point x="529" y="66" type="curve" smooth="yes"/>
      <point x="529" y="200"/>
      <point x="446" y="259"/>
      <point x="277" y="259" type="curve"/>
      <point x="277" y="233" type="line"/>
      <point x="519" y="488" type="line"/>
      <point x="519" y="548" type="line"/>
    </contour>
  </outline>
</glyph>
<glyph name="four" format="1">
  <advance width="583"/>
  <unicode hex="0034"/>
  <outline>
    <contour>
      <point x="478" y="-136" type="line"/>
      <point x="478" y="50" type="line"/>
      <point x="578" y="50" type="line"/>
      <point x="578" y="120" type="line"/>
      <point x="478" y="120" type="line"/>
      <point x="478" y="303" type="line"/>
      <point x="394" y="303" type="line"/>
      <point x="394" y="120" type="line"/>
      <point x="80" y="120" type="line"/>
      <point x="87" y="106" type="line"/>
      <point x="209" y="198"/>
      <point x="337" y="362"/>
      <point x="368" y="548" type="curve"/>
      <point x="276" y="548" type="line"/>
      <point x="239" y="374"/>
      <point x="141" y="241"/>
      <point x="10" y="120" type="curve"/>
      <point x="10" y="50" type="line"/>
      <point x="394" y="50" type="line"/>
      <point x="394" y="-136" type="line"/>
    </contour>
  </outline>
</glyph>
<glyph name="five" format="1">
  <advance width="588"/>
  <unicode hex="0035"/>
  <outline>
    <contour>
      <point x="253" y="-72"/>
      <point x="208" y="-68"/>
      <point x="173" y="-57" type="curve"/>
      <point x="211" y="-99" type="line"/>
      <point x="144" y="63" type="line"/>
      <point x="76" y="63"/>
      <point x="50" y="39"/>
      <point x="50" y="-11" type="curve" smooth="yes"/>
      <point x="50" y="-95"/>
      <point x="140" y="-144"/>
      <point x="293" y="-144" type="curve" smooth="yes"/>
      <point x="462" y="-144"/>
      <point x="548" y="-66"/>
      <point x="548" y="90" type="curve" smooth="yes"/>
      <point x="548" y="239"/>
      <point x="470" y="320"/>
      <point x="326" y="320" type="curve" smooth="yes"/>
      <point x="239" y="320"/>
      <point x="168" y="290"/>
      <point x="134" y="238" type="curve"/>
      <point x="154" y="238" type="line"/>
      <point x="154" y="505" type="line"/>
      <point x="133" y="478" type="line"/>
      <point x="515" y="478" type="line"/>
      <point x="515" y="548" type="line"/>
      <point x="70" y="548" type="line"/>
      <point x="70" y="203" type="line"/>
      <point x="150" y="193" type="line"/>
      <point x="193" y="229"/>
      <point x="241" y="248"/>
      <point x="308" y="248" type="curve" smooth="yes"/>
      <point x="413" y="248"/>
      <point x="460" y="202"/>
      <point x="460" y="87" type="curve" smooth="yes"/>
      <point x="460" y="-30"/>
      <point x="412" y="-72"/>
      <point x="298" y="-72" type="curve" smooth="yes"/>
    </contour>
  </outline>
</glyph>
<glyph name="six" format="1">
  <advance width="618"/>
  <unicode hex="0036"/>
  <outline>
    <contour>
      <point x="156" y="692"/>
      <point x="50" y="591"/>
      <point x="50" y="341" type="curve" smooth="yes"/>
      <point x="50" y="104"/>
      <point x="145" y="-12"/>
      <point x="328" y="-12" type="curve" smooth="yes"/>
      <point x="490" y="-12"/>
      <point x="576" y="81"/>
      <point x="576" y="218" type="curve" smooth="yes"/>
      <point x="576" y="338"/>
      <point x="510" y="423"/>
      <point x="355" y="423" type="curve" smooth="yes"/>
      <point x="264" y="423"/>
      <point x="181" y="394"/>
      <point x="123" y="354" type="curve"/>
      <point x="123" y="282" type="line"/>
      <point x="182" y="324"/>
      <point x="256" y="351"/>
      <point x="337" y="351" type="curve" smooth="yes"/>
      <point x="443" y="351"/>
      <point x="488" y="304"/>
      <point x="488" y="214" type="curve" smooth="yes"/>
      <point x="488" y="114"/>
      <point x="433" y="60"/>
      <point x="329" y="60" type="curve" smooth="yes"/>
      <point x="194" y="60"/>
      <point x="138" y="148"/>
      <point x="138" y="339" type="curve" smooth="yes"/>
      <point x="138" y="560"/>
      <point x="213" y="620"/>
      <point x="361" y="620" type="curve" smooth="yes"/>
      <point x="397" y="620"/>
      <point x="424" y="617"/>
      <point x="443" y="609" type="curve"/>
      <point x="409" y="634" type="line"/>
      <point x="462" y="515" type="line"/>
      <point x="525" y="515"/>
      <point x="556" y="539"/>
      <point x="556" y="584" type="curve" smooth="yes"/>
      <point x="556" y="646"/>
      <point x="506" y="692"/>
      <point x="364" y="692" type="curve" smooth="yes"/>
    </contour>
  </outline>
</glyph>
<glyph name="seven" format="1">
  <advance width="533"/>
  <unicode hex="0037"/>
  <outline>
    <contour>
      <point x="264" y="-136" type="line"/>
      <point x="513" y="488" type="line"/>
      <point x="513" y="548" type="line"/>
      <point x="25" y="548" type="line"/>
      <point x="25" y="378" type="line"/>
      <point x="83" y="378" type="line"/>
      <point x="116" y="518" type="line"/>
      <point x="68" y="478" type="line"/>
      <point x="429" y="478" type="line"/>
      <point x="170" y="-136" type="line"/>
    </contour>
  </outline>
</glyph>
<glyph name="eight" format="1">
  <advance width="618"/>
  <unicode hex="0038"/>
  <outline>
    <contour>
      <point x="140" y="694"/>
      <point x="67" y="630"/>
      <point x="67" y="514" type="curve" smooth="yes"/>
      <point x="67" y="406"/>
      <point x="129" y="349"/>
      <point x="253" y="316" type="curve" smooth="yes"/>
      <point x="288" y="307"/>
      <point x="368" y="289"/>
      <point x="396" y="280" type="curve" smooth="yes"/>
      <point x="457" y="261"/>
      <point x="480" y="222"/>
      <point x="480" y="171" type="curve" smooth="yes"/>
      <point x="480" y="94"/>
      <point x="429" y="58"/>
      <point x="316" y="58" type="curve" smooth="yes"/>
      <point x="193" y="58"/>
      <point x="138" y="101"/>
      <point x="138" y="190" type="curve" smooth="yes"/>
      <point x="138" y="253"/>
      <point x="165" y="301"/>
      <point x="230" y="341" type="curve"/>
      <point x="171" y="367" type="line"/>
      <point x="82" y="320"/>
      <point x="50" y="256"/>
      <point x="50" y="182" type="curve" smooth="yes"/>
      <point x="50" y="54"/>
      <point x="145" y="-14"/>
      <point x="317" y="-14" type="curve" smooth="yes"/>
      <point x="498" y="-14"/>
      <point x="568" y="61"/>
      <point x="568" y="180" type="curve" smooth="yes"/>
      <point x="568" y="255"/>
      <point x="540" y="330"/>
      <point x="394" y="369" type="curve" smooth="yes"/>
      <point x="364" y="377"/>
      <point x="287" y="395"/>
      <point x="253" y="405" type="curve" smooth="yes"/>
      <point x="187" y="425"/>
      <point x="155" y="454"/>
      <point x="155" y="520" type="curve" smooth="yes"/>
      <point x="155" y="594"/>
      <point x="197" y="622"/>
      <point x="302" y="622" type="curve" smooth="yes"/>
      <point x="418" y="622"/>
      <point x="463" y="588"/>
      <point x="463" y="497" type="curve" smooth="yes"/>
      <point x="463" y="443"/>
      <point x="447" y="398"/>
      <point x="387" y="353" type="curve"/>
      <point x="443" y="329" type="line"/>
      <point x="513" y="367"/>
      <point x="551" y="429"/>
      <point x="551" y="507" type="curve" smooth="yes"/>
      <point x="551" y="614"/>
      <point x="479" y="694"/>
      <point x="300" y="694" type="curve" smooth="yes"/>
    </contour>
  </outline>
</glyph>
<glyph name="nine" format="1">
  <advance width="622"/>
  <unicode hex="0039"/>
  <outline>
    <contour>
      <point x="484" y="-144"/>
      <point x="572" y="-46"/>
      <point x="572" y="207" type="curve" smooth="yes"/>
      <point x="572" y="456"/>
      <point x="484" y="563"/>
      <point x="292" y="563" type="curve" smooth="yes"/>
      <point x="138" y="563"/>
      <point x="42" y="495"/>
      <point x="42" y="338" type="curve" smooth="yes"/>
      <point x="42" y="198"/>
      <point x="120" y="123"/>
      <point x="272" y="123" type="curve" smooth="yes"/>
      <point x="360" y="123"/>
      <point x="453" y="148"/>
      <point x="503" y="191" type="curve"/>
      <point x="503" y="264" type="line"/>
      <point x="442" y="216"/>
      <point x="370" y="195"/>
      <point x="292" y="195" type="curve" smooth="yes"/>
      <point x="179" y="195"/>
      <point x="130" y="239"/>
      <point x="130" y="339" type="curve" smooth="yes"/>
      <point x="130" y="444"/>
      <point x="181" y="491"/>
      <point x="294" y="491" type="curve" smooth="yes"/>
      <point x="428" y="491"/>
      <point x="484" y="424"/>
      <point x="484" y="213" type="curve" smooth="yes"/>
      <point x="484" y="1"/>
      <point x="428" y="-72"/>
      <point x="286" y="-72" type="curve" smooth="yes"/>
      <point x="253" y="-72"/>
      <point x="193" y="-69"/>
      <point x="164" y="-58" type="curve"/>
      <point x="209" y="-96" type="line"/>
      <point x="152" y="53" type="line"/>
      <point x="81" y="53"/>
      <point x="56" y="24"/>
      <point x="56" y="-23" type="curve" smooth="yes"/>
      <point x="56" y="-105"/>
      <point x="147" y="-144"/>
      <point x="281" y="-144" type="curve" smooth="yes"/>
    </contour>
  </outline>
</glyph>
<glyph name="less" format="1">
  <advance width="582"/>
  <unicode hex="003C"/>
  <outline>
    <contour>
      <point x="64" y="310" type="line"/>
      <point x="64" y="238" type="line"/>
      <point x="494" y="0" type="line"/>
      <point x="494" y="83" type="line"/>
      <point x="111" y="289" type="line"/>
      <point x="111" y="259" type="line"/>
      <point x="494" y="465" type="line"/>
      <point x="494" y="548" type="line"/>
    </contour>
  </outline>
</glyph>
<glyph name="equal" format="1">
  <advance width="582"/>
  <unicode hex="003D"/>
  <outline>
    <contour>
      <point x="64" y="428" type="line"/>
      <point x="64" y="358" type="line"/>
      <point x="518" y="358" type="line"/>
      <point x="518" y="428" type="line"/>
    </contour>
    <contour>
      <point x="64" y="190" type="line"/>
      <point x="64" y="120" type="line"/>
      <point x="518" y="120" type="line"/>
      <point x="518" y="190" type="line"/>
    </contour>
  </outline>
</glyph>
<glyph name="question" format="1">
  <advance width="538"/>
  <unicode hex="003F"/>
  <outline>
    <contour>
      <point x="152" y="692"/>
      <point x="50" y="643"/>
      <point x="50" y="535" type="curve" smooth="yes"/>
      <point x="50" y="476"/>
      <point x="80" y="441"/>
      <point x="130" y="441" type="curve" smooth="yes"/>
      <point x="162" y="441"/>
      <point x="187" y="456"/>
      <point x="195" y="479" type="curve"/>
      <point x="149" y="598" type="line"/>
      <point x="140" y="583" type="line"/>
      <point x="182" y="609"/>
      <point x="232" y="618"/>
      <point x="282" y="618" type="curve" smooth="yes"/>
      <point x="381" y="618"/>
      <point x="416" y="583"/>
      <point x="416" y="517" type="curve" smooth="yes"/>
      <point x="416" y="460"/>
      <point x="390" y="443"/>
      <point x="351" y="415" type="curve" smooth="yes"/>
      <point x="257" y="346"/>
      <point x="219" y="292"/>
      <point x="215" y="197" type="curve"/>
      <point x="299" y="197" type="line"/>
      <point x="305" y="275"/>
      <point x="318" y="286"/>
      <point x="396" y="344" type="curve" smooth="yes"/>
      <point x="457" y="389"/>
      <point x="506" y="427"/>
      <point x="506" y="516" type="curve" smooth="yes"/>
      <point x="506" y="625"/>
      <point x="432" y="692"/>
      <point x="281" y="692" type="curve" smooth="yes"/>
    </contour>
    <contour>
      <point x="215" y="128"/>
      <point x="189" y="104"/>
      <point x="189" y="60" type="curve" smooth="yes"/>
      <point x="189" y="16"/>
      <point x="215" y="-8"/>
      <point x="257" y="-8" type="curve" smooth="yes"/>
      <point x="299" y="-8"/>
      <point x="325" y="16"/>
      <point x="325" y="60" type="curve" smooth="yes"/>
      <point x="325" y="104"/>
      <point x="299" y="128"/>
      <point x="257" y="128" type="curve" smooth="yes"/>
    </contour>
  </outline>
</glyph>
<glyph name="A" format="1">
  <advance width="722"/>
  <unicode hex="0041"/>
  <outline>
    <contour>
      <point x="221" y="0" type="line"/>
      <point x="221" y="55" type="line"/>
      <point x="150" y="81" type="line"/>
      <point x="353" y="628" type="line"/>
      <point x="554" y="82" type="line"/>
      <point x="484" y="55" type="line"/>
      <point x="484" y="0" type="line"/>
      <point x="714" y="0" type="line"/>
      <point x="714" y="55" type="line"/>
      <point x="645" y="87" type="line"/>
      <point x="417" y="688" type="line"/>
      <point x="305" y="688" type="line"/>
      <point x="77" y="86" type="line"/>
      <point x="8" y="55" type="line"/>
      <point x="8" y="0" type="line"/>
    </contour>
    <contour>
      <point x="534" y="229" type="line"/>
      <point x="510" y="300" type="line"/>
      <point x="191" y="300" type="line"/>
      <point x="169" y="229" type="line"/>
    </contour>
    <contour>
      <point x="626" y="10" type="move" name="ogonek"/>
    </contour>
    <contour>
      <point x="353" y="0" type="move" name="bottom"/>
    </contour>
    <contour>
      <point x="361" y="680" type="move" name="top"/>
    </contour>
  </outline>
</glyph>
<glyph name="B" format="1">
  <advance width="710"/>
  <unicode hex="0042"/>
  <outline>
    <contour>
      <point x="476" y="0" type="line" smooth="yes"/>
      <point x="590" y="0"/>
      <point x="650" y="60"/>
      <point x="650" y="176" type="curve" smooth="yes"/>
      <point x="650" y="285"/>
      <point x="600" y="333"/>
      <point x="530" y="344" type="curve"/>
      <point x="599" y="362"/>
      <point x="640" y="420"/>
      <point x="640" y="514" type="curve" smooth="yes"/>
      <point x="640" y="615"/>
      <point x="588" y="680"/>
      <point x="462" y="680" type="curve" smooth="yes"/>
      <point x="55" y="680" type="line"/>
      <point x="55" y="623" type="line"/>
      <point x="129" y="594" type="line"/>
      <point x="129" y="86" type="line"/>
      <point x="55" y="55" type="line"/>
      <point x="55" y="0" type="line"/>
    </contour>
    <contour>
      <point x="215" y="304" type="line"/>
      <point x="451" y="304" type="line" smooth="yes"/>
      <point x="530" y="304"/>
      <point x="560" y="272"/>
      <point x="560" y="189" type="curve" smooth="yes"/>
      <point x="560" y="106"/>
      <point x="530" y="72"/>
      <point x="459" y="72" type="curve" smooth="yes"/>
      <point x="215" y="72" type="line"/>
    </contour>
    <contour>
      <point x="215" y="608" type="line"/>
      <point x="451" y="608" type="line" smooth="yes"/>
      <point x="521" y="608"/>
      <point x="550" y="575"/>
      <point x="550" y="493" type="curve" smooth="yes"/>
      <point x="550" y="411"/>
      <point x="521" y="376"/>
      <point x="443" y="376" type="curve" smooth="yes"/>
      <point x="215" y="376" type="line"/>
    </contour>
    <contour>
      <point x="355" y="680" type="move" name="top"/>
    </contour>
    <contour>
      <point x="355" y="0" type="move" name="bottom"/>
    </contour>
  </outline>
</glyph>
<glyph name="C" format="1">
  <advance width="661"/>
  <unicode hex="0043"/>
  <outline>
    <contour>
      <point x="167" y="692"/>
      <point x="42" y="590"/>
      <point x="42" y="340" type="curve" smooth="yes"/>
      <point x="42" y="96"/>
      <point x="161" y="-12"/>
      <point x="375" y="-12" type="curve" smooth="yes"/>
      <point x="456" y="-12"/>
      <point x="540" y="3"/>
      <point x="596" y="28" type="curve"/>
      <point x="596" y="102" type="line"/>
      <point x="525" y="72"/>
      <point x="440" y="62"/>
      <point x="375" y="62" type="curve" smooth="yes"/>
      <point x="208" y="62"/>
      <point x="132" y="133"/>
      <point x="132" y="343" type="curve" smooth="yes"/>
      <point x="132" y="547"/>
      <point x="204" y="618"/>
      <point x="381" y="618" type="curve" smooth="yes"/>
      <point x="429" y="618"/>
      <point x="482" y="613"/>
      <point x="533" y="600" type="curve"/>
      <point x="504" y="642" type="line"/>
      <point x="526" y="491" type="line"/>
      <point x="596" y="491" type="line"/>
      <point x="596" y="668" type="line"/>
      <point x="525" y="684"/>
      <point x="451" y="692"/>
      <point x="389" y="692" type="curve" smooth="yes"/>
    </contour>
    <contour>
      <point x="379" y="680" type="move" name="top"/>
    </contour>
    <contour>
      <point x="375" y="0" type="move" name="bottom"/>
    </contour>
  </outline>
</glyph>
<glyph name="D" format="1">
  <advance width="761"/>
  <unicode hex="0044"/>
  <outline>
    <contour>
      <point x="55" y="680" type="line"/>
      <point x="55" y="623" type="line"/>
      <point x="145" y="594" type="line"/>
      <point x="145" y="86" type="line"/>
      <point x="55" y="55" type="line"/>
      <point x="55" y="0" type="line"/>
      <point x="414" y="0" type="line" smooth="yes"/>
      <point x="566" y="0"/>
      <point x="719" y="70"/>
      <point x="719" y="342" type="curve" smooth="yes"/>
      <point x="719" y="610"/>
      <point x="566" y="680"/>
      <point x="414" y="680" type="curve" smooth="yes"/>
    </contour>
    <contour>
      <point x="530" y="608"/>
      <point x="629" y="559"/>
      <point x="629" y="342" type="curve" smooth="yes"/>
      <point x="629" y="120"/>
      <point x="530" y="72"/>
      <point x="393" y="72" type="curve" smooth="yes"/>
      <point x="231" y="72" type="line"/>
      <point x="231" y="608" type="line"/>
      <point x="393" y="608" type="line" smooth="yes"/>
    </contour>
    <contour>
      <point x="381" y="340" type="move" name="center"/>
    </contour>
    <contour>
      <point x="381" y="0" type="move" name="bottom"/>
    </contour>
    <contour>
      <point x="387" y="680" type="move" name="top"/>
    </contour>
  </outline>
</glyph>
<glyph name="E" format="1">
  <advance width="692"/>
  <unicode hex="0045"/>
  <outline>
    <contour>
      <point x="55" y="680" type="line"/>
      <point x="55" y="623" type="line"/>
      <point x="129" y="594" type="line"/>
      <point x="129" y="85" type="line"/>
      <point x="55" y="55" type="line"/>
      <point x="55" y="0" type="line"/>
      <point x="640" y="0" type="line"/>
      <point x="640" y="187" type="line"/>
      <point x="581" y="187" type="line"/>
      <point x="555" y="72" type="line"/>
      <point x="215" y="72" type="line"/>
      <point x="215" y="306" type="line"/>
      <point x="414" y="306" type="line"/>
      <point x="429" y="229" type="line"/>
      <point x="484" y="229" type="line"/>
      <point x="484" y="455" type="line"/>
      <point x="429" y="455" type="line"/>
      <point x="414" y="378" type="line"/>
      <point x="215" y="378" type="line"/>
      <point x="215" y="608" type="line"/>
      <point x="555" y="608" type="line"/>
      <point x="581" y="503" type="line"/>
      <point x="640" y="503" type="line"/>
      <point x="640" y="680" type="line"/>
    </contour>
    <contour>
      <point x="576" y="10" type="move" name="ogonek"/>
    </contour>
    <contour>
      <point x="380" y="0" type="move" name="bottom"/>
    </contour>
    <contour>
      <point x="375" y="680" type="move" name="top"/>
    </contour>
  </outline>
</glyph>
<glyph name="F" format="1">
  <advance width="679"/>
  <unicode hex="0046"/>
  <outline>
    <contour>
      <point x="55" y="680" type="line"/>
      <point x="55" y="623" type="line"/>
      <point x="129" y="594" type="line"/>
      <point x="129" y="85" type="line"/>
      <point x="55" y="55" type="line"/>
      <point x="55" y="0" type="line"/>
      <point x="306" y="0" type="line"/>
      <point x="306" y="55" type="line"/>
      <point x="215" y="85" type="line"/>
      <point x="215" y="297" type="line"/>
      <point x="407" y="297" type="line"/>
      <point x="422" y="216" type="line"/>
      <point x="477" y="216" type="line"/>
      <point x="477" y="447" type="line"/>
      <point x="422" y="447" type="line"/>
      <point x="407" y="369" type="line"/>
      <point x="215" y="369" type="line"/>
      <point x="215" y="608" type="line"/>
      <point x="549" y="608" type="line"/>
      <point x="576" y="497" type="line"/>
      <point x="634" y="497" type="line"/>
      <point x="634" y="680" type="line"/>
    </contour>
    <contour>
      <point x="382" y="680" type="move" name="top"/>
    </contour>
    <contour>
      <point x="172" y="0" type="move" name="bottom"/>
    </contour>
  </outline>
</glyph>
<glyph name="G" format="1">
  <advance width="706"/>
  <unicode hex="0047"/>
  <outline>
    <contour>
      <point x="166" y="692"/>
      <point x="42" y="589"/>
      <point x="42" y="340" type="curve" smooth="yes"/>
      <point x="42" y="89"/>
      <point x="162" y="-12"/>
      <point x="389" y="-12" type="curve" smooth="yes"/>
      <point x="460" y="-12"/>
      <point x="550" y="0"/>
      <point x="622" y="24" type="curve"/>
      <point x="622" y="254" type="line"/>
      <point x="686" y="283" type="line"/>
      <point x="686" y="340" type="line"/>
      <point x="473" y="340" type="line"/>
      <point x="473" y="283" type="line"/>
      <point x="537" y="254" type="line"/>
      <point x="537" y="82" type="line"/>
      <point x="490" y="68"/>
      <point x="440" y="62"/>
      <point x="385" y="62" type="curve" smooth="yes"/>
      <point x="203" y="62"/>
      <point x="132" y="127"/>
      <point x="132" y="340" type="curve" smooth="yes"/>
      <point x="132" y="549"/>
      <point x="202" y="618"/>
      <point x="388" y="618" type="curve" smooth="yes"/>
      <point x="446" y="618"/>
      <point x="503" y="610"/>
      <point x="554" y="597" type="curve"/>
      <point x="530" y="639" type="line"/>
      <point x="552" y="488" type="line"/>
      <point x="622" y="488" type="line"/>
      <point x="622" y="665" type="line"/>
      <point x="549" y="681"/>
      <point x="472" y="692"/>
      <point x="389" y="692" type="curve" smooth="yes"/>
    </contour>
    <contour>
      <point x="379" y="680" type="move" name="top"/>
    </contour>
    <contour>
      <point x="387" y="0" type="move" name="bottom"/>
    </contour>
  </outline>
</glyph>
<glyph name="H" format="1">
  <advance width="822"/>
  <unicode hex="0048"/>
  <outline>
    <contour>
      <point x="533" y="680" type="line"/>
      <point x="533" y="623" type="line"/>
      <point x="607" y="594" type="line"/>
      <point x="607" y="378" type="line"/>
      <point x="215" y="378" type="line"/>
      <point x="215" y="594" type="line"/>
      <point x="289" y="623" type="line"/>
      <point x="289" y="680" type="line"/>
      <point x="55" y="680" type="line"/>
      <point x="55" y="623" type="line"/>
      <point x="129" y="594" type="line"/>
      <point x="129" y="86" type="line"/>
      <point x="55" y="55" type="line"/>
      <point x="55" y="0" type="line"/>
      <point x="289" y="0" type="line"/>
      <point x="289" y="55" type="line"/>
      <point x="215" y="86" type="line"/>
      <point x="215" y="306" type="line"/>
      <point x="607" y="306" type="line"/>
      <point x="607" y="86" type="line"/>
      <point x="533" y="55" type="line"/>
      <point x="533" y="0" type="line"/>
      <point x="767" y="0" type="line"/>
      <point x="767" y="55" type="line"/>
      <point x="693" y="86" type="line"/>
      <point x="693" y="594" type="line"/>
      <point x="767" y="623" type="line"/>
      <point x="767" y="680" type="line"/>
    </contour>
    <contour>
      <point x="411" y="340" type="move" name="center"/>
    </contour>
    <contour>
      <point x="411" y="0" type="move" name="bottom"/>
    </contour>
    <contour>
      <point x="411" y="680" type="move" name="top"/>
    </contour>
  </outline>
</glyph>
<glyph name="I" format="1">
  <advance width="344"/>
  <unicode hex="0049"/>
  <outline>
    <contour>
      <point x="55" y="680" type="line"/>
      <point x="55" y="623" type="line"/>
      <point x="129" y="594" type="line"/>
      <point x="129" y="85" type="line"/>
      <point x="55" y="55" type="line"/>
      <point x="55" y="0" type="line"/>
      <point x="289" y="0" type="line"/>
      <point x="289" y="55" type="line"/>
      <point x="215" y="85" type="line"/>
      <point x="215" y="594" type="line"/>
      <point x="289" y="623" type="line"/>
      <point x="289" y="680" type="line"/>
    </contour>
    <contour>
      <point x="165" y="10" type="move" name="ogonek"/>
    </contour>
    <contour>
      <point x="172" y="0" type="move" name="bottom"/>
    </contour>
    <contour>
      <point x="172" y="680" type="move" name="top"/>
    </contour>
  </outline>
</glyph>
<glyph name="J" format="1">
  <advance width="440"/>
  <unicode hex="004A"/>
  <outline>
    <contour>
      <point x="146" y="680" type="line"/>
      <point x="146" y="623" type="line"/>
      <point x="230" y="594" type="line"/>
      <point x="230" y="224" type="line" smooth="yes"/>
      <point x="230" y="103"/>
      <point x="190" y="60"/>
      <point x="96" y="60" type="curve" smooth="yes"/>
      <point x="68" y="60"/>
      <point x="43" y="62"/>
      <point x="20" y="66" type="curve"/>
      <point x="20" y="-4" type="line"/>
      <point x="48" y="-10"/>
      <point x="73" y="-12"/>
      <point x="106" y="-12" type="curve" smooth="yes"/>
      <point x="241" y="-12"/>
      <point x="316" y="58"/>
      <point x="316" y="231" type="curve" smooth="yes"/>
      <point x="316" y="594" type="line"/>
      <point x="390" y="623" type="line"/>
      <point x="390" y="680" type="line"/>
    </contour>
    <contour>
      <point x="220" y="680" type="move" name="top"/>
    </contour>
    <contour>
      <point x="220" y="0" type="move" name="bottom"/>
    </contour>
  </outline>
</glyph>
<glyph name="K" format="1">
  <advance width="797"/>
  <unicode hex="004B"/>
  <outline>
    <contour>
      <point x="55" y="680" type="line"/>
      <point x="55" y="623" type="line"/>
      <point x="129" y="594" type="line"/>
      <point x="129" y="86" type="line"/>
      <point x="55" y="55" type="line"/>
      <point x="55" y="0" type="line"/>
      <point x="294" y="0" type="line"/>
      <point x="294" y="55" type="line"/>
      <point x="215" y="86" type="line"/>
      <point x="215" y="594" type="line"/>
      <point x="289" y="623" type="line"/>
      <point x="289" y="680" type="line"/>
    </contour>
    <contour>
      <point x="688" y="86" type="line"/>
      <point x="417" y="406" type="line"/>
      <point x="351" y="354" type="line"/>
      <point x="578" y="85" type="line"/>
      <point x="515" y="56" type="line"/>
      <point x="515" y="1" type="line"/>
      <point x="752" y="1" type="line"/>
      <point x="752" y="56" type="line"/>
    </contour>
    <contour>
      <point x="506" y="680" type="line"/>
      <point x="506" y="623" type="line"/>
      <point x="565" y="598" type="line"/>
      <point x="205" y="315" type="line"/>
      <point x="205" y="227" type="line"/>
      <point x="669" y="590" type="line"/>
      <point x="742" y="623" type="line"/>
      <point x="742" y="680" type="line"/>
    </contour>
    <contour>
      <point x="398" y="680" type="move" name="top"/>
    </contour>
    <contour>
      <point x="405" y="0" type="move" name="bottom"/>
    </contour>
  </outline>
</glyph>
<glyph name="L" format="1">
  <advance width="643"/>
  <unicode hex="004C"/>
  <outline>
    <contour>
      <point x="55" y="680" type="line"/>
      <point x="55" y="623" type="line"/>
      <point x="129" y="594" type="line"/>
      <point x="129" y="85" type="line"/>
      <point x="55" y="55" type="line"/>
      <point x="55" y="0" type="line"/>
      <point x="623" y="0" type="line"/>
      <point x="623" y="187" type="line"/>
      <point x="564" y="187" type="line"/>
      <point x="538" y="72" type="line"/>
      <point x="215" y="72" type="line"/>
      <point x="215" y="594" type="line"/>
      <point x="289" y="623" type="line"/>
      <point x="289" y="680" type="line"/>
    </contour>
    <contour>
      <point x="377" y="0" type="move" name="bottom"/>
    </contour>
    <contour>
      <point x="172" y="680" type="move" name="top"/>
    </contour>
    <contour>
      <point x="447" y="405" type="move" name="topright"/>
    </contour>
    <contour>
      <point x="172" y="340" type="move" name="center"/>
    </contour>
  </outline>
</glyph>
<glyph name="M" format="1">
  <advance width="938"/>
  <unicode hex="004D"/>
  <outline>
    <contour>
      <point x="676" y="680" type="line"/>
      <point x="464" y="181" type="line"/>
      <point x="478" y="181" type="line"/>
      <point x="266" y="680" type="line"/>
      <point x="55" y="680" type="line"/>
      <point x="55" y="623" type="line"/>
      <point x="129" y="594" type="line"/>
      <point x="129" y="85" type="line"/>
      <point x="55" y="55" type="line"/>
      <point x="55" y="0" type="line"/>
      <point x="270" y="0" type="line"/>
      <point x="270" y="55" type="line"/>
      <point x="201" y="85" type="line"/>
      <point x="201" y="630" type="line"/>
      <point x="194" y="630" type="line"/>
      <point x="429" y="85" type="line"/>
      <point x="496" y="85" type="line"/>
      <point x="730" y="630" type="line"/>
      <point x="723" y="630" type="line"/>
      <point x="723" y="85" type="line"/>
      <point x="654" y="55" type="line"/>
      <point x="654" y="0" type="line"/>
      <point x="883" y="0" type="line"/>
      <point x="883" y="55" type="line"/>
      <point x="809" y="85" type="line"/>
      <point x="809" y="594" type="line"/>
      <point x="883" y="623" type="line"/>
      <point x="883" y="680" type="line"/>
    </contour>
    <contour>
      <point x="469" y="680" type="move" name="top"/>
    </contour>
    <contour>
      <point x="469" y="0" type="move" name="bottom"/>
    </contour>
  </outline>
</glyph>
<glyph name="N" format="1">
  <advance width="808"/>
  <unicode hex="004E"/>
  <outline>
    <contour>
      <point x="536" y="680" type="line"/>
      <point x="536" y="623" type="line"/>
      <point x="615" y="594" type="line"/>
      <point x="615" y="81" type="line"/>
      <point x="631" y="84" type="line"/>
      <point x="231" y="680" type="line"/>
      <point x="55" y="680" type="line"/>
      <point x="55" y="623" type="line"/>
      <point x="129" y="594" type="line"/>
      <point x="129" y="85" type="line"/>
      <point x="55" y="55" type="line"/>
      <point x="55" y="0" type="line"/>
      <point x="281" y="0" type="line"/>
      <point x="281" y="55" type="line"/>
      <point x="202" y="85" type="line"/>
      <point x="202" y="599" type="line"/>
      <point x="187" y="595" type="line"/>
      <point x="587" y="0" type="line"/>
      <point x="689" y="0" type="line"/>
      <point x="689" y="594" type="line"/>
      <point x="763" y="623" type="line"/>
      <point x="763" y="680" type="line"/>
    </contour>
    <contour>
      <point x="404" y="680" type="move" name="top"/>
    </contour>
    <contour>
      <point x="404" y="0" type="move" name="bottom"/>
    </contour>
  </outline>
</glyph>
<glyph name="O" format="1">
  <advance width="728"/>
  <unicode hex="004F"/>
  <outline>
    <contour>
      <point x="168" y="692"/>
      <point x="42" y="583"/>
      <point x="42" y="340" type="curve" smooth="yes"/>
      <point x="42" y="97"/>
      <point x="168" y="-12"/>
      <point x="364" y="-12" type="curve" smooth="yes"/>
      <point x="560" y="-12"/>
      <point x="686" y="97"/>
      <point x="686" y="340" type="curve" smooth="yes"/>
      <point x="686" y="583"/>
      <point x="560" y="692"/>
      <point x="364" y="692" type="curve" smooth="yes"/>
    </contour>
    <contour>
      <point x="521" y="618"/>
      <point x="596" y="546"/>
      <point x="596" y="340" type="curve" smooth="yes"/>
      <point x="596" y="134"/>
      <point x="521" y="62"/>
      <point x="364" y="62" type="curve" smooth="yes"/>
      <point x="207" y="62"/>
      <point x="132" y="134"/>
      <point x="132" y="340" type="curve" smooth="yes"/>
      <point x="132" y="546"/>
      <point x="207" y="618"/>
      <point x="364" y="618" type="curve" smooth="yes"/>
    </contour>
    <contour>
      <point x="364" y="0" type="move" name="bottom"/>
    </contour>
    <contour>
      <point x="357" y="10" type="move" name="ogonek"/>
    </contour>
    <contour>
      <point x="364" y="680" type="move" name="top"/>
    </contour>
    <contour>
      <point x="708" y="680" type="move" name="topright"/>
    </contour>
    <contour>
      <point x="364" y="340" type="move" name="center"/>
    </contour>
  </outline>
</glyph>
<glyph name="P" format="1">
  <advance width="680"/>
  <unicode hex="0050"/>
  <outline>
    <contour>
      <point x="579" y="270"/>
      <point x="650" y="340"/>
      <point x="650" y="475" type="curve" smooth="yes"/>
      <point x="650" y="610"/>
      <point x="582" y="680"/>
      <point x="453" y="680" type="curve" smooth="yes"/>
      <point x="55" y="680" type="line"/>
      <point x="55" y="623" type="line"/>
      <point x="129" y="594" type="line"/>
      <point x="129" y="86" type="line"/>
      <point x="55" y="55" type="line"/>
      <point x="55" y="0" type="line"/>
      <point x="289" y="0" type="line"/>
      <point x="289" y="55" type="line"/>
      <point x="215" y="86" type="line"/>
      <point x="215" y="270" type="line"/>
      <point x="444" y="270" type="line" smooth="yes"/>
    </contour>
    <contour>
      <point x="560" y="381"/>
      <point x="525" y="342"/>
      <point x="435" y="342" type="curve" smooth="yes"/>
      <point x="215" y="342" type="line"/>
      <point x="215" y="608" type="line"/>
      <point x="445" y="608" type="line" smooth="yes"/>
      <point x="525" y="608"/>
      <point x="560" y="569"/>
      <point x="560" y="475" type="curve" smooth="yes"/>
    </contour>
    <contour>
      <point x="340" y="680" type="move" name="top"/>
    </contour>
    <contour>
      <point x="172" y="0" type="move" name="bottom"/>
    </contour>
  </outline>
</glyph>
<glyph name="Q" format="1">
  <advance width="728"/>
  <unicode hex="0051"/>
  <outline>
    <contour>
      <point x="342" y="0" type="line"/>
      <point x="342" y="-143"/>
      <point x="394" y="-191"/>
      <point x="641" y="-191" type="curve"/>
      <point x="641" y="-115" type="line"/>
      <point x="446" y="-115"/>
      <point x="416" y="-95"/>
      <point x="416" y="0" type="curve"/>
    </contour>
    <component base="O"/>
    <contour>
      <point x="364" y="680" type="move" name="top"/>
    </contour>
    <contour>
      <point x="192" y="0" type="move" name="bottom"/>
    </contour>
  </outline>
</glyph>
<glyph name="R" format="1">
  <advance width="728"/>
  <unicode hex="0052"/>
  <outline>
    <contour>
      <point x="374" y="303" type="line"/>
      <point x="576" y="0" type="line"/>
      <point x="691" y="0" type="line"/>
      <point x="691" y="55" type="line"/>
      <point x="623" y="85" type="line"/>
      <point x="475" y="303" type="line"/>
    </contour>
    <contour>
      <point x="580" y="282"/>
      <point x="651" y="350"/>
      <point x="651" y="481" type="curve" smooth="yes"/>
      <point x="651" y="612"/>
      <point x="583" y="680"/>
      <point x="454" y="680" type="curve" smooth="yes"/>
      <point x="55" y="680" type="line"/>
      <point x="55" y="623" type="line"/>
      <point x="129" y="594" type="line"/>
      <point x="129" y="86" type="line"/>
      <point x="55" y="55" type="line"/>
      <point x="55" y="0" type="line"/>
      <point x="289" y="0" type="line"/>
      <point x="289" y="55" type="line"/>
      <point x="215" y="86" type="line"/>
      <point x="215" y="282" type="line"/>
      <point x="445" y="282" type="line" smooth="yes"/>
    </contour>
    <contour>
      <point x="215" y="354" type="line"/>
      <point x="215" y="608" type="line"/>
      <point x="446" y="608" type="line" smooth="yes"/>
      <point x="526" y="608"/>
      <point x="561" y="571"/>
      <point x="561" y="481" type="curve" smooth="yes"/>
      <point x="561" y="391"/>
      <point x="526" y="354"/>
      <point x="436" y="354" type="curve" smooth="yes"/>
    </contour>
    <contour>
      <point x="373" y="680" type="move" name="top"/>
    </contour>
    <contour>
      <point x="433" y="0" type="move" name="bottom"/>
    </contour>
  </outline>
</glyph>
<glyph name="S" format="1">
  <advance width="619"/>
  <unicode hex="0053"/>
  <outline>
    <contour>
      <point x="123" y="688"/>
      <point x="47" y="640"/>
      <point x="47" y="498" type="curve" smooth="yes"/>
      <point x="47" y="384"/>
      <point x="94" y="342"/>
      <point x="255" y="312" type="curve" smooth="yes"/>
      <point x="461" y="273"/>
      <point x="479" y="274"/>
      <point x="479" y="176" type="curve" smooth="yes"/>
      <point x="479" y="98"/>
      <point x="449" y="66"/>
      <point x="300" y="66" type="curve" smooth="yes"/>
      <point x="241" y="66"/>
      <point x="181" y="72"/>
      <point x="116" y="89" type="curve"/>
      <point x="138" y="52" type="line"/>
      <point x="116" y="200" type="line"/>
      <point x="47" y="200" type="line"/>
      <point x="47" y="22" type="line"/>
      <point x="135" y="-1"/>
      <point x="216" y="-8"/>
      <point x="297" y="-8" type="curve" smooth="yes"/>
      <point x="492" y="-8"/>
      <point x="567" y="40"/>
      <point x="567" y="190" type="curve" smooth="yes"/>
      <point x="567" y="325"/>
      <point x="518" y="351"/>
      <point x="366" y="380" type="curve" smooth="yes"/>
      <point x="163" y="419"/>
      <point x="135" y="419"/>
      <point x="135" y="513" type="curve" smooth="yes"/>
      <point x="135" y="582"/>
      <point x="164" y="614"/>
      <point x="305" y="614" type="curve" smooth="yes"/>
      <point x="361" y="614"/>
      <point x="419" y="609"/>
      <point x="481" y="595" type="curve"/>
      <point x="464" y="634" type="line"/>
      <point x="485" y="487" type="line"/>
      <point x="551" y="487" type="line"/>
      <point x="551" y="662" type="line"/>
      <point x="469" y="679"/>
      <point x="389" y="688"/>
      <point x="309" y="688" type="curve" smooth="yes"/>
    </contour>
    <contour>
      <point x="309" y="680" type="move" name="top"/>
    </contour>
    <contour>
      <point x="310" y="0" type="move" name="bottom"/>
    </contour>
  </outline>
</glyph>
<glyph name="T" format="1">
  <advance width="676"/>
  <unicode hex="0054"/>
  <outline>
    <contour>
      <point x="30" y="680" type="line"/>
      <point x="30" y="488" type="line"/>
      <point x="85" y="488" type="line"/>
      <point x="114" y="608" type="line"/>
      <point x="295" y="608" type="line"/>
      <point x="295" y="85" type="line"/>
      <point x="211" y="55" type="line"/>
      <point x="211" y="0" type="line"/>
      <point x="465" y="0" type="line"/>
      <point x="465" y="55" type="line"/>
      <point x="381" y="85" type="line"/>
      <point x="381" y="608" type="line"/>
      <point x="562" y="608" type="line"/>
      <point x="591" y="488" type="line"/>
      <point x="646" y="488" type="line"/>
      <point x="646" y="680" type="line"/>
    </contour>
    <contour>
      <point x="338" y="340" type="move" name="center"/>
    </contour>
    <contour>
      <point x="338" y="0" type="move" name="bottom"/>
    </contour>
    <contour>
      <point x="338" y="680" type="move" name="top"/>
    </contour>
  </outline>
</glyph>
<glyph name="U" format="1">
  <advance width="793"/>
  <unicode hex="0055"/>
  <outline>
    <contour>
      <point x="516" y="680" type="line"/>
      <point x="516" y="623" type="line"/>
      <point x="597" y="594" type="line"/>
      <point x="597" y="260" type="line" smooth="yes"/>
      <point x="597" y="99"/>
      <point x="532" y="59"/>
      <point x="406" y="59" type="curve" smooth="yes"/>
      <point x="269" y="59"/>
      <point x="205" y="107"/>
      <point x="205" y="267" type="curve" smooth="yes"/>
      <point x="205" y="594" type="line"/>
      <point x="279" y="623" type="line"/>
      <point x="279" y="680" type="line"/>
      <point x="45" y="680" type="line"/>
      <point x="45" y="623" type="line"/>
      <point x="119" y="594" type="line"/>
      <point x="119" y="260" type="line" smooth="yes"/>
      <point x="119" y="57"/>
      <point x="226" y="-15"/>
      <point x="402" y="-15" type="curve" smooth="yes"/>
      <point x="577" y="-15"/>
      <point x="669" y="57"/>
      <point x="669" y="267" type="curve" smooth="yes"/>
      <point x="669" y="594" type="line"/>
      <point x="753" y="623" type="line"/>
      <point x="753" y="680" type="line"/>
    </contour>
    <contour>
      <point x="402" y="8" type="move" name="ogonek"/>
    </contour>
    <contour>
      <point x="398" y="680" type="move" name="top"/>
    </contour>
    <contour>
      <point x="773" y="680" type="move" name="topright"/>
    </contour>
    <contour>
      <point x="401" y="0" type="move" name="bottom"/>
    </contour>
  </outline>
</glyph>
<glyph name="V" format="1">
  <advance width="755"/>
  <unicode hex="0056"/>
  <outline>
    <contour>
      <point x="431" y="0" type="line"/>
      <point x="657" y="594" type="line"/>
      <point x="726" y="623" type="line"/>
      <point x="726" y="680" type="line"/>
      <point x="507" y="680" type="line"/>
      <point x="507" y="623" type="line"/>
      <point x="581" y="594" type="line"/>
      <point x="382" y="62" type="line"/>
      <point x="388" y="62" type="line"/>
      <point x="190" y="594" type="line"/>
      <point x="264" y="623" type="line"/>
      <point x="264" y="680" type="line"/>
      <point x="29" y="680" type="line"/>
      <point x="29" y="623" type="line"/>
      <point x="98" y="594" type="line"/>
      <point x="324" y="0" type="line"/>
    </contour>
    <contour>
      <point x="378" y="680" type="move" name="top"/>
    </contour>
    <contour>
      <point x="386" y="0" type="move" name="bottom"/>
    </contour>
  </outline>
</glyph>
<glyph name="W" format="1">
  <advance width="1052"/>
  <unicode hex="0057"/>
  <outline>
    <contour>
      <point x="811" y="680" type="line"/>
      <point x="811" y="623" type="line"/>
      <point x="885" y="594" type="line"/>
      <point x="735" y="80" type="line"/>
      <point x="741" y="80" type="line"/>
      <point x="586" y="625" type="line"/>
      <point x="481" y="625" type="line"/>
      <point x="327" y="80" type="line"/>
      <point x="333" y="80" type="line"/>
      <point x="182" y="594" type="line"/>
      <point x="256" y="623" type="line"/>
      <point x="256" y="680" type="line"/>
      <point x="23" y="680" type="line"/>
      <point x="23" y="623" type="line"/>
      <point x="92" y="594" type="line"/>
      <point x="272" y="0" type="line"/>
      <point x="374" y="0" type="line"/>
      <point x="531" y="540" type="line"/>
      <point x="527" y="540" type="line"/>
      <point x="681" y="0" type="line"/>
      <point x="782" y="0" type="line"/>
      <point x="960" y="594" type="line"/>
      <point x="1029" y="623" type="line"/>
      <point x="1029" y="680" type="line"/>
    </contour>
    <contour>
      <point x="529" y="680" type="move" name="top"/>
    </contour>
    <contour>
      <point x="529" y="0" type="move" name="bottom"/>
    </contour>
  </outline>
</glyph>
<glyph name="X" format="1">
  <advance width="752"/>
  <unicode hex="0058"/>
  <outline>
    <contour>
      <point x="34" y="680" type="line"/>
      <point x="34" y="623" type="line"/>
      <point x="103" y="594" type="line"/>
      <point x="542" y="85" type="line"/>
      <point x="468" y="55" type="line"/>
      <point x="468" y="0" type="line"/>
      <point x="722" y="0" type="line"/>
      <point x="722" y="55" type="line"/>
      <point x="653" y="85" type="line"/>
      <point x="214" y="594" type="line"/>
      <point x="288" y="623" type="line"/>
      <point x="288" y="680" type="line"/>
    </contour>
    <contour>
      <point x="99" y="85" type="line"/>
      <point x="30" y="55" type="line"/>
      <point x="30" y="0" type="line"/>
      <point x="270" y="0" type="line"/>
      <point x="270" y="55" type="line"/>
      <point x="196" y="85" type="line"/>
      <point x="376" y="293" type="line"/>
      <point x="331" y="345" type="line"/>
    </contour>
    <contour>
      <point x="484" y="680" type="line"/>
      <point x="484" y="625" type="line"/>
      <point x="558" y="595" type="line"/>
      <point x="379" y="386" type="line"/>
      <point x="423" y="335" type="line"/>
      <point x="653" y="595" type="line"/>
      <point x="722" y="625" type="line"/>
      <point x="722" y="680" type="line"/>
    </contour>
    <contour>
      <point x="386" y="680" type="move" name="top"/>
    </contour>
    <contour>
      <point x="369" y="0" type="move" name="bottom"/>
    </contour>
  </outline>
</glyph>
<glyph name="Y" format="1">
  <advance width="696"/>
  <unicode hex="0059"/>
  <outline>
    <contour>
      <point x="457" y="680" type="line"/>
      <point x="457" y="623" type="line"/>
      <point x="526" y="594" type="line"/>
      <point x="348" y="323" type="line"/>
      <point x="363" y="323" type="line"/>
      <point x="184" y="594" type="line"/>
      <point x="254" y="623" type="line"/>
      <point x="254" y="680" type="line"/>
      <point x="20" y="680" type="line"/>
      <point x="20" y="623" type="line"/>
      <point x="85" y="594" type="line"/>
      <point x="305" y="265" type="line"/>
      <point x="305" y="85" type="line"/>
      <point x="221" y="55" type="line"/>
      <point x="221" y="0" type="line"/>
      <point x="475" y="0" type="line"/>
      <point x="475" y="55" type="line"/>
      <point x="391" y="85" type="line"/>
      <point x="391" y="265" type="line"/>
      <point x="612" y="594" type="line"/>
      <point x="676" y="623" type="line"/>
      <point x="676" y="680" type="line"/>
    </contour>
    <contour>
      <point x="341" y="10" type="move" name="ogonek"/>
    </contour>
    <contour>
      <point x="348" y="0" type="move" name="bottom"/>
    </contour>
    <contour>
      <point x="356" y="680" type="move" name="top"/>
    </contour>
  </outline>
</glyph>
<glyph name="Z" format="1">
  <advance width="674"/>
  <unicode hex="005A"/>
  <outline>
    <contour>
      <point x="65" y="680" type="line"/>
      <point x="65" y="503" type="line"/>
      <point x="124" y="503" type="line"/>
      <point x="150" y="608" type="line"/>
      <point x="523" y="608" type="line"/>
      <point x="523" y="614" type="line"/>
      <point x="60" y="85" type="line"/>
      <point x="60" y="0" type="line"/>
      <point x="624" y="0" type="line"/>
      <point x="624" y="187" type="line"/>
      <point x="565" y="187" type="line"/>
      <point x="539" y="72" type="line"/>
      <point x="151" y="72" type="line"/>
      <point x="151" y="66" type="line"/>
      <point x="614" y="595" type="line"/>
      <point x="614" y="680" type="line"/>
    </contour>
    <contour>
      <point x="340" y="680" type="move" name="top"/>
    </contour>
    <contour>
      <point x="342" y="0" type="move" name="bottom"/>
    </contour>
  </outline>
</glyph>
<glyph name="bracketleft" format="1">
  <advance width="395"/>
  <unicode hex="005B"/>
  <outline>
    <contour>
      <point x="109" y="716" type="line"/>
      <point x="109" y="-224" type="line"/>
      <point x="355" y="-224" type="line"/>
      <point x="355" y="-152" type="line"/>
      <point x="195" y="-152" type="line"/>
      <point x="195" y="644" type="line"/>
      <point x="355" y="644" type="line"/>
      <point x="355" y="716" type="line"/>
    </contour>
  </outline>
</glyph>
<glyph name="asciicircum" format="1">
  <advance width="582"/>
  <unicode hex="005E"/>
  <outline>
    <contour>
      <point x="132" y="389" type="line"/>
      <point x="311" y="630" type="line"/>
      <point x="271" y="630" type="line"/>
      <point x="450" y="389" type="line"/>
      <point x="534" y="389" type="line"/>
      <point x="328" y="692" type="line"/>
      <point x="254" y="692" type="line"/>
      <point x="48" y="389" type="line"/>
    </contour>
  </outline>
</glyph>
<glyph name="underscore" format="1">
  <advance width="475"/>
  <unicode hex="005F"/>
  <outline>
    <contour>
      <point x="0" y="-127" type="line"/>
      <point x="475" y="-127" type="line"/>
      <point x="475" y="-55" type="line"/>
      <point x="0" y="-55" type="line"/>
    </contour>
  </outline>
</glyph>
<glyph name="a" format="1">
  <advance width="610"/>
  <unicode hex="0061"/>
  <outline>
    <contour>
      <point x="211" y="516"/>
      <point x="140" y="506"/>
      <point x="75" y="492" type="curve"/>
      <point x="75" y="420" type="line"/>
      <point x="143" y="435"/>
      <point x="211" y="444"/>
      <point x="285" y="444" type="curve" smooth="yes"/>
      <point x="397" y="444"/>
      <point x="423" y="413"/>
      <point x="423" y="324" type="curve" smooth="yes"/>
      <point x="423" y="285" type="line"/>
      <point x="397" y="299"/>
      <point x="348" y="314"/>
      <point x="279" y="314" type="curve" smooth="yes"/>
      <point x="117" y="314"/>
      <point x="47" y="264"/>
      <point x="47" y="147" type="curve" smooth="yes"/>
      <point x="47" y="35"/>
      <point x="110" y="-10"/>
      <point x="235" y="-10" type="curve" smooth="yes"/>
      <point x="322" y="-10"/>
      <point x="387" y="21"/>
      <point x="446" y="90" type="curve"/>
      <point x="423" y="90" type="line"/>
      <point x="456" y="0" type="line"/>
      <point x="575" y="0" type="line"/>
      <point x="575" y="55" type="line"/>
      <point x="507" y="85" type="line"/>
      <point x="507" y="342" type="line" smooth="yes"/>
      <point x="507" y="457"/>
      <point x="481" y="516"/>
      <point x="287" y="516" type="curve" smooth="yes"/>
    </contour>
    <contour>
      <point x="328" y="244"/>
      <point x="381" y="240"/>
      <point x="423" y="228" type="curve"/>
      <point x="423" y="128" type="line"/>
      <point x="375" y="88"/>
      <point x="315" y="62"/>
      <point x="249" y="62" type="curve" smooth="yes"/>
      <point x="160" y="62"/>
      <point x="135" y="90"/>
      <point x="135" y="153" type="curve" smooth="yes"/>
      <point x="135" y="212"/>
      <point x="167" y="244"/>
      <point x="288" y="244" type="curve" smooth="yes"/>
    </contour>
    <contour>
      <point x="487" y="10" type="move" name="ogonek"/>
    </contour>
    <contour>
      <point x="305" y="0" type="move" name="bottom"/>
    </contour>
    <contour>
      <point x="287" y="502" type="move" name="top"/>
    </contour>
  </outline>
</glyph>
<glyph name="b" format="1">
  <advance width="625"/>
  <unicode hex="0062"/>
  <outline>
    <contour>
      <point x="36" y="710" type="line"/>
      <point x="36" y="653" type="line"/>
      <point x="104" y="625" type="line"/>
      <point x="104" y="0" type="line"/>
      <point x="155" y="0" type="line"/>
      <point x="188" y="90" type="line"/>
      <point x="165" y="90" type="line"/>
      <point x="224" y="21"/>
      <point x="289" y="-10"/>
      <point x="380" y="-10" type="curve" smooth="yes"/>
      <point x="510" y="-10"/>
      <point x="579" y="47"/>
      <point x="579" y="249" type="curve" smooth="yes"/>
      <point x="579" y="446"/>
      <point x="497" y="516"/>
      <point x="371" y="516" type="curve" smooth="yes"/>
      <point x="308" y="516"/>
      <point x="249" y="499"/>
      <point x="178" y="455" type="curve"/>
      <point x="188" y="451" type="line"/>
      <point x="188" y="710" type="line"/>
    </contour>
    <contour>
      <point x="454" y="443"/>
      <point x="491" y="374"/>
      <point x="491" y="241" type="curve" smooth="yes"/>
      <point x="491" y="101"/>
      <point x="450" y="63"/>
      <point x="363" y="63" type="curve" smooth="yes"/>
      <point x="297" y="63"/>
      <point x="241" y="86"/>
      <point x="188" y="128" type="curve"/>
      <point x="188" y="402" type="line"/>
      <point x="252" y="425"/>
      <point x="299" y="443"/>
      <point x="351" y="443" type="curve" smooth="yes"/>
    </contour>
    <contour>
      <point x="313" y="680" type="move" name="top"/>
    </contour>
    <contour>
      <point x="313" y="0" type="move" name="bottom"/>
    </contour>
  </outline>
</glyph>
<glyph name="c" format="1">
  <advance width="499"/>
  <unicode hex="0063"/>
  <outline>
    <contour>
      <point x="134" y="516"/>
      <point x="41" y="442"/>
      <point x="41" y="250" type="curve" smooth="yes"/>
      <point x="41" y="46"/>
      <point x="143" y="-14"/>
      <point x="296" y="-14" type="curve" smooth="yes"/>
      <point x="350" y="-14"/>
      <point x="409" y="-5"/>
      <point x="451" y="11" type="curve"/>
      <point x="451" y="83" type="line"/>
      <point x="399" y="64"/>
      <point x="355" y="58"/>
      <point x="300" y="58" type="curve" smooth="yes"/>
      <point x="181" y="58"/>
      <point x="129" y="92"/>
      <point x="129" y="253" type="curve" smooth="yes"/>
      <point x="129" y="400"/>
      <point x="163" y="447"/>
      <point x="319" y="447" type="curve"/>
      <point x="363" y="347" type="line"/>
      <point x="432" y="347"/>
      <point x="459" y="378"/>
      <point x="459" y="428" type="curve" smooth="yes"/>
      <point x="459" y="487"/>
      <point x="422" y="516"/>
      <point x="308" y="516" type="curve" smooth="yes"/>
    </contour>
    <contour>
      <point x="288" y="502" type="move" name="top"/>
    </contour>
    <contour>
      <point x="286" y="0" type="move" name="bottom"/>
    </contour>
  </outline>
</glyph>
<glyph name="d" format="1">
  <advance width="624"/>
  <unicode hex="0064"/>
  <outline>
    <contour>
      <point x="369" y="710" type="line"/>
      <point x="369" y="653" type="line"/>
      <point x="437" y="625" type="line"/>
      <point x="437" y="451" type="line"/>
      <point x="447" y="455" type="line"/>
      <point x="376" y="499"/>
      <point x="317" y="516"/>
      <point x="254" y="516" type="curve" smooth="yes"/>
      <point x="128" y="516"/>
      <point x="46" y="446"/>
      <point x="46" y="249" type="curve" smooth="yes"/>
      <point x="46" y="47"/>
      <point x="115" y="-10"/>
      <point x="245" y="-10" type="curve" smooth="yes"/>
      <point x="336" y="-10"/>
      <point x="401" y="21"/>
      <point x="460" y="90" type="curve"/>
      <point x="437" y="90" type="line"/>
      <point x="470" y="0" type="line"/>
      <point x="589" y="0" type="line"/>
      <point x="589" y="55" type="line"/>
      <point x="521" y="85" type="line"/>
      <point x="521" y="710" type="line"/>
    </contour>
    <contour>
      <point x="326" y="443"/>
      <point x="373" y="425"/>
      <point x="437" y="402" type="curve"/>
      <point x="437" y="128" type="line"/>
      <point x="384" y="86"/>
      <point x="328" y="63"/>
      <point x="262" y="63" type="curve" smooth="yes"/>
      <point x="175" y="63"/>
      <point x="134" y="101"/>
      <point x="134" y="241" type="curve" smooth="yes"/>
      <point x="134" y="374"/>
      <point x="171" y="443"/>
      <point x="274" y="443" type="curve" smooth="yes"/>
    </contour>
    <contour>
      <point x="312" y="0" type="move" name="bottom"/>
    </contour>
    <contour>
      <point x="479" y="680" type="move" name="top"/>
    </contour>
    <contour>
      <point x="609" y="502" type="move" name="topright"/>
    </contour>
    <contour>
      <point x="312" y="251" type="move" name="center"/>
    </contour>
  </outline>
</glyph>
<glyph name="e" format="1">
  <advance width="552"/>
  <unicode hex="0065"/>
  <outline>
    <contour>
      <point x="147" y="516"/>
      <point x="41" y="439"/>
      <point x="41" y="251" type="curve" smooth="yes"/>
      <point x="41" y="48"/>
      <point x="145" y="-14"/>
      <point x="312" y="-14" type="curve" smooth="yes"/>
      <point x="377" y="-14"/>
      <point x="452" y="-4"/>
      <point x="502" y="9" type="curve"/>
      <point x="502" y="81" type="line"/>
      <point x="429" y="63"/>
      <point x="373" y="58"/>
      <point x="314" y="58" type="curve" smooth="yes"/>
      <point x="188" y="58"/>
      <point x="139" y="91"/>
      <point x="129" y="224" type="curve"/>
      <point x="521" y="224" type="line"/>
      <point x="521" y="264" type="line" smooth="yes"/>
      <point x="521" y="439"/>
      <point x="420" y="516"/>
      <point x="292" y="516" type="curve" smooth="yes"/>
    </contour>
    <contour>
      <point x="380" y="444"/>
      <point x="424" y="392"/>
      <point x="432" y="295" type="curve"/>
      <point x="130" y="295" type="line"/>
      <point x="139" y="400"/>
      <point x="183" y="444"/>
      <point x="287" y="444" type="curve" smooth="yes"/>
    </contour>
    <contour>
      <point x="437" y="19" type="move" name="ogonek"/>
    </contour>
    <contour>
      <point x="312" y="0" type="move" name="bottom"/>
    </contour>
    <contour>
      <point x="292" y="502" type="move" name="top"/>
    </contour>
  </outline>
</glyph>
<glyph name="f" format="1">
  <advance width="348"/>
  <unicode hex="0066"/>
  <outline>
    <contour>
      <point x="172" y="720"/>
      <point x="114" y="654"/>
      <point x="114" y="522" type="curve" smooth="yes"/>
      <point x="114" y="502" type="line"/>
      <point x="46" y="488" type="line"/>
      <point x="46" y="432" type="line"/>
      <point x="114" y="432" type="line"/>
      <point x="114" y="85" type="line"/>
      <point x="46" y="55" type="line"/>
      <point x="46" y="0" type="line"/>
      <point x="291" y="0" type="line"/>
      <point x="291" y="55" type="line"/>
      <point x="198" y="85" type="line"/>
      <point x="198" y="432" type="line"/>
      <point x="301" y="432" type="line"/>
      <point x="301" y="502" type="line"/>
      <point x="198" y="502" type="line"/>
      <point x="198" y="527" type="line" smooth="yes"/>
      <point x="198" y="622"/>
      <point x="228" y="650"/>
      <point x="308" y="650" type="curve" smooth="yes"/>
      <point x="329" y="650"/>
      <point x="354" y="648"/>
      <point x="368" y="645" type="curve"/>
      <point x="368" y="713" type="line"/>
      <point x="357" y="717"/>
      <point x="331" y="720"/>
      <point x="303" y="720" type="curve" smooth="yes"/>
    </contour>
    <contour>
      <point x="207" y="680" type="move" name="top"/>
    </contour>
    <contour>
      <point x="174" y="0" type="move" name="bottom"/>
    </contour>
  </outline>
</glyph>
<glyph name="g" format="1">
  <advance width="566"/>
  <unicode hex="0067"/>
  <outline>
    <contour>
      <point x="131" y="516"/>
      <point x="47" y="457"/>
      <point x="47" y="334" type="curve" smooth="yes"/>
      <point x="47" y="210"/>
      <point x="133" y="156"/>
      <point x="268" y="156" type="curve" smooth="yes"/>
      <point x="402" y="156"/>
      <point x="486" y="210"/>
      <point x="486" y="332" type="curve" smooth="yes"/>
      <point x="486" y="455"/>
      <point x="401" y="516"/>
      <point x="265" y="516" type="curve" smooth="yes"/>
    </contour>
    <contour>
      <point x="379" y="451"/>
      <point x="402" y="414"/>
      <point x="402" y="336" type="curve" smooth="yes"/>
      <point x="402" y="258"/>
      <point x="379" y="221"/>
      <point x="266" y="221" type="curve" smooth="yes"/>
      <point x="153" y="221"/>
      <point x="130" y="257"/>
      <point x="130" y="335" type="curve" smooth="yes"/>
      <point x="130" y="413"/>
      <point x="153" y="451"/>
      <point x="266" y="451" type="curve" smooth="yes"/>
    </contour>
    <contour>
      <point x="541" y="445" type="line"/>
      <point x="541" y="502" type="line"/>
      <point x="334" y="502" type="line"/>
      <point x="462" y="420" type="line"/>
    </contour>
    <contour>
      <point x="61" y="199"/>
      <point x="37" y="165"/>
      <point x="37" y="117" type="curve" smooth="yes"/>
      <point x="37" y="73"/>
      <point x="57" y="33"/>
      <point x="114" y="18" type="curve"/>
      <point x="114" y="28" type="line"/>
      <point x="51" y="16"/>
      <point x="22" y="-24"/>
      <point x="22" y="-79" type="curve" smooth="yes"/>
      <point x="22" y="-196"/>
      <point x="141" y="-234"/>
      <point x="280" y="-234" type="curve" smooth="yes"/>
      <point x="459" y="-234"/>
      <point x="541" y="-179"/>
      <point x="541" y="-56" type="curve" smooth="yes"/>
      <point x="541" y="35"/>
      <point x="498" y="78"/>
      <point x="388" y="78" type="curve" smooth="yes"/>
      <point x="204" y="78" type="line" smooth="yes"/>
      <point x="134" y="78"/>
      <point x="110" y="95"/>
      <point x="110" y="131" type="curve" smooth="yes"/>
      <point x="110" y="157"/>
      <point x="123" y="181"/>
      <point x="157" y="197" type="curve"/>
      <point x="113" y="217" type="line"/>
    </contour>
    <contour>
      <point x="440" y="0"/>
      <point x="458" y="-18"/>
      <point x="458" y="-71" type="curve" smooth="yes"/>
      <point x="458" y="-140"/>
      <point x="426" y="-167"/>
      <point x="285" y="-167" type="curve" smooth="yes"/>
      <point x="149" y="-167"/>
      <point x="100" y="-136"/>
      <point x="100" y="-69" type="curve" smooth="yes"/>
      <point x="100" y="-24"/>
      <point x="124" y="0"/>
      <point x="169" y="0" type="curve" smooth="yes"/>
      <point x="381" y="0" type="line" smooth="yes"/>
    </contour>
    <contour>
      <point x="294" y="502" type="move" name="top"/>
    </contour>
    <contour>
      <point x="279" y="-224" type="move" name="bottom"/>
    </contour>
  </outline>
</glyph>
<glyph name="h" format="1">
  <advance width="663"/>
  <unicode hex="0068"/>
  <outline>
    <contour>
      <point x="46" y="710" type="line"/>
      <point x="46" y="653" type="line"/>
      <point x="114" y="625" type="line"/>
      <point x="114" y="85" type="line"/>
      <point x="46" y="55" type="line"/>
      <point x="46" y="0" type="line"/>
      <point x="266" y="0" type="line"/>
      <point x="266" y="55" type="line"/>
      <point x="198" y="85" type="line"/>
      <point x="198" y="402" type="line"/>
      <point x="268" y="427"/>
      <point x="313" y="443"/>
      <point x="364" y="443" type="curve" smooth="yes"/>
      <point x="435" y="443"/>
      <point x="476" y="412"/>
      <point x="476" y="331" type="curve" smooth="yes"/>
      <point x="476" y="0" type="line"/>
      <point x="628" y="0" type="line"/>
      <point x="628" y="55" type="line"/>
      <point x="560" y="85" type="line"/>
      <point x="560" y="320" type="line" smooth="yes"/>
      <point x="560" y="462"/>
      <point x="517" y="516"/>
      <point x="391" y="516" type="curve" smooth="yes"/>
      <point x="319" y="516"/>
      <point x="252" y="498"/>
      <point x="171" y="452" type="curve"/>
      <point x="198" y="452" type="line"/>
      <point x="198" y="710" type="line"/>
    </contour>
    <contour>
      <point x="332" y="251" type="move" name="center"/>
    </contour>
    <contour>
      <point x="332" y="0" type="move" name="bottom"/>
    </contour>
    <contour>
      <point x="332" y="680" type="move" name="top"/>
    </contour>
  </outline>
</glyph>
<glyph name="i" format="1">
  <advance width="301"/>
  <unicode hex="0069"/>
  <outline>
    <contour>
      <point x="107" y="721"/>
      <point x="80" y="697"/>
      <point x="80" y="652" type="curve" smooth="yes"/>
      <point x="80" y="607"/>
      <point x="107" y="583"/>
      <point x="148" y="583" type="curve" smooth="yes"/>
      <point x="189" y="583"/>
      <point x="216" y="607"/>
      <point x="216" y="652" type="curve" smooth="yes"/>
      <point x="216" y="697"/>
      <point x="189" y="721"/>
      <point x="148" y="721" type="curve" smooth="yes"/>
    </contour>
    <component base="idotless"/>
  </outline>
</glyph>
<glyph name="j" format="1">
  <advance width="291"/>
  <unicode hex="006A"/>
  <outline>
    <contour>
      <point x="107" y="721"/>
      <point x="80" y="697"/>
      <point x="80" y="652" type="curve" smooth="yes"/>
      <point x="80" y="607"/>
      <point x="107" y="583"/>
      <point x="148" y="583" type="curve" smooth="yes"/>
      <point x="189" y="583"/>
      <point x="216" y="607"/>
      <point x="216" y="652" type="curve" smooth="yes"/>
      <point x="216" y="697"/>
      <point x="189" y="721"/>
      <point x="148" y="721" type="curve" smooth="yes"/>
    </contour>
    <component base="jdotless"/>
  </outline>
</glyph>
<glyph name="k" format="1">
  <advance width="648"/>
  <unicode hex="006B"/>
  <outline>
    <contour>
      <point x="46" y="710" type="line"/>
      <point x="46" y="653" type="line"/>
      <point x="114" y="625" type="line"/>
      <point x="114" y="85" type="line"/>
      <point x="46" y="55" type="line"/>
      <point x="46" y="0" type="line"/>
      <point x="266" y="0" type="line"/>
      <point x="266" y="55" type="line"/>
      <point x="198" y="85" type="line"/>
      <point x="198" y="710" type="line"/>
    </contour>
    <contour>
      <point x="351" y="502" type="line"/>
      <point x="351" y="445" type="line"/>
      <point x="439" y="422" type="line"/>
      <point x="439" y="427" type="line"/>
      <point x="188" y="244" type="line"/>
      <point x="188" y="157" type="line"/>
      <point x="534" y="412" type="line"/>
      <point x="602" y="445" type="line"/>
      <point x="602" y="502" type="line"/>
    </contour>
    <contour>
      <point x="303" y="254" type="line"/>
      <point x="520" y="0" type="line"/>
      <point x="633" y="0" type="line"/>
      <point x="633" y="55" type="line"/>
      <point x="560" y="85" type="line"/>
      <point x="370" y="304" type="line"/>
    </contour>
    <contour>
      <point x="324" y="680" type="move" name="top"/>
    </contour>
    <contour>
      <point x="394" y="0" type="move" name="bottom"/>
    </contour>
  </outline>
</glyph>
<glyph name="l" format="1">
  <advance width="301"/>
  <unicode hex="006C"/>
  <outline>
    <contour>
      <point x="46" y="710" type="line"/>
      <point x="46" y="653" type="line"/>
      <point x="114" y="625" type="line"/>
      <point x="114" y="85" type="line"/>
      <point x="46" y="55" type="line"/>
      <point x="46" y="0" type="line"/>
      <point x="266" y="0" type="line"/>
      <point x="266" y="55" type="line"/>
      <point x="198" y="85" type="line"/>
      <point x="198" y="710" type="line"/>
    </contour>
    <contour>
      <point x="156" y="0" type="move" name="bottom"/>
    </contour>
    <contour>
      <point x="156" y="680" type="move" name="top"/>
    </contour>
    <contour>
      <point x="286" y="502" type="move" name="topright"/>
    </contour>
    <contour>
      <point x="151" y="251" type="move" name="center"/>
    </contour>
  </outline>
</glyph>
<glyph name="m" format="1">
  <advance width="997"/>
  <unicode hex="006D"/>
  <outline>
    <contour>
      <point x="659" y="516"/>
      <point x="595" y="497"/>
      <point x="502" y="446" type="curve"/>
      <point x="535" y="443" type="line"/>
      <point x="505" y="495"/>
      <point x="460" y="516"/>
      <point x="386" y="516" type="curve" smooth="yes"/>
      <point x="312" y="516"/>
      <point x="248" y="497"/>
      <point x="155" y="446" type="curve"/>
      <point x="193" y="446" type="line"/>
      <point x="157" y="502" type="line"/>
      <point x="46" y="502" type="line"/>
      <point x="46" y="445" type="line"/>
      <point x="114" y="417" type="line"/>
      <point x="114" y="85" type="line"/>
      <point x="46" y="55" type="line"/>
      <point x="46" y="0" type="line"/>
      <point x="266" y="0" type="line"/>
      <point x="266" y="55" type="line"/>
      <point x="198" y="85" type="line"/>
      <point x="198" y="402" type="line"/>
      <point x="268" y="427"/>
      <point x="308" y="443"/>
      <point x="359" y="443" type="curve" smooth="yes"/>
      <point x="425" y="443"/>
      <point x="462" y="412"/>
      <point x="462" y="331" type="curve" smooth="yes"/>
      <point x="462" y="0" type="line"/>
      <point x="614" y="0" type="line"/>
      <point x="614" y="55" type="line"/>
      <point x="546" y="85" type="line"/>
      <point x="546" y="402" type="line"/>
      <point x="615" y="427"/>
      <point x="655" y="443"/>
      <point x="707" y="443" type="curve" smooth="yes"/>
      <point x="773" y="443"/>
      <point x="810" y="412"/>
      <point x="810" y="331" type="curve" smooth="yes"/>
      <point x="810" y="0" type="line"/>
      <point x="962" y="0" type="line"/>
      <point x="962" y="55" type="line"/>
      <point x="894" y="85" type="line"/>
      <point x="894" y="320" type="line" smooth="yes"/>
      <point x="894" y="462"/>
      <point x="854" y="516"/>
      <point x="734" y="516" type="curve" smooth="yes"/>
    </contour>
    <contour>
      <point x="504" y="502" type="move" name="top"/>
    </contour>
    <contour>
      <point x="504" y="0" type="move" name="bottom"/>
    </contour>
  </outline>
</glyph>
<glyph name="n" format="1">
  <advance width="663"/>
  <unicode hex="006E"/>
  <outline>
    <contour>
      <point x="319" y="516"/>
      <point x="251" y="497"/>
      <point x="172" y="455" type="curve"/>
      <point x="193" y="446" type="line"/>
      <point x="157" y="502" type="line"/>
      <point x="46" y="502" type="line"/>
      <point x="46" y="445" type="line"/>
      <point x="114" y="417" type="line"/>
      <point x="114" y="85" type="line"/>
      <point x="46" y="55" type="line" smooth="yes"/>
      <point x="46" y="0" type="line"/>
      <point x="276" y="0" type="line"/>
      <point x="276" y="55" type="line"/>
      <point x="198" y="85" type="line"/>
      <point x="198" y="402" type="line"/>
      <point x="268" y="427"/>
      <point x="313" y="443"/>
      <point x="364" y="443" type="curve" smooth="yes"/>
      <point x="435" y="443"/>
      <point x="476" y="412"/>
      <point x="476" y="331" type="curve" smooth="yes"/>
      <point x="476" y="0" type="line"/>
      <point x="628" y="0" type="line"/>
      <point x="628" y="55" type="line"/>
      <point x="560" y="85" type="line"/>
      <point x="560" y="320" type="line" smooth="yes"/>
      <point x="560" y="462"/>
      <point x="517" y="516"/>
      <point x="391" y="516" type="curve" smooth="yes"/>
    </contour>
    <contour>
      <point x="337" y="502" type="move" name="top"/>
    </contour>
    <contour>
      <point x="337" y="0" type="move" name="bottom"/>
    </contour>
  </outline>
</glyph>
<glyph name="o" format="1">
  <advance width="590"/>
  <unicode hex="006F"/>
  <outline>
    <contour>
      <point x="154" y="516"/>
      <point x="41" y="446"/>
      <point x="41" y="251" type="curve" smooth="yes"/>
      <point x="41" y="56"/>
      <point x="153" y="-14"/>
      <point x="295" y="-14" type="curve" smooth="yes"/>
      <point x="437" y="-14"/>
      <point x="549" y="56"/>
      <point x="549" y="251" type="curve" smooth="yes"/>
      <point x="549" y="446"/>
      <point x="436" y="516"/>
      <point x="295" y="516" type="curve" smooth="yes"/>
    </contour>
    <contour>
      <point x="410" y="444"/>
      <point x="461" y="402"/>
      <point x="461" y="251" type="curve" smooth="yes"/>
      <point x="461" y="100"/>
      <point x="410" y="58"/>
      <point x="295" y="58" type="curve" smooth="yes"/>
      <point x="180" y="58"/>
      <point x="129" y="100"/>
      <point x="129" y="251" type="curve" smooth="yes"/>
      <point x="129" y="402"/>
      <point x="180" y="444"/>
      <point x="295" y="444" type="curve" smooth="yes"/>
    </contour>
    <contour>
      <point x="250" y="10" type="move" name="_ogonek"/>
    </contour>
    <contour>
      <point x="295" y="251" type="move" name="center"/>
    </contour>
    <contour>
      <point x="288" y="10" type="move" name="ogonek"/>
    </contour>
    <contour>
      <point x="295" y="502" type="move" name="top"/>
    </contour>
    <contour>
      <point x="570" y="502" type="move" name="topright"/>
    </contour>
    <contour>
      <point x="295" y="0" type="move" name="bottom"/>
    </contour>
  </outline>
</glyph>
<glyph name="p" format="1">
  <advance width="625"/>
  <unicode hex="0070"/>
  <outline>
    <contour>
      <point x="308" y="516"/>
      <point x="246" y="499"/>
      <point x="169" y="449" type="curve"/>
      <point x="183" y="446" type="line"/>
      <point x="147" y="502" type="line"/>
      <point x="36" y="502" type="line"/>
      <point x="36" y="445" type="line"/>
      <point x="104" y="417" type="line"/>
      <point x="104" y="-139" type="line"/>
      <point x="36" y="-169" type="line"/>
      <point x="36" y="-224" type="line"/>
      <point x="266" y="-224" type="line"/>
      <point x="266" y="-169" type="line"/>
      <point x="188" y="-139" type="line"/>
      <point x="188" y="90" type="line"/>
      <point x="165" y="90" type="line"/>
      <point x="224" y="21"/>
      <point x="289" y="-10"/>
      <point x="380" y="-10" type="curve" smooth="yes"/>
      <point x="510" y="-10"/>
      <point x="579" y="47"/>
      <point x="579" y="249" type="curve" smooth="yes"/>
      <point x="579" y="446"/>
      <point x="497" y="516"/>
      <point x="371" y="516" type="curve" smooth="yes"/>
    </contour>
    <contour>
      <point x="454" y="443"/>
      <point x="491" y="374"/>
      <point x="491" y="241" type="curve" smooth="yes"/>
      <point x="491" y="101"/>
      <point x="450" y="63"/>
      <point x="363" y="63" type="curve" smooth="yes"/>
      <point x="297" y="63"/>
      <point x="241" y="86"/>
      <point x="188" y="128" type="curve"/>
      <point x="188" y="402" type="line"/>
      <point x="252" y="425"/>
      <point x="299" y="443"/>
      <point x="351" y="443" type="curve" smooth="yes"/>
    </contour>
    <contour>
      <point x="313" y="502" type="move" name="top"/>
    </contour>
    <contour>
      <point x="423" y="0" type="move" name="bottom"/>
    </contour>
  </outline>
</glyph>
<glyph name="q" format="1">
  <advance width="624"/>
  <unicode hex="0071"/>
  <outline>
    <contour>
      <point x="128" y="516"/>
      <point x="46" y="446"/>
      <point x="46" y="249" type="curve" smooth="yes"/>
      <point x="46" y="47"/>
      <point x="115" y="-10"/>
      <point x="245" y="-10" type="curve" smooth="yes"/>
      <point x="336" y="-10"/>
      <point x="401" y="21"/>
      <point x="460" y="90" type="curve"/>
      <point x="437" y="90" type="line"/>
      <point x="437" y="-139" type="line"/>
      <point x="359" y="-169" type="line"/>
      <point x="359" y="-224" type="line"/>
      <point x="589" y="-224" type="line"/>
      <point x="589" y="-169" type="line"/>
      <point x="521" y="-139" type="line"/>
      <point x="521" y="502" type="line"/>
      <point x="478" y="502" type="line"/>
      <point x="442" y="446" type="line"/>
      <point x="461" y="446" type="line"/>
      <point x="378" y="500"/>
      <point x="317" y="516"/>
      <point x="254" y="516" type="curve" smooth="yes"/>
    </contour>
    <contour>
      <point x="326" y="443"/>
      <point x="373" y="425"/>
      <point x="437" y="402" type="curve"/>
      <point x="437" y="128" type="line"/>
      <point x="384" y="86"/>
      <point x="328" y="63"/>
      <point x="262" y="63" type="curve" smooth="yes"/>
      <point x="175" y="63"/>
      <point x="134" y="101"/>
      <point x="134" y="241" type="curve" smooth="yes"/>
      <point x="134" y="374"/>
      <point x="171" y="443"/>
      <point x="274" y="443" type="curve" smooth="yes"/>
    </contour>
    <contour>
      <point x="312" y="502" type="move" name="top"/>
    </contour>
    <contour>
      <point x="203" y="0" type="move" name="bottom"/>
    </contour>
  </outline>
</glyph>
<glyph name="r" format="1">
  <advance width="504"/>
  <unicode hex="0072"/>
  <outline>
    <contour>
      <point x="326" y="518"/>
      <point x="245" y="484"/>
      <point x="171" y="423" type="curve"/>
      <point x="214" y="412" type="line"/>
      <point x="157" y="502" type="line"/>
      <point x="46" y="502" type="line"/>
      <point x="46" y="445" type="line"/>
      <point x="114" y="417" type="line"/>
      <point x="114" y="85" type="line"/>
      <point x="46" y="55" type="line"/>
      <point x="46" y="0" type="line"/>
      <point x="291" y="0" type="line"/>
      <point x="291" y="55" type="line"/>
      <point x="198" y="85" type="line"/>
      <point x="198" y="376" type="line"/>
      <point x="239" y="403"/>
      <point x="296" y="428"/>
      <point x="351" y="442" type="curve"/>
      <point x="346" y="444" type="line"/>
      <point x="387" y="351" type="line"/>
      <point x="444" y="351"/>
      <point x="479" y="375"/>
      <point x="479" y="432" type="curve" smooth="yes"/>
      <point x="479" y="489"/>
      <point x="455" y="518"/>
      <point x="395" y="518" type="curve" smooth="yes"/>
    </contour>
    <contour>
      <point x="268" y="502" type="move" name="top"/>
    </contour>
    <contour>
      <point x="156" y="0" type="move" name="bottom"/>
    </contour>
  </outline>
</glyph>
<glyph name="s" format="1">
  <advance width="526"/>
  <unicode hex="0073"/>
  <outline>
    <contour>
      <point x="87" y="516"/>
      <point x="40" y="471"/>
      <point x="40" y="366" type="curve" smooth="yes"/>
      <point x="40" y="268"/>
      <point x="76" y="241"/>
      <point x="212" y="216" type="curve" smooth="yes"/>
      <point x="353" y="190"/>
      <point x="398" y="198"/>
      <point x="398" y="130" type="curve" smooth="yes"/>
      <point x="398" y="73"/>
      <point x="374" y="56"/>
      <point x="251" y="56" type="curve" smooth="yes"/>
      <point x="197" y="56"/>
      <point x="165" y="59"/>
      <point x="108" y="70" type="curve"/>
      <point x="146" y="31" type="line"/>
      <point x="106" y="150" type="line"/>
      <point x="46" y="150" type="line"/>
      <point x="46" y="6" type="line"/>
      <point x="129" y="-8"/>
      <point x="182" y="-14"/>
      <point x="248" y="-14" type="curve" smooth="yes"/>
      <point x="439" y="-14"/>
      <point x="486" y="34"/>
      <point x="486" y="142" type="curve" smooth="yes"/>
      <point x="486" y="228"/>
      <point x="463" y="259"/>
      <point x="325" y="284" type="curve" smooth="yes"/>
      <point x="166" y="313"/>
      <point x="128" y="311"/>
      <point x="128" y="374" type="curve" smooth="yes"/>
      <point x="128" y="427"/>
      <point x="154" y="446"/>
      <point x="258" y="446" type="curve" smooth="yes"/>
      <point x="316" y="446"/>
      <point x="353" y="441"/>
      <point x="406" y="431" type="curve"/>
      <point x="369" y="476" type="line"/>
      <point x="410" y="357" type="line"/>
      <point x="468" y="357" type="line"/>
      <point x="468" y="496" type="line"/>
      <point x="385" y="510"/>
      <point x="326" y="516"/>
      <point x="262" y="516" type="curve" smooth="yes"/>
    </contour>
    <contour>
      <point x="263" y="502" type="move" name="top"/>
    </contour>
    <contour>
      <point x="263" y="0" type="move" name="bottom"/>
    </contour>
  </outline>
</glyph>
<glyph name="t" format="1">
  <advance width="409"/>
  <unicode hex="0074"/>
  <outline>
    <contour>
      <point x="309" y="-9"/>
      <point x="341" y="-6"/>
      <point x="369" y="1" type="curve"/>
      <point x="369" y="71" type="line"/>
      <point x="345" y="66"/>
      <point x="320" y="63"/>
      <point x="285" y="64" type="curve" smooth="yes"/>
      <point x="211" y="66"/>
      <point x="188" y="85"/>
      <point x="188" y="163" type="curve" smooth="yes"/>
      <point x="188" y="432" type="line"/>
      <point x="359" y="431" type="line"/>
      <point x="359" y="501" type="line"/>
      <point x="188" y="502" type="line"/>
      <point x="188" y="647" type="line"/>
      <point x="134" y="647" type="line"/>
      <point x="104" y="502" type="line"/>
      <point x="26" y="488" type="line"/>
      <point x="26" y="432" type="line"/>
      <point x="104" y="432" type="line"/>
      <point x="104" y="163" type="line" smooth="yes"/>
      <point x="104" y="42"/>
      <point x="153" y="-5"/>
      <point x="268" y="-8" type="curve" smooth="yes"/>
    </contour>
    <contour>
      <point x="213" y="10" type="move" name="bottom"/>
    </contour>
    <contour>
      <point x="193" y="617" type="move" name="top"/>
    </contour>
    <contour>
      <point x="270" y="502" type="move" name="topright"/>
    </contour>
    <contour>
      <point x="181" y="251" type="move" name="center"/>
    </contour>
  </outline>
</glyph>
<glyph name="u" format="1">
  <advance width="648"/>
  <unicode hex="0075"/>
  <outline>
    <contour>
      <point x="393" y="502" type="line"/>
      <point x="393" y="447" type="line"/>
      <point x="461" y="419" type="line"/>
      <point x="461" y="128" type="line"/>
      <point x="411" y="86"/>
      <point x="358" y="63"/>
      <point x="295" y="63" type="curve" smooth="yes"/>
      <point x="224" y="63"/>
      <point x="183" y="94"/>
      <point x="183" y="175" type="curve" smooth="yes"/>
      <point x="183" y="502" type="line"/>
      <point x="31" y="502" type="line"/>
      <point x="31" y="447" type="line"/>
      <point x="99" y="417" type="line"/>
      <point x="99" y="186" type="line" smooth="yes"/>
      <point x="99" y="44"/>
      <point x="141" y="-10"/>
      <point x="269" y="-10" type="curve" smooth="yes"/>
      <point x="360" y="-10"/>
      <point x="425" y="21"/>
      <point x="484" y="90" type="curve"/>
      <point x="461" y="90" type="line"/>
      <point x="494" y="0" type="line"/>
      <point x="613" y="0" type="line"/>
      <point x="613" y="55" type="line"/>
      <point x="545" y="85" type="line"/>
      <point x="545" y="502" type="line"/>
    </contour>
    <contour>
      <point x="525" y="10" type="move" name="ogonek"/>
    </contour>
    <contour>
      <point x="322" y="502" type="move" name="top"/>
    </contour>
    <contour>
      <point x="628" y="502" type="move" name="topright"/>
    </contour>
    <contour>
      <point x="324" y="0" type="move" name="bottom"/>
    </contour>
  </outline>
</glyph>
<glyph name="v" format="1">
  <advance width="589"/>
  <unicode hex="0076"/>
  <outline>
    <contour>
      <point x="343" y="0" type="line"/>
      <point x="521" y="418" type="line"/>
      <point x="579" y="446" type="line"/>
      <point x="579" y="502" type="line"/>
      <point x="378" y="502" type="line"/>
      <point x="378" y="446" type="line"/>
      <point x="446" y="419" type="line"/>
      <point x="301" y="69" type="line"/>
      <point x="305" y="69" type="line"/>
      <point x="160" y="419" type="line"/>
      <point x="228" y="446" type="line"/>
      <point x="228" y="502" type="line"/>
      <point x="10" y="502" type="line"/>
      <point x="10" y="446" type="line"/>
      <point x="68" y="418" type="line"/>
      <point x="247" y="0" type="line"/>
    </contour>
    <contour>
      <point x="295" y="502" type="move" name="top"/>
    </contour>
    <contour>
      <point x="295" y="0" type="move" name="bottom"/>
    </contour>
  </outline>
</glyph>
<glyph name="w" format="1">
  <advance width="842"/>
  <unicode hex="0077"/>
  <outline>
    <contour>
      <point x="419" y="359" type="line"/>
      <point x="533" y="0" type="line"/>
      <point x="635" y="0" type="line"/>
      <point x="774" y="417" type="line"/>
      <point x="832" y="445" type="line"/>
      <point x="832" y="502" type="line"/>
      <point x="633" y="502" type="line"/>
      <point x="633" y="445" type="line"/>
      <point x="701" y="417" type="line"/>
      <point x="590" y="82" type="line"/>
      <point x="594" y="82" type="line"/>
      <point x="471" y="468" type="line"/>
      <point x="384" y="468" type="line"/>
      <point x="261" y="80" type="line"/>
      <point x="265" y="80" type="line"/>
      <point x="155" y="417" type="line"/>
      <point x="223" y="445" type="line"/>
      <point x="223" y="502" type="line"/>
      <point x="10" y="502" type="line"/>
      <point x="10" y="445" type="line"/>
      <point x="68" y="417" type="line"/>
      <point x="207" y="0" type="line"/>
      <point x="309" y="0" type="line"/>
      <point x="423" y="359" type="line"/>
    </contour>
    <contour>
      <point x="421" y="502" type="move" name="top"/>
    </contour>
    <contour>
      <point x="421" y="0" type="move" name="bottom"/>
    </contour>
  </outline>
</glyph>
<glyph name="x" format="1">
  <advance width="632"/>
  <unicode hex="0078"/>
  <outline>
    <contour>
      <point x="25" y="502" type="line"/>
      <point x="25" y="445" type="line"/>
      <point x="83" y="417" type="line"/>
      <point x="439" y="85" type="line"/>
      <point x="381" y="55" type="line"/>
      <point x="381" y="0" type="line"/>
      <point x="607" y="0" type="line"/>
      <point x="607" y="55" type="line"/>
      <point x="547" y="85" type="line"/>
      <point x="192" y="417" type="line"/>
      <point x="250" y="445" type="line"/>
      <point x="250" y="502" type="line"/>
    </contour>
    <contour>
      <point x="85" y="85" type="line"/>
      <point x="25" y="55" type="line"/>
      <point x="25" y="0" type="line"/>
      <point x="235" y="0" type="line"/>
      <point x="235" y="55" type="line"/>
      <point x="177" y="85" type="line"/>
      <point x="312" y="216" type="line"/>
      <point x="271" y="255" type="line"/>
    </contour>
    <contour>
      <point x="399" y="502" type="line"/>
      <point x="399" y="445" type="line"/>
      <point x="457" y="417" type="line"/>
      <point x="319" y="284" type="line"/>
      <point x="360" y="246" type="line"/>
      <point x="549" y="417" type="line"/>
      <point x="607" y="445" type="line"/>
      <point x="607" y="502" type="line"/>
    </contour>
    <contour>
      <point x="316" y="502" type="move" name="top"/>
    </contour>
    <contour>
      <point x="316" y="0" type="move" name="bottom"/>
    </contour>
  </outline>
</glyph>
<glyph name="y" format="1">
  <advance width="637"/>
  <unicode hex="0079"/>
  <outline>
    <contour>
      <point x="389" y="446" type="line"/>
      <point x="470" y="419" type="line"/>
      <point x="328" y="96" type="line"/>
      <point x="184" y="419" type="line"/>
      <point x="265" y="446" type="line"/>
      <point x="265" y="502" type="line"/>
      <point x="10" y="502" type="line"/>
      <point x="10" y="446" type="line"/>
      <point x="92" y="418" type="line"/>
      <point x="284" y="-1" type="line"/>
      <point x="220" y="-139"/>
      <point x="193" y="-153"/>
      <point x="124" y="-153" type="curve" smooth="yes"/>
      <point x="101" y="-153"/>
      <point x="76" y="-152"/>
      <point x="51" y="-150" type="curve"/>
      <point x="51" y="-224" type="line"/>
      <point x="71" y="-224" type="line" smooth="yes"/>
      <point x="219" y="-224"/>
      <point x="275" y="-185"/>
      <point x="324" y="-75" type="curve" smooth="yes"/>
      <point x="545" y="418" type="line"/>
      <point x="627" y="446" type="line"/>
      <point x="627" y="502" type="line"/>
      <point x="389" y="502" type="line"/>
    </contour>
    <contour>
      <point x="324" y="-75" type="move" name="ogonek"/>
    </contour>
    <contour>
      <point x="493" y="0" type="move" name="bottom"/>
    </contour>
    <contour>
      <point x="329" y="502" type="move" name="top"/>
    </contour>
  </outline>
</glyph>
<glyph name="z" format="1">
  <advance width="583"/>
  <unicode hex="007A"/>
  <outline>
    <contour>
      <point x="53" y="502" type="line"/>
      <point x="53" y="347" type="line"/>
      <point x="105" y="347" type="line"/>
      <point x="126" y="432" type="line"/>
      <point x="431" y="432" type="line"/>
      <point x="431" y="442" type="line"/>
      <point x="50" y="77" type="line"/>
      <point x="50" y="0" type="line"/>
      <point x="533" y="0" type="line"/>
      <point x="533" y="155" type="line"/>
      <point x="481" y="155" type="line"/>
      <point x="462" y="70" type="line"/>
      <point x="145" y="70" type="line"/>
      <point x="145" y="60" type="line"/>
      <point x="526" y="425" type="line"/>
      <point x="526" y="502" type="line"/>
    </contour>
    <contour>
      <point x="290" y="502" type="move" name="top"/>
    </contour>
    <contour>
      <point x="292" y="0" type="move" name="bottom"/>
    </contour>
  </outline>
</glyph>
<glyph name="braceleft" format="1">
  <advance width="465"/>
  <unicode hex="007B"/>
  <outline>
    <contour>
      <point x="293" y="716" type="line" smooth="yes"/>
      <point x="219" y="716"/>
      <point x="179" y="679"/>
      <point x="179" y="605" type="curve" smooth="yes"/>
      <point x="179" y="417" type="line" smooth="yes"/>
      <point x="179" y="316"/>
      <point x="159" y="293"/>
      <point x="15" y="285" type="curve"/>
      <point x="15" y="207" type="line"/>
      <point x="159" y="199"/>
      <point x="179" y="175"/>
      <point x="179" y="75" type="curve" smooth="yes"/>
      <point x="179" y="-113" type="line" smooth="yes"/>
      <point x="179" y="-187"/>
      <point x="219" y="-224"/>
      <point x="293" y="-224" type="curve" smooth="yes"/>
      <point x="425" y="-224" type="line"/>
      <point x="425" y="-152" type="line"/>
      <point x="305" y="-152" type="line" smooth="yes"/>
      <point x="274" y="-152"/>
      <point x="265" y="-143"/>
      <point x="265" y="-106" type="curve" smooth="yes"/>
      <point x="265" y="94" type="line" smooth="yes"/>
      <point x="265" y="187"/>
      <point x="227" y="241"/>
      <point x="134" y="246" type="curve"/>
      <point x="223" y="251"/>
      <point x="265" y="301"/>
      <point x="265" y="398" type="curve" smooth="yes"/>
      <point x="265" y="598" type="line" smooth="yes"/>
      <point x="265" y="635"/>
      <point x="274" y="644"/>
      <point x="305" y="644" type="curve" smooth="yes"/>
      <point x="425" y="644" type="line"/>
      <point x="425" y="716" type="line"/>
    </contour>
  </outline>
</glyph>
<glyph name="bar" format="1">
  <advance width="500"/>
  <unicode hex="007C"/>
  <outline>
    <contour>
      <point x="208" y="798" type="line"/>
      <point x="208" y="-118" type="line"/>
      <point x="292" y="-118" type="line"/>
      <point x="292" y="798" type="line"/>
    </contour>
  </outline>
</glyph>
<glyph name="asciitilde" format="1">
  <advance width="582"/>
  <unicode hex="007E"/>
  <outline>
    <contour>
      <point x="484" y="194"/>
      <point x="518" y="241"/>
      <point x="518" y="348" type="curve"/>
      <point x="450" y="348" type="line"/>
      <point x="450" y="290"/>
      <point x="437" y="264"/>
      <point x="402" y="264" type="curve" smooth="yes"/>
      <point x="372" y="264"/>
      <point x="355" y="276"/>
      <point x="303" y="309" type="curve" smooth="yes"/>
      <point x="251" y="342"/>
      <point x="217" y="354"/>
      <point x="182" y="354" type="curve" smooth="yes"/>
      <point x="98" y="354"/>
      <point x="64" y="307"/>
      <point x="64" y="200" type="curve"/>
      <point x="132" y="200" type="line"/>
      <point x="132" y="258"/>
      <point x="145" y="284"/>
      <point x="180" y="284" type="curve" smooth="yes"/>
      <point x="210" y="284"/>
      <point x="227" y="272"/>
      <point x="279" y="239" type="curve" smooth="yes"/>
      <point x="331" y="206"/>
      <point x="365" y="194"/>
      <point x="400" y="194" type="curve" smooth="yes"/>
    </contour>
  </outline>
</glyph>
<glyph name="exclamdown" format="1">
  <advance width="280"/>
  <unicode hex="00A1"/>
  <outline>
    <contour>
      <point x="183" y="-184"/>
      <point x="202" y="-164"/>
      <point x="202" y="-119" type="curve" smooth="yes"/>
      <point x="202" y="-64"/>
      <point x="182" y="113"/>
      <point x="160" y="308" type="curve"/>
      <point x="120" y="308" type="line"/>
      <point x="98" y="113"/>
      <point x="78" y="-64"/>
      <point x="78" y="-119" type="curve" smooth="yes"/>
      <point x="78" y="-164"/>
      <point x="97" y="-184"/>
      <point x="140" y="-184" type="curve" smooth="yes"/>
    </contour>
    <contour>
      <point x="182" y="380"/>
      <point x="208" y="404"/>
      <point x="208" y="448" type="curve" smooth="yes"/>
      <point x="208" y="492"/>
      <point x="182" y="516"/>
      <point x="140" y="516" type="curve" smooth="yes"/>
      <point x="98" y="516"/>
      <point x="72" y="492"/>
      <point x="72" y="448" type="curve" smooth="yes"/>
      <point x="72" y="404"/>
      <point x="98" y="380"/>
      <point x="140" y="380" type="curve" smooth="yes"/>
    </contour>
  </outline>
</glyph>
<glyph name="cent" format="1">
  <advance width="525"/>
  <unicode hex="00A2"/>
  <outline>
    <contour>
      <point x="326" y="652" type="line"/>
      <point x="219" y="-102" type="line"/>
      <point x="283" y="-102" type="line"/>
      <point x="390" y="652" type="line"/>
    </contour>
    <contour>
      <point x="149" y="528"/>
      <point x="50" y="457"/>
      <point x="50" y="273" type="curve" smooth="yes"/>
      <point x="50" y="78"/>
      <point x="157" y="20"/>
      <point x="315" y="20" type="curve" smooth="yes"/>
      <point x="373" y="20"/>
      <point x="432" y="29"/>
      <point x="475" y="46" type="curve"/>
      <point x="475" y="116" type="line"/>
      <point x="423" y="98"/>
      <point x="378" y="92"/>
      <point x="319" y="92" type="curve" smooth="yes"/>
      <point x="192" y="92"/>
      <point x="138" y="125"/>
      <point x="138" y="276" type="curve" smooth="yes"/>
      <point x="138" y="414"/>
      <point x="177" y="458"/>
      <point x="350" y="458" type="curve"/>
      <point x="392" y="363" type="line"/>
      <point x="457" y="363"/>
      <point x="485" y="393"/>
      <point x="485" y="444" type="curve" smooth="yes"/>
      <point x="485" y="500"/>
      <point x="449" y="528"/>
      <point x="333" y="528" type="curve" smooth="yes"/>
    </contour>
  </outline>
</glyph>
<glyph name="sterling" format="1">
  <advance width="584"/>
  <unicode hex="00A3"/>
  <outline>
    <contour>
      <point x="167" y="563"/>
      <point x="77" y="505"/>
      <point x="77" y="392" type="curve" smooth="yes"/>
      <point x="77" y="282"/>
      <point x="162" y="260"/>
      <point x="162" y="114" type="curve" smooth="yes"/>
      <point x="162" y="26"/>
      <point x="131" y="4"/>
      <point x="25" y="4" type="curve"/>
      <point x="25" y="-68" type="line"/>
      <point x="157" y="-68"/>
      <point x="175" y="-34"/>
      <point x="229" y="-34" type="curve" smooth="yes"/>
      <point x="286" y="-34"/>
      <point x="300" y="-72"/>
      <point x="398" y="-72" type="curve" smooth="yes"/>
      <point x="512" y="-72"/>
      <point x="554" y="-22"/>
      <point x="554" y="113" type="curve"/>
      <point x="470" y="113" type="line"/>
      <point x="470" y="31"/>
      <point x="446" y="0"/>
      <point x="382" y="0" type="curve" smooth="yes"/>
      <point x="314" y="0"/>
      <point x="291" y="34"/>
      <point x="248" y="34" type="curve" smooth="yes"/>
      <point x="236" y="34"/>
      <point x="227" y="32"/>
      <point x="214" y="28" type="curve"/>
      <point x="233" y="54"/>
      <point x="243" y="84"/>
      <point x="243" y="129" type="curve" smooth="yes"/>
      <point x="243" y="253"/>
      <point x="165" y="289"/>
      <point x="165" y="382" type="curve" smooth="yes"/>
      <point x="165" y="451"/>
      <point x="208" y="491"/>
      <point x="313" y="491" type="curve" smooth="yes"/>
      <point x="344" y="491"/>
      <point x="376" y="488"/>
      <point x="401" y="475" type="curve"/>
      <point x="377" y="494" type="line"/>
      <point x="429" y="378" type="line"/>
      <point x="498" y="378"/>
      <point x="524" y="412"/>
      <point x="524" y="455" type="curve" smooth="yes"/>
      <point x="524" y="519"/>
      <point x="468" y="563"/>
      <point x="323" y="563" type="curve" smooth="yes"/>
    </contour>
    <contour>
      <point x="40" y="255" type="line"/>
      <point x="40" y="185" type="line"/>
      <point x="386" y="185" type="line"/>
      <point x="386" y="255" type="line"/>
    </contour>
  </outline>
</glyph>
<glyph name="currency" format="1">
  <advance width="627"/>
  <unicode hex="00A4"/>
  <outline>
    <contour>
      <point x="433" y="57"/>
      <point x="531" y="155"/>
      <point x="531" y="273" type="curve" smooth="yes"/>
      <point x="531" y="391"/>
      <point x="433" y="489"/>
      <point x="314" y="489" type="curve" smooth="yes"/>
      <point x="195" y="489"/>
      <point x="97" y="391"/>
      <point x="97" y="273" type="curve" smooth="yes"/>
      <point x="97" y="155"/>
      <point x="195" y="57"/>
      <point x="314" y="57" type="curve" smooth="yes"/>
    </contour>
    <contour>
      <point x="193" y="449" type="line"/>
      <point x="96" y="546" type="line"/>
      <point x="41" y="489" type="line"/>
      <point x="137" y="393" type="line"/>
    </contour>
    <contour>
      <point x="227" y="125"/>
      <point x="171" y="185"/>
      <point x="171" y="273" type="curve" smooth="yes"/>
      <point x="171" y="361"/>
      <point x="227" y="421"/>
      <point x="314" y="421" type="curve" smooth="yes"/>
      <point x="401" y="421"/>
      <point x="457" y="361"/>
      <point x="457" y="273" type="curve" smooth="yes"/>
      <point x="457" y="185"/>
      <point x="401" y="125"/>
      <point x="314" y="125" type="curve" smooth="yes"/>
    </contour>
    <contour>
      <point x="490" y="393" type="line"/>
      <point x="587" y="490" type="line"/>
      <point x="530" y="545" type="line"/>
      <point x="434" y="449" type="line"/>
    </contour>
    <contour>
      <point x="137" y="152" type="line"/>
      <point x="40" y="55" type="line"/>
      <point x="97" y="0" type="line"/>
      <point x="193" y="96" type="line"/>
    </contour>
    <contour>
      <point x="434" y="96" type="line"/>
      <point x="531" y="-1" type="line"/>
      <point x="586" y="56" type="line"/>
      <point x="490" y="152" type="line"/>
    </contour>
  </outline>
</glyph>
<glyph name="yen" format="1">
  <advance width="664"/>
  <unicode hex="00A5"/>
  <outline>
    <contour>
      <point x="257" y="295" type="line"/>
      <point x="257" y="353" type="line"/>
      <point x="70" y="353" type="line"/>
      <point x="70" y="295" type="line"/>
    </contour>
    <contour>
      <point x="594" y="295" type="line"/>
      <point x="594" y="353" type="line"/>
      <point x="408" y="353" type="line"/>
      <point x="408" y="295" type="line"/>
    </contour>
    <contour>
      <point x="325" y="262" type="line"/>
      <point x="357" y="262" type="line"/>
      <point x="214" y="469" type="line"/>
      <point x="273" y="492" type="line"/>
      <point x="273" y="548" type="line"/>
      <point x="55" y="548" type="line"/>
      <point x="55" y="492" type="line"/>
      <point x="120" y="461" type="line"/>
      <point x="290" y="215" type="line"/>
      <point x="290" y="85" type="line"/>
      <point x="212" y="55" type="line"/>
      <point x="212" y="0" type="line"/>
      <point x="452" y="0" type="line"/>
      <point x="452" y="55" type="line"/>
      <point x="374" y="85" type="line"/>
      <point x="374" y="215" type="line"/>
      <point x="546" y="462" type="line"/>
      <point x="609" y="492" type="line"/>
      <point x="609" y="548" type="line"/>
      <point x="407" y="548" type="line"/>
      <point x="407" y="492" type="line"/>
      <point x="467" y="469" type="line"/>
    </contour>
    <contour>
      <point x="300" y="147" type="line"/>
      <point x="300" y="205" type="line"/>
      <point x="70" y="205" type="line"/>
      <point x="70" y="147" type="line"/>
    </contour>
    <contour>
      <point x="594" y="147" type="line"/>
      <point x="594" y="205" type="line"/>
      <point x="364" y="205" type="line"/>
      <point x="364" y="147" type="line"/>
    </contour>
  </outline>
</glyph>
<glyph name="brokenbar" format="1">
  <advance width="500"/>
  <unicode hex="00A6"/>
  <outline>
    <contour>
      <point x="208" y="798" type="line"/>
      <point x="208" y="405" type="line"/>
      <point x="292" y="405" type="line"/>
      <point x="292" y="798" type="line"/>
    </contour>
    <contour>
      <point x="208" y="275" type="line"/>
      <point x="208" y="-118" type="line"/>
      <point x="292" y="-118" type="line"/>
      <point x="292" y="275" type="line"/>
    </contour>
  </outline>
</glyph>
<glyph name="section" format="1">
  <advance width="586"/>
  <unicode hex="00A7"/>
  <outline>
    <contour>
      <point x="111" y="692"/>
      <point x="50" y="633"/>
      <point x="50" y="509" type="curve" smooth="yes"/>
      <point x="50" y="430"/>
      <point x="75" y="380"/>
      <point x="165" y="351" type="curve"/>
      <point x="267" y="325"/>
      <point x="300" y="322"/>
      <point x="373" y="304" type="curve" smooth="yes"/>
      <point x="430" y="290"/>
      <point x="455" y="273"/>
      <point x="455" y="218" type="curve" smooth="yes"/>
      <point x="455" y="175"/>
      <point x="440" y="133"/>
      <point x="405" y="103" type="curve"/>
      <point x="460" y="78" type="line"/>
      <point x="499" y="111"/>
      <point x="535" y="159"/>
      <point x="535" y="235" type="curve" smooth="yes"/>
      <point x="535" y="328"/>
      <point x="482" y="363"/>
      <point x="406" y="382" type="curve" smooth="yes"/>
      <point x="377" y="389"/>
      <point x="259" y="415"/>
      <point x="222" y="424" type="curve" smooth="yes"/>
      <point x="160" y="440"/>
      <point x="136" y="456"/>
      <point x="136" y="515" type="curve" smooth="yes"/>
      <point x="136" y="585"/>
      <point x="170" y="618"/>
      <point x="276" y="618" type="curve" smooth="yes"/>
      <point x="332" y="618"/>
      <point x="371" y="609"/>
      <point x="395" y="597" type="curve"/>
      <point x="386" y="609" type="line"/>
      <point x="431" y="497" type="line"/>
      <point x="498" y="497"/>
      <point x="527" y="527"/>
      <point x="527" y="572" type="curve" smooth="yes"/>
      <point x="527" y="626"/>
      <point x="484" y="692"/>
      <point x="292" y="692" type="curve" smooth="yes"/>
    </contour>
    <contour>
      <point x="476" y="-224"/>
      <point x="537" y="-165"/>
      <point x="537" y="-41" type="curve" smooth="yes"/>
      <point x="537" y="38"/>
      <point x="512" y="88"/>
      <point x="422" y="117" type="curve"/>
      <point x="320" y="143"/>
      <point x="287" y="146"/>
      <point x="214" y="164" type="curve" smooth="yes"/>
      <point x="157" y="178"/>
      <point x="132" y="195"/>
      <point x="132" y="250" type="curve" smooth="yes"/>
      <point x="132" y="293"/>
      <point x="147" y="335"/>
      <point x="182" y="365" type="curve"/>
      <point x="127" y="390" type="line"/>
      <point x="88" y="357"/>
      <point x="52" y="309"/>
      <point x="52" y="233" type="curve" smooth="yes"/>
      <point x="52" y="140"/>
      <point x="105" y="105"/>
      <point x="181" y="86" type="curve" smooth="yes"/>
      <point x="210" y="79"/>
      <point x="328" y="53"/>
      <point x="365" y="44" type="curve" smooth="yes"/>
      <point x="427" y="28"/>
      <point x="451" y="12"/>
      <point x="451" y="-47" type="curve" smooth="yes"/>
      <point x="451" y="-117"/>
      <point x="417" y="-150"/>
      <point x="311" y="-150" type="curve" smooth="yes"/>
      <point x="255" y="-150"/>
      <point x="216" y="-141"/>
      <point x="192" y="-129" type="curve"/>
      <point x="201" y="-141" type="line"/>
      <point x="156" y="-29" type="line"/>
      <point x="89" y="-29"/>
      <point x="60" y="-59"/>
      <point x="60" y="-104" type="curve" smooth="yes"/>
      <point x="60" y="-158"/>
      <point x="103" y="-224"/>
      <point x="295" y="-224" type="curve" smooth="yes"/>
    </contour>
  </outline>
</glyph>
<glyph name="copyright" format="1">
  <advance width="874"/>
  <unicode hex="00A9"/>
  <outline>
    <contour>
      <point x="496" y="149"/>
      <point x="547" y="157"/>
      <point x="572" y="169" type="curve"/>
      <point x="572" y="229" type="line"/>
      <point x="533" y="216"/>
      <point x="503" y="212"/>
      <point x="456" y="212" type="curve" smooth="yes"/>
      <point x="379" y="212"/>
      <point x="331" y="232"/>
      <point x="331" y="339" type="curve" smooth="yes"/>
      <point x="331" y="436"/>
      <point x="358" y="468"/>
      <point x="450" y="468" type="curve" smooth="yes"/>
      <point x="481" y="468"/>
      <point x="507" y="465"/>
      <point x="530" y="458" type="curve"/>
      <point x="496" y="500" type="line"/>
      <point x="512" y="391" type="line"/>
      <point x="572" y="391" type="line"/>
      <point x="572" y="515" type="line"/>
      <point x="532" y="527"/>
      <point x="492" y="531"/>
      <point x="460" y="531" type="curve" smooth="yes"/>
      <point x="322" y="531"/>
      <point x="261" y="468"/>
      <point x="261" y="339" type="curve" smooth="yes"/>
      <point x="261" y="190"/>
      <point x="340" y="149"/>
      <point x="451" y="149" type="curve" smooth="yes"/>
    </contour>
    <contour>
      <point x="192" y="730"/>
      <point x="42" y="583"/>
      <point x="42" y="340" type="curve" smooth="yes"/>
      <point x="42" y="97"/>
      <point x="192" y="-50"/>
      <point x="437" y="-50" type="curve" smooth="yes"/>
      <point x="682" y="-50"/>
      <point x="832" y="97"/>
      <point x="832" y="340" type="curve" smooth="yes"/>
      <point x="832" y="583"/>
      <point x="682" y="730"/>
      <point x="437" y="730" type="curve" smooth="yes"/>
    </contour>
    <contour>
      <point x="651" y="680"/>
      <point x="778" y="554"/>
      <point x="778" y="340" type="curve" smooth="yes"/>
      <point x="778" y="126"/>
      <point x="651" y="0"/>
      <point x="437" y="0" type="curve" smooth="yes"/>
      <point x="223" y="0"/>
      <point x="96" y="126"/>
      <point x="96" y="340" type="curve" smooth="yes"/>
      <point x="96" y="554"/>
      <point x="223" y="680"/>
      <point x="437" y="680" type="curve" smooth="yes"/>
    </contour>
    <contour>
      <point x="299" y="0" type="move" name="bottom"/>
    </contour>
  </outline>
</glyph>
<glyph name="ordfeminine" format="1">
  <advance width="540"/>
  <unicode hex="00AA"/>
  <outline>
    <contour>
      <point x="186" y="692"/>
      <point x="123" y="682"/>
      <point x="65" y="669" type="curve"/>
      <point x="65" y="598" type="line"/>
      <point x="126" y="613"/>
      <point x="185" y="621"/>
      <point x="249" y="621" type="curve" smooth="yes"/>
      <point x="345" y="621"/>
      <point x="368" y="592"/>
      <point x="368" y="509" type="curve" smooth="yes"/>
      <point x="368" y="473" type="line"/>
      <point x="345" y="486"/>
      <point x="303" y="500"/>
      <point x="245" y="500" type="curve" smooth="yes"/>
      <point x="102" y="500"/>
      <point x="40" y="452"/>
      <point x="40" y="341" type="curve" smooth="yes"/>
      <point x="40" y="235"/>
      <point x="95" y="192"/>
      <point x="205" y="192" type="curve" smooth="yes"/>
      <point x="280" y="192"/>
      <point x="338" y="221"/>
      <point x="390" y="286" type="curve"/>
      <point x="368" y="286" type="line"/>
      <point x="398" y="201" type="line"/>
      <point x="510" y="201" type="line"/>
      <point x="510" y="255" type="line"/>
      <point x="450" y="284" type="line"/>
      <point x="450" y="526" type="line" smooth="yes"/>
      <point x="450" y="635"/>
      <point x="428" y="692"/>
      <point x="253" y="692" type="curve" smooth="yes"/>
    </contour>
    <contour>
      <point x="288" y="432"/>
      <point x="332" y="429"/>
      <point x="368" y="418" type="curve"/>
      <point x="368" y="323" type="line"/>
      <point x="328" y="286"/>
      <point x="277" y="262"/>
      <point x="222" y="262" type="curve" smooth="yes"/>
      <point x="148" y="262"/>
      <point x="126" y="288"/>
      <point x="126" y="347" type="curve" smooth="yes"/>
      <point x="126" y="403"/>
      <point x="153" y="432"/>
      <point x="254" y="432" type="curve" smooth="yes"/>
    </contour>
  </outline>
</glyph>
<glyph name="logicalnot" format="1">
  <advance width="582"/>
  <unicode hex="00AC"/>
  <outline>
    <contour>
      <point x="64" y="309" type="line"/>
      <point x="64" y="239" type="line"/>
      <point x="444" y="239" type="line"/>
      <point x="444" y="99" type="line"/>
      <point x="518" y="99" type="line"/>
      <point x="518" y="309" type="line"/>
    </contour>
  </outline>
</glyph>
<glyph name="registered" format="1">
  <advance width="874"/>
  <unicode hex="00AE"/>
  <outline>
    <contour>
      <point x="192" y="730"/>
      <point x="42" y="583"/>
      <point x="42" y="340" type="curve" smooth="yes"/>
      <point x="42" y="97"/>
      <point x="192" y="-50"/>
      <point x="437" y="-50" type="curve" smooth="yes"/>
      <point x="682" y="-50"/>
      <point x="832" y="97"/>
      <point x="832" y="340" type="curve" smooth="yes"/>
      <point x="832" y="583"/>
      <point x="682" y="730"/>
      <point x="437" y="730" type="curve" smooth="yes"/>
    </contour>
    <contour>
      <point x="443" y="303" type="line"/>
      <point x="549" y="153" type="line"/>
      <point x="631" y="153" type="line"/>
      <point x="631" y="195" type="line"/>
      <point x="588" y="213" type="line"/>
      <point x="521" y="303" type="line"/>
    </contour>
    <contour>
      <point x="251" y="527" type="line"/>
      <point x="251" y="485" type="line"/>
      <point x="295" y="467" type="line"/>
      <point x="295" y="213" type="line"/>
      <point x="251" y="195" type="line"/>
      <point x="251" y="153" type="line"/>
      <point x="409" y="153" type="line"/>
      <point x="409" y="195" type="line"/>
      <point x="361" y="213" type="line"/>
      <point x="361" y="294" type="line"/>
      <point x="510" y="294" type="line" smooth="yes"/>
      <point x="582" y="294"/>
      <point x="611" y="338"/>
      <point x="611" y="412" type="curve" smooth="yes"/>
      <point x="611" y="494"/>
      <point x="576" y="527"/>
      <point x="485" y="527" type="curve" smooth="yes"/>
    </contour>
    <contour>
      <point x="651" y="680"/>
      <point x="778" y="554"/>
      <point x="778" y="340" type="curve" smooth="yes"/>
      <point x="778" y="126"/>
      <point x="651" y="0"/>
      <point x="437" y="0" type="curve" smooth="yes"/>
      <point x="223" y="0"/>
      <point x="96" y="126"/>
      <point x="96" y="340" type="curve" smooth="yes"/>
      <point x="96" y="554"/>
      <point x="223" y="680"/>
      <point x="437" y="680" type="curve" smooth="yes"/>
    </contour>
    <contour>
      <point x="528" y="472"/>
      <point x="543" y="453"/>
      <point x="543" y="408" type="curve" smooth="yes"/>
      <point x="543" y="360"/>
      <point x="526" y="349"/>
      <point x="487" y="349" type="curve" smooth="yes"/>
      <point x="361" y="349" type="line"/>
      <point x="361" y="472" type="line"/>
      <point x="487" y="472" type="line" smooth="yes"/>
    </contour>
  </outline>
</glyph>
<glyph name="degree" format="1">
  <advance width="430"/>
  <unicode hex="00B0"/>
  <outline>
    <contour>
      <point x="110" y="692"/>
      <point x="35" y="616"/>
      <point x="35" y="512" type="curve" smooth="yes"/>
      <point x="35" y="408"/>
      <point x="110" y="332"/>
      <point x="215" y="332" type="curve" smooth="yes"/>
      <point x="320" y="332"/>
      <point x="395" y="408"/>
      <point x="395" y="512" type="curve" smooth="yes"/>
      <point x="395" y="616"/>
      <point x="320" y="692"/>
      <point x="215" y="692" type="curve" smooth="yes"/>
    </contour>
    <contour>
      <point x="274" y="622"/>
      <point x="319" y="578"/>
      <point x="319" y="512" type="curve" smooth="yes"/>
      <point x="319" y="446"/>
      <point x="274" y="402"/>
      <point x="215" y="402" type="curve" smooth="yes"/>
      <point x="157" y="402"/>
      <point x="111" y="446"/>
      <point x="111" y="512" type="curve" smooth="yes"/>
      <point x="111" y="578"/>
      <point x="157" y="622"/>
      <point x="215" y="622" type="curve" smooth="yes"/>
    </contour>
  </outline>
</glyph>
<glyph name="plusminus" format="1">
  <advance width="582"/>
  <unicode hex="00B1"/>
  <outline>
    <contour>
      <point x="64" y="340" type="line"/>
      <point x="64" y="270" type="line"/>
      <point x="518" y="270" type="line"/>
      <point x="518" y="340" type="line"/>
    </contour>
    <contour>
      <point x="324" y="532" type="line"/>
      <point x="258" y="532" type="line"/>
      <point x="258" y="60" type="line"/>
      <point x="324" y="60" type="line"/>
    </contour>
    <contour>
      <point x="64" y="70" type="line"/>
      <point x="64" y="0" type="line"/>
      <point x="518" y="0" type="line"/>
      <point x="518" y="70" type="line"/>
    </contour>
  </outline>
</glyph>
<glyph name="paragraph" format="1">
  <advance width="680"/>
  <unicode hex="00B6"/>
  <outline>
    <contour>
      <point x="230" y="680" type="line" smooth="yes"/>
      <point x="89" y="680"/>
      <point x="30" y="621"/>
      <point x="30" y="475" type="curve" smooth="yes"/>
      <point x="30" y="329"/>
      <point x="89" y="270"/>
      <point x="230" y="270" type="curve" smooth="yes"/>
      <point x="306" y="270" type="line"/>
      <point x="306" y="0" type="line"/>
      <point x="382" y="0" type="line"/>
      <point x="382" y="608" type="line"/>
      <point x="476" y="608" type="line"/>
      <point x="476" y="0" type="line"/>
      <point x="551" y="0" type="line"/>
      <point x="551" y="594" type="line"/>
      <point x="625" y="623" type="line"/>
      <point x="625" y="680" type="line"/>
    </contour>
  </outline>
</glyph>
<glyph name="ordmasculine" format="1">
  <advance width="520"/>
  <unicode hex="00BA"/>
  <outline>
    <contour>
      <point x="135" y="692"/>
      <point x="35" y="625"/>
      <point x="35" y="440" type="curve" smooth="yes"/>
      <point x="35" y="254"/>
      <point x="134" y="188"/>
      <point x="261" y="188" type="curve" smooth="yes"/>
      <point x="386" y="188"/>
      <point x="485" y="254"/>
      <point x="485" y="440" type="curve" smooth="yes"/>
      <point x="485" y="625"/>
      <point x="385" y="692"/>
      <point x="261" y="692" type="curve" smooth="yes"/>
    </contour>
    <contour>
      <point x="356" y="621"/>
      <point x="399" y="582"/>
      <point x="399" y="440" type="curve" smooth="yes"/>
      <point x="399" y="298"/>
      <point x="356" y="258"/>
      <point x="261" y="258" type="curve" smooth="yes"/>
      <point x="164" y="258"/>
      <point x="122" y="298"/>
      <point x="122" y="440" type="curve" smooth="yes"/>
      <point x="122" y="582"/>
      <point x="164" y="621"/>
      <point x="261" y="621" type="curve" smooth="yes"/>
    </contour>
  </outline>
</glyph>
<glyph name="guillemotright" format="1">
  <advance width="407"/>
  <unicode hex="00BB"/>
  <outline>
    <contour>
      <point x="192" y="452" type="line"/>
      <point x="299" y="261" type="line"/>
      <point x="192" y="70" type="line"/>
      <point x="284" y="70" type="line"/>
      <point x="385" y="251" type="line"/>
      <point x="385" y="271" type="line"/>
      <point x="284" y="452" type="line"/>
    </contour>
    <contour>
      <point x="20" y="452" type="line"/>
      <point x="127" y="261" type="line"/>
      <point x="20" y="70" type="line"/>
      <point x="112" y="70" type="line"/>
      <point x="213" y="251" type="line"/>
      <point x="213" y="271" type="line"/>
      <point x="112" y="452" type="line"/>
    </contour>
  </outline>
</glyph>
<glyph name="questiondown" format="1">
  <advance width="496"/>
  <unicode hex="00BF"/>
  <outline>
    <contour>
      <point x="385" y="-184"/>
      <point x="486" y="-135"/>
      <point x="486" y="-28" type="curve" smooth="yes"/>
      <point x="486" y="32"/>
      <point x="455" y="67"/>
      <point x="409" y="67" type="curve" smooth="yes"/>
      <point x="373" y="67"/>
      <point x="350" y="53"/>
      <point x="341" y="29" type="curve"/>
      <point x="387" y="-90" type="line"/>
      <point x="396" y="-75" type="line"/>
      <point x="354" y="-101"/>
      <point x="305" y="-110"/>
      <point x="251" y="-110" type="curve" smooth="yes"/>
      <point x="160" y="-110"/>
      <point x="120" y="-75"/>
      <point x="120" y="-15" type="curve" smooth="yes"/>
      <point x="120" y="50"/>
      <point x="138" y="64"/>
      <point x="185" y="99" type="curve" smooth="yes"/>
      <point x="280" y="170"/>
      <point x="309" y="225"/>
      <point x="314" y="311" type="curve"/>
      <point x="244" y="311" type="line"/>
      <point x="238" y="243"/>
      <point x="219" y="214"/>
      <point x="143" y="161" type="curve" smooth="yes"/>
      <point x="63" y="105"/>
      <point x="30" y="70"/>
      <point x="30" y="-23" type="curve" smooth="yes"/>
      <point x="30" y="-109"/>
      <point x="105" y="-184"/>
      <point x="250" y="-184" type="curve" smooth="yes"/>
    </contour>
    <contour>
      <point x="321" y="380"/>
      <point x="347" y="404"/>
      <point x="347" y="448" type="curve" smooth="yes"/>
      <point x="347" y="492"/>
      <point x="321" y="516"/>
      <point x="279" y="516" type="curve" smooth="yes"/>
      <point x="237" y="516"/>
      <point x="211" y="492"/>
      <point x="211" y="448" type="curve" smooth="yes"/>
      <point x="211" y="404"/>
      <point x="237" y="380"/>
      <point x="279" y="380" type="curve" smooth="yes"/>
    </contour>
  </outline>
</glyph>
<glyph name="AE" format="1">
  <advance width="1027"/>
  <unicode hex="00C6"/>
  <outline>
    <contour>
      <point x="526" y="225" type="line"/>
      <point x="526" y="296" type="line"/>
      <point x="216" y="296" type="line"/>
      <point x="216" y="225" type="line"/>
    </contour>
    <contour>
      <point x="916" y="503" type="line"/>
      <point x="975" y="503" type="line"/>
      <point x="975" y="680" type="line"/>
      <point x="308" y="680" type="line"/>
      <point x="308" y="623" type="line"/>
      <point x="381" y="595" type="line"/>
      <point x="54" y="85" type="line"/>
      <point x="-10" y="55" type="line"/>
      <point x="-10" y="0" type="line"/>
      <point x="191" y="0" type="line"/>
      <point x="191" y="55" type="line"/>
      <point x="137" y="82" type="line"/>
      <point x="479" y="608" type="line"/>
      <point x="489" y="608" type="line"/>
      <point x="489" y="85" type="line"/>
      <point x="415" y="55" type="line"/>
      <point x="415" y="0" type="line"/>
      <point x="975" y="0" type="line"/>
      <point x="975" y="187" type="line"/>
      <point x="916" y="187" type="line"/>
      <point x="890" y="72" type="line"/>
      <point x="575" y="72" type="line"/>
      <point x="575" y="306" type="line"/>
      <point x="749" y="306" type="line"/>
      <point x="764" y="229" type="line"/>
      <point x="819" y="229" type="line"/>
      <point x="819" y="455" type="line"/>
      <point x="764" y="455" type="line"/>
      <point x="749" y="378" type="line"/>
      <point x="575" y="378" type="line"/>
      <point x="575" y="608" type="line"/>
      <point x="890" y="608" type="line"/>
    </contour>
    <contour>
      <point x="532" y="680" type="move" name="top"/>
    </contour>
  </outline>
</glyph>
<glyph name="Eth" format="1">
  <advance width="761"/>
  <unicode hex="00D0"/>
  <outline>
    <contour>
      <point x="55" y="376" type="line"/>
      <point x="55" y="304" type="line"/>
      <point x="475" y="304" type="line"/>
      <point x="475" y="376" type="line"/>
    </contour>
    <component base="D"/>
  </outline>
</glyph>
<glyph name="multiply" format="1">
  <advance width="582"/>
  <unicode hex="00D7"/>
  <outline>
    <contour>
      <point x="48" y="431" type="line"/>
      <point x="489" y="61" type="line"/>
      <point x="535" y="117" type="line"/>
      <point x="94" y="487" type="line"/>
    </contour>
    <contour>
      <point x="48" y="117" type="line"/>
      <point x="94" y="61" type="line"/>
      <point x="535" y="431" type="line"/>
      <point x="489" y="487" type="line"/>
    </contour>
  </outline>
</glyph>
<glyph name="Oslash" format="1">
  <advance width="728"/>
  <unicode hex="00D8"/>
  <outline>
    <contour>
      <point x="584" y="705" type="line"/>
      <point x="52" y="-25" type="line"/>
      <point x="145" y="-25" type="line"/>
      <point x="676" y="705" type="line"/>
    </contour>
    <component base="O"/>
  </outline>
</glyph>
<glyph name="Thorn" format="1">
  <advance width="665"/>
  <unicode hex="00DE"/>
  <outline>
    <contour>
      <point x="294" y="0" type="line"/>
      <point x="294" y="55" type="line"/>
      <point x="215" y="86" type="line"/>
      <point x="215" y="135" type="line"/>
      <point x="453" y="135" type="line" smooth="yes"/>
      <point x="582" y="135"/>
      <point x="650" y="205"/>
      <point x="650" y="340" type="curve" smooth="yes"/>
      <point x="650" y="475"/>
      <point x="582" y="545"/>
      <point x="453" y="545" type="curve" smooth="yes"/>
      <point x="215" y="545" type="line"/>
      <point x="215" y="594" type="line"/>
      <point x="294" y="623" type="line"/>
      <point x="294" y="680" type="line"/>
      <point x="55" y="680" type="line"/>
      <point x="55" y="623" type="line"/>
      <point x="129" y="594" type="line"/>
      <point x="129" y="86" type="line"/>
      <point x="55" y="55" type="line"/>
      <point x="55" y="0" type="line"/>
    </contour>
    <contour>
      <point x="215" y="473" type="line"/>
      <point x="445" y="473" type="line" smooth="yes"/>
      <point x="525" y="473"/>
      <point x="560" y="434"/>
      <point x="560" y="340" type="curve" smooth="yes"/>
      <point x="560" y="246"/>
      <point x="525" y="207"/>
      <point x="445" y="207" type="curve" smooth="yes"/>
      <point x="215" y="207" type="line"/>
    </contour>
  </outline>
</glyph>
<glyph name="germandbls" format="1">
  <advance width="590"/>
  <unicode hex="00DF"/>
  <outline>
    <contour>
      <point x="194" y="718"/>
      <point x="114" y="644"/>
      <point x="114" y="522" type="curve" smooth="yes"/>
      <point x="114" y="502" type="line"/>
      <point x="46" y="488" type="line"/>
      <point x="46" y="430" type="line"/>
      <point x="114" y="430" type="line"/>
      <point x="114" y="85" type="line"/>
      <point x="46" y="55" type="line"/>
      <point x="46" y="0" type="line"/>
      <point x="198" y="0" type="line"/>
      <point x="198" y="520" type="line" smooth="yes"/>
      <point x="198" y="603"/>
      <point x="240" y="646"/>
      <point x="317" y="646" type="curve" smooth="yes"/>
      <point x="387" y="646"/>
      <point x="421" y="610"/>
      <point x="421" y="543" type="curve" smooth="yes"/>
      <point x="421" y="473"/>
      <point x="384" y="437"/>
      <point x="314" y="437" type="curve"/>
      <point x="314" y="365" type="line"/>
      <point x="429" y="365"/>
      <point x="472" y="325"/>
      <point x="472" y="218" type="curve" smooth="yes"/>
      <point x="472" y="113"/>
      <point x="430" y="74"/>
      <point x="319" y="74" type="curve" smooth="yes"/>
      <point x="289" y="74" type="line"/>
      <point x="289" y="0" type="line"/>
      <point x="324" y="0" type="line" smooth="yes"/>
      <point x="488" y="0"/>
      <point x="560" y="68"/>
      <point x="560" y="221" type="curve" smooth="yes"/>
      <point x="560" y="342"/>
      <point x="513" y="406"/>
      <point x="401" y="418" type="curve"/>
      <point x="401" y="420" type="line"/>
      <point x="464" y="432"/>
      <point x="503" y="486"/>
      <point x="503" y="560" type="curve" smooth="yes"/>
      <point x="503" y="658"/>
      <point x="434" y="718"/>
      <point x="320" y="718" type="curve" smooth="yes"/>
    </contour>
  </outline>
</glyph>
<glyph name="ae" format="1">
  <advance width="895"/>
  <unicode hex="00E6"/>
  <outline>
    <contour>
      <point x="727" y="-14"/>
      <point x="798" y="-4"/>
      <point x="846" y="9" type="curve"/>
      <point x="846" y="81" type="line"/>
      <point x="777" y="63"/>
      <point x="723" y="58"/>
      <point x="667" y="58" type="curve" smooth="yes"/>
      <point x="548" y="58"/>
      <point x="501" y="91"/>
      <point x="492" y="224" type="curve"/>
      <point x="864" y="224" type="line"/>
      <point x="864" y="264" type="line" smooth="yes"/>
      <point x="864" y="439"/>
      <point x="768" y="516"/>
      <point x="646" y="516" type="curve" smooth="yes"/>
      <point x="570" y="516"/>
      <point x="506" y="493"/>
      <point x="468" y="440" type="curve"/>
      <point x="472" y="440" type="line"/>
      <point x="450" y="490"/>
      <point x="401" y="516"/>
      <point x="278" y="516" type="curve" smooth="yes"/>
      <point x="205" y="516"/>
      <point x="136" y="506"/>
      <point x="74" y="492" type="curve"/>
      <point x="74" y="420" type="line"/>
      <point x="139" y="435"/>
      <point x="205" y="444"/>
      <point x="276" y="444" type="curve" smooth="yes"/>
      <point x="383" y="444"/>
      <point x="408" y="413"/>
      <point x="408" y="324" type="curve" smooth="yes"/>
      <point x="408" y="285" type="line"/>
      <point x="383" y="299"/>
      <point x="336" y="314"/>
      <point x="270" y="314" type="curve" smooth="yes"/>
      <point x="114" y="314"/>
      <point x="47" y="264"/>
      <point x="47" y="147" type="curve" smooth="yes"/>
      <point x="47" y="35"/>
      <point x="108" y="-10"/>
      <point x="228" y="-10" type="curve" smooth="yes"/>
      <point x="323" y="-10"/>
      <point x="394" y="21"/>
      <point x="458" y="91" type="curve"/>
      <point x="445" y="91" type="line"/>
      <point x="483" y="13"/>
      <point x="560" y="-14"/>
      <point x="665" y="-14" type="curve" smooth="yes"/>
    </contour>
    <contour>
      <point x="156" y="62"/>
      <point x="135" y="90"/>
      <point x="135" y="153" type="curve" smooth="yes"/>
      <point x="135" y="212"/>
      <point x="162" y="244"/>
      <point x="279" y="244" type="curve" smooth="yes"/>
      <point x="317" y="244"/>
      <point x="368" y="240"/>
      <point x="408" y="228" type="curve"/>
      <point x="408" y="128" type="line"/>
      <point x="362" y="88"/>
      <point x="305" y="62"/>
      <point x="241" y="62" type="curve" smooth="yes"/>
    </contour>
    <contour>
      <point x="500" y="400"/>
      <point x="543" y="444"/>
      <point x="642" y="444" type="curve" smooth="yes"/>
      <point x="728" y="444"/>
      <point x="769" y="392"/>
      <point x="776" y="295" type="curve"/>
      <point x="492" y="295" type="line"/>
    </contour>
    <contour>
      <point x="448" y="502" type="move" name="top"/>
    </contour>
  </outline>
</glyph>
<glyph name="eth" format="1">
  <advance width="613"/>
  <unicode hex="00F0"/>
  <outline>
    <contour>
      <point x="169" y="656" type="line"/>
      <point x="356" y="645"/>
      <point x="460" y="527"/>
      <point x="460" y="281" type="curve" smooth="yes"/>
      <point x="460" y="107"/>
      <point x="408" y="58"/>
      <point x="293" y="58" type="curve" smooth="yes"/>
      <point x="186" y="58"/>
      <point x="128" y="100"/>
      <point x="128" y="216" type="curve" smooth="yes"/>
      <point x="128" y="334"/>
      <point x="187" y="380"/>
      <point x="274" y="380" type="curve" smooth="yes"/>
      <point x="325" y="380"/>
      <point x="389" y="364"/>
      <point x="470" y="325" type="curve"/>
      <point x="470" y="387" type="line"/>
      <point x="400" y="428"/>
      <point x="321" y="452"/>
      <point x="251" y="452" type="curve" smooth="yes"/>
      <point x="130" y="452"/>
      <point x="40" y="380"/>
      <point x="40" y="224" type="curve" smooth="yes"/>
      <point x="40" y="48"/>
      <point x="155" y="-14"/>
      <point x="288" y="-14" type="curve" smooth="yes"/>
      <point x="441" y="-14"/>
      <point x="548" y="67"/>
      <point x="548" y="285" type="curve" smooth="yes"/>
      <point x="548" y="513"/>
      <point x="432" y="708"/>
      <point x="169" y="718" type="curve"/>
    </contour>
    <contour>
      <point x="190" y="536" type="line"/>
      <point x="213" y="488" type="line"/>
      <point x="527" y="631" type="line"/>
      <point x="498" y="690" type="line"/>
    </contour>
  </outline>
</glyph>
<glyph name="divide" format="1">
  <advance width="582"/>
  <unicode hex="00F7"/>
  <outline>
    <contour>
      <point x="64" y="309" type="line"/>
      <point x="64" y="239" type="line"/>
      <point x="518" y="239" type="line"/>
      <point x="518" y="309" type="line"/>
    </contour>
    <contour>
      <point x="251" y="563"/>
      <point x="225" y="540"/>
      <point x="225" y="496" type="curve" smooth="yes"/>
      <point x="225" y="452"/>
      <point x="251" y="429"/>
      <point x="291" y="429" type="curve" smooth="yes"/>
      <point x="331" y="429"/>
      <point x="357" y="452"/>
      <point x="357" y="496" type="curve" smooth="yes"/>
      <point x="357" y="540"/>
      <point x="331" y="563"/>
      <point x="291" y="563" type="curve" smooth="yes"/>
    </contour>
    <contour>
      <point x="251" y="119"/>
      <point x="225" y="96"/>
      <point x="225" y="52" type="curve" smooth="yes"/>
      <point x="225" y="8"/>
      <point x="251" y="-15"/>
      <point x="291" y="-15" type="curve" smooth="yes"/>
      <point x="331" y="-15"/>
      <point x="357" y="8"/>
      <point x="357" y="52" type="curve" smooth="yes"/>
      <point x="357" y="96"/>
      <point x="331" y="119"/>
      <point x="291" y="119" type="curve" smooth="yes"/>
    </contour>
  </outline>
</glyph>
<glyph name="oslash" format="1">
  <advance width="590"/>
  <unicode hex="00F8"/>
  <outline>
    <contour>
      <point x="452" y="536" type="line"/>
      <point x="51" y="-34" type="line"/>
      <point x="139" y="-34" type="line"/>
      <point x="539" y="536" type="line"/>
    </contour>
    <component base="o"/>
  </outline>
</glyph>
<glyph name="dcroat" format="1">
  <advance width="624"/>
  <unicode hex="0111"/>
  <outline>
    <contour>
      <point x="254" y="540" type="line"/>
      <point x="571" y="540" type="line"/>
      <point x="571" y="600" type="line"/>
      <point x="254" y="600" type="line"/>
    </contour>
    <contour>
      <point x="369" y="710" type="line"/>
      <point x="369" y="653" type="line"/>
      <point x="437" y="639" type="line"/>
      <point x="437" y="437" type="line"/>
      <point x="447" y="441" type="line"/>
      <point x="376" y="485"/>
      <point x="317" y="502"/>
      <point x="254" y="502" type="curve" smooth="yes"/>
      <point x="128" y="502"/>
      <point x="46" y="432"/>
      <point x="46" y="247" type="curve" smooth="yes"/>
      <point x="46" y="47"/>
      <point x="115" y="-10"/>
      <point x="245" y="-10" type="curve" smooth="yes"/>
      <point x="336" y="-10"/>
      <point x="401" y="21"/>
      <point x="460" y="90" type="curve"/>
      <point x="437" y="90" type="line"/>
      <point x="470" y="0" type="line"/>
      <point x="589" y="0" type="line"/>
      <point x="589" y="55" type="line"/>
      <point x="521" y="85" type="line"/>
      <point x="521" y="710" type="line"/>
    </contour>
    <contour>
      <point x="326" y="429"/>
      <point x="373" y="411"/>
      <point x="437" y="388" type="curve"/>
      <point x="437" y="128" type="line"/>
      <point x="384" y="86"/>
      <point x="328" y="63"/>
      <point x="262" y="63" type="curve" smooth="yes"/>
      <point x="175" y="63"/>
      <point x="134" y="101"/>
      <point x="134" y="239" type="curve" smooth="yes"/>
      <point x="134" y="360"/>
      <point x="171" y="429"/>
      <point x="274" y="429" type="curve" smooth="yes"/>
    </contour>
    <contour>
      <point x="312" y="251" type="move" name="center"/>
    </contour>
    <contour>
      <point x="479" y="680" type="move" name="top"/>
    </contour>
    <contour>
      <point x="604" y="502" type="move" name="topright"/>
    </contour>
  </outline>
</glyph>
<glyph name="gcommaaccent" format="1">
  <advance width="556"/>
  <unicode hex="0123"/>
  <outline>
    <contour>
      <point x="336" y="777" type="line"/>
      <point x="272" y="777" type="line"/>
      <point x="242" y="577" type="line"/>
      <point x="336" y="577" type="line"/>
    </contour>
    <component base="g"/>
  </outline>
</glyph>
<glyph name="idotless" format="1">
  <advance width="301"/>
  <unicode hex="0131"/>
  <outline>
    <contour>
      <point x="46" y="502" type="line"/>
      <point x="46" y="445" type="line"/>
      <point x="114" y="417" type="line"/>
      <point x="114" y="85" type="line"/>
      <point x="46" y="55" type="line"/>
      <point x="46" y="0" type="line"/>
      <point x="266" y="0" type="line"/>
      <point x="266" y="55" type="line"/>
      <point x="198" y="85" type="line"/>
      <point x="198" y="502" type="line"/>
    </contour>
    <contour>
      <point x="135" y="10" type="move" name="ogonek"/>
    </contour>
    <contour>
      <point x="156" y="0" type="move" name="bottom"/>
    </contour>
    <contour>
      <point x="156" y="502" type="move" name="top"/>
    </contour>
  </outline>
</glyph>
<glyph name="Lcaron" format="1">
  <advance width="643"/>
  <unicode hex="013D"/>
  <outline>
    <contour>
      <point x="447" y="470" type="line"/>
      <point x="513" y="470" type="line"/>
      <point x="545" y="680" type="line"/>
      <point x="447" y="680" type="line"/>
    </contour>
    <component base="L"/>
  </outline>
</glyph>
<glyph name="Lslash" format="1">
  <advance width="643"/>
  <unicode hex="0141"/>
  <outline>
    <contour>
      <point x="428" y="409" type="line"/>
      <point x="428" y="485" type="line"/>
      <point x="55" y="329" type="line"/>
      <point x="55" y="253" type="line"/>
    </contour>
    <component base="L"/>
  </outline>
</glyph>
<glyph name="lslash" format="1">
  <advance width="301"/>
  <unicode hex="0142"/>
  <outline>
    <contour>
      <point x="286" y="477" type="line"/>
      <point x="26" y="368" type="line"/>
      <point x="26" y="294" type="line"/>
      <point x="286" y="403" type="line"/>
    </contour>
    <component base="l"/>
  </outline>
</glyph>
<glyph name="OE" format="1">
  <advance width="1099"/>
  <unicode hex="0152"/>
  <outline>
    <contour>
      <point x="428" y="-14"/>
      <point x="481" y="-7"/>
      <point x="513" y="0" type="curve"/>
      <point x="1047" y="0" type="line"/>
      <point x="1047" y="187" type="line"/>
      <point x="988" y="187" type="line"/>
      <point x="962" y="72" type="line"/>
      <point x="647" y="72" type="line"/>
      <point x="647" y="306" type="line"/>
      <point x="821" y="306" type="line"/>
      <point x="836" y="229" type="line"/>
      <point x="891" y="229" type="line"/>
      <point x="891" y="455" type="line"/>
      <point x="836" y="455" type="line"/>
      <point x="821" y="378" type="line"/>
      <point x="647" y="378" type="line"/>
      <point x="647" y="608" type="line"/>
      <point x="962" y="608" type="line"/>
      <point x="988" y="503" type="line"/>
      <point x="1047" y="503" type="line"/>
      <point x="1047" y="680" type="line"/>
      <point x="513" y="680" type="line"/>
      <point x="481" y="686"/>
      <point x="428" y="694"/>
      <point x="372" y="694" type="curve" smooth="yes"/>
      <point x="163" y="694"/>
      <point x="42" y="580"/>
      <point x="42" y="342" type="curve" smooth="yes"/>
      <point x="42" y="101"/>
      <point x="163" y="-14"/>
      <point x="372" y="-14" type="curve" smooth="yes"/>
    </contour>
    <contour>
      <point x="224" y="60"/>
      <point x="133" y="145"/>
      <point x="131" y="342" type="curve" smooth="yes"/>
      <point x="129" y="536"/>
      <point x="224" y="620"/>
      <point x="375" y="620" type="curve" smooth="yes"/>
      <point x="437" y="620"/>
      <point x="500" y="613"/>
      <point x="561" y="592" type="curve"/>
      <point x="561" y="88" type="line"/>
      <point x="500" y="67"/>
      <point x="437" y="60"/>
      <point x="375" y="60" type="curve" smooth="yes"/>
    </contour>
    <contour>
      <point x="604" y="680" type="move" name="top"/>
    </contour>
  </outline>
</glyph>
<glyph name="oe" format="1">
  <advance width="948"/>
  <unicode hex="0153"/>
  <outline>
    <contour>
      <point x="180" y="58"/>
      <point x="129" y="100"/>
      <point x="129" y="251" type="curve" smooth="yes"/>
      <point x="129" y="402"/>
      <point x="180" y="444"/>
      <point x="295" y="444" type="curve" smooth="yes"/>
      <point x="410" y="444"/>
      <point x="461" y="402"/>
      <point x="461" y="251" type="curve" smooth="yes"/>
      <point x="461" y="100"/>
      <point x="410" y="58"/>
      <point x="295" y="58" type="curve" smooth="yes"/>
    </contour>
    <contour>
      <point x="553" y="400"/>
      <point x="596" y="444"/>
      <point x="695" y="444" type="curve" smooth="yes"/>
      <point x="781" y="444"/>
      <point x="822" y="392"/>
      <point x="829" y="295" type="curve"/>
      <point x="545" y="295" type="line"/>
    </contour>
    <contour>
      <point x="495" y="98" type="line"/>
      <point x="532" y="13"/>
      <point x="613" y="-14"/>
      <point x="718" y="-14" type="curve" smooth="yes"/>
      <point x="780" y="-14"/>
      <point x="851" y="-4"/>
      <point x="899" y="9" type="curve"/>
      <point x="899" y="81" type="line"/>
      <point x="830" y="63"/>
      <point x="776" y="58"/>
      <point x="720" y="58" type="curve" smooth="yes"/>
      <point x="601" y="58"/>
      <point x="554" y="91"/>
      <point x="545" y="224" type="curve"/>
      <point x="917" y="224" type="line"/>
      <point x="917" y="264" type="line" smooth="yes"/>
      <point x="917" y="439"/>
      <point x="821" y="516"/>
      <point x="699" y="516" type="curve" smooth="yes"/>
      <point x="607" y="516"/>
      <point x="530" y="483"/>
      <point x="495" y="404" type="curve"/>
      <point x="502" y="404" type="line"/>
      <point x="468" y="486"/>
      <point x="400" y="516"/>
      <point x="295" y="516" type="curve" smooth="yes"/>
      <point x="154" y="516"/>
      <point x="41" y="446"/>
      <point x="41" y="251" type="curve" smooth="yes"/>
      <point x="41" y="56"/>
      <point x="153" y="-14"/>
      <point x="295" y="-14" type="curve" smooth="yes"/>
      <point x="411" y="-14"/>
      <point x="472" y="25"/>
      <point x="502" y="98" type="curve"/>
    </contour>
    <contour>
      <point x="503" y="502" type="move" name="top"/>
    </contour>
  </outline>
</glyph>
<glyph name="florin" format="1">
  <advance width="517"/>
  <unicode hex="0192"/>
  <outline>
    <contour>
      <point x="292" y="564"/>
      <point x="216" y="511"/>
      <point x="185" y="363" type="curve" smooth="yes"/>
      <point x="181" y="344" type="line"/>
      <point x="59" y="332" type="line"/>
      <point x="47" y="274" type="line"/>
      <point x="166" y="274" type="line"/>
      <point x="98" y="-43" type="line" smooth="yes"/>
      <point x="80" y="-128"/>
      <point x="61" y="-152"/>
      <point x="12" y="-152" type="curve"/>
      <point x="-18" y="-71" type="line"/>
      <point x="-81" y="-71"/>
      <point x="-110" y="-95"/>
      <point x="-110" y="-142" type="curve" smooth="yes"/>
      <point x="-110" y="-198"/>
      <point x="-69" y="-224"/>
      <point x="-1" y="-224" type="curve" smooth="yes"/>
      <point x="93" y="-224"/>
      <point x="152" y="-175"/>
      <point x="180" y="-43" type="curve" smooth="yes"/>
      <point x="248" y="274" type="line"/>
      <point x="398" y="274" type="line"/>
      <point x="414" y="344" type="line"/>
      <point x="263" y="344" type="line"/>
      <point x="268" y="368" type="line" smooth="yes"/>
      <point x="287" y="457"/>
      <point x="324" y="492"/>
      <point x="424" y="492" type="curve" smooth="yes"/>
      <point x="448" y="492"/>
      <point x="470" y="490"/>
      <point x="486" y="486" type="curve"/>
      <point x="501" y="556" type="line"/>
      <point x="477" y="562"/>
      <point x="456" y="564"/>
      <point x="429" y="564" type="curve" smooth="yes"/>
    </contour>
  </outline>
</glyph>
<glyph name="jdotless" format="1">
  <advance width="291"/>
  <unicode hex="0237"/>
  <outline>
    <contour>
      <point x="46" y="502" type="line"/>
      <point x="46" y="445" type="line"/>
      <point x="114" y="417" type="line"/>
      <point x="114" y="-82" type="line" smooth="yes"/>
      <point x="114" y="-130"/>
      <point x="91" y="-154"/>
      <point x="44" y="-154" type="curve"/>
      <point x="20" y="-103" type="line"/>
      <point x="-33" y="-103"/>
      <point x="-51" y="-122"/>
      <point x="-51" y="-159" type="curve" smooth="yes"/>
      <point x="-51" y="-203"/>
      <point x="-25" y="-224"/>
      <point x="38" y="-224" type="curve" smooth="yes"/>
      <point x="132" y="-224"/>
      <point x="198" y="-176"/>
      <point x="198" y="-66" type="curve" smooth="yes"/>
      <point x="198" y="502" type="line"/>
    </contour>
    <contour>
      <point x="156" y="502" type="move" name="top"/>
    </contour>
    <contour>
      <point x="38" y="-224" type="move" name="bottom"/>
    </contour>
  </outline>
</glyph>
<glyph name="gravecomb" format="1">
  <advance width="500"/>
  <unicode hex="0300"/>
  <outline>
    <component base="acutecomb" xOffset="500" xScale="-1"/>
    <contour>
      <point x="250" y="806" type="move" name="top"/>
    </contour>
    <contour>
      <point x="250" y="502" type="move" name="_top"/>
    </contour>
  </outline>
</glyph>
<glyph name="acutecomb" format="1">
  <advance width="500"/>
  <unicode hex="0301"/>
  <outline>
    <contour>
      <point x="311" y="756" type="line"/>
      <point x="203" y="572" type="line"/>
      <point x="287" y="572" type="line"/>
      <point x="431" y="756" type="line"/>
    </contour>
    <contour>
      <point x="250" y="806" type="move" name="top"/>
    </contour>
    <contour>
      <point x="250" y="502" type="move" name="_top"/>
    </contour>
  </outline>
</glyph>
<glyph name="circumflexcomb" format="1">
  <advance width="500"/>
  <unicode hex="0302"/>
  <outline>
    <contour>
      <point x="208" y="756" type="line"/>
      <point x="63" y="572" type="line"/>
      <point x="137" y="572" type="line"/>
      <point x="262" y="683" type="line"/>
      <point x="238" y="683" type="line"/>
      <point x="363" y="572" type="line"/>
      <point x="437" y="572" type="line"/>
      <point x="292" y="756" type="line"/>
    </contour>
    <contour>
      <point x="250" y="806" type="move" name="top"/>
    </contour>
    <contour>
      <point x="250" y="502" type="move" name="_top"/>
    </contour>
  </outline>
</glyph>
<glyph name="tildecomb" format="1">
  <advance width="500"/>
  <unicode hex="0303"/>
  <outline>
    <contour>
      <point x="99" y="707"/>
      <point x="58" y="659"/>
      <point x="58" y="572" type="curve"/>
      <point x="114" y="572" type="line"/>
      <point x="116" y="620"/>
      <point x="129" y="641"/>
      <point x="165" y="641" type="curve" smooth="yes"/>
      <point x="213" y="641"/>
      <point x="233" y="568"/>
      <point x="327" y="568" type="curve" smooth="yes"/>
      <point x="401" y="568"/>
      <point x="442" y="616"/>
      <point x="442" y="703" type="curve"/>
      <point x="386" y="703" type="line"/>
      <point x="384" y="655"/>
      <point x="371" y="634"/>
      <point x="336" y="634" type="curve" smooth="yes"/>
      <point x="282" y="634"/>
      <point x="262" y="707"/>
      <point x="173" y="707" type="curve" smooth="yes"/>
    </contour>
    <contour>
      <point x="250" y="806" type="move" name="top"/>
    </contour>
    <contour>
      <point x="250" y="502" type="move" name="_top"/>
    </contour>
  </outline>
</glyph>
<glyph name="macroncomb" format="1">
  <advance width="500"/>
  <unicode hex="0304"/>
  <outline>
    <contour>
      <point x="90" y="684" type="line"/>
      <point x="90" y="612" type="line"/>
      <point x="410" y="612" type="line"/>
      <point x="410" y="684" type="line"/>
    </contour>
    <contour>
      <point x="250" y="806" type="move" name="top"/>
    </contour>
    <contour>
      <point x="250" y="502" type="move" name="_top"/>
    </contour>
  </outline>
</glyph>
<glyph name="brevecomb" format="1">
  <advance width="500"/>
  <unicode hex="0306"/>
  <outline>
    <contour>
      <point x="353" y="756" type="line"/>
      <point x="349" y="666"/>
      <point x="319" y="644"/>
      <point x="250" y="644" type="curve" smooth="yes"/>
      <point x="181" y="644"/>
      <point x="150" y="666"/>
      <point x="147" y="756" type="curve"/>
      <point x="79" y="756" type="line"/>
      <point x="79" y="626"/>
      <point x="129" y="572"/>
      <point x="250" y="572" type="curve" smooth="yes"/>
      <point x="371" y="572"/>
      <point x="421" y="626"/>
      <point x="421" y="756" type="curve"/>
    </contour>
    <contour>
      <point x="250" y="806" type="move" name="top"/>
    </contour>
    <contour>
      <point x="250" y="502" type="move" name="_top"/>
    </contour>
  </outline>
</glyph>
<glyph name="dotaccentcomb" format="1">
  <advance width="500"/>
  <unicode hex="0307"/>
  <outline>
    <contour>
      <point x="207" y="708"/>
      <point x="182" y="683"/>
      <point x="182" y="640" type="curve" smooth="yes"/>
      <point x="182" y="597"/>
      <point x="207" y="572"/>
      <point x="250" y="572" type="curve" smooth="yes"/>
      <point x="293" y="572"/>
      <point x="318" y="597"/>
      <point x="318" y="640" type="curve" smooth="yes"/>
      <point x="318" y="683"/>
      <point x="293" y="708"/>
      <point x="250" y="708" type="curve" smooth="yes"/>
    </contour>
    <contour>
      <point x="250" y="806" type="move" name="top"/>
    </contour>
    <contour>
      <point x="250" y="502" type="move" name="_top"/>
    </contour>
  </outline>
</glyph>
<glyph name="dieresiscomb" format="1">
  <advance width="500"/>
  <unicode hex="0308"/>
  <outline>
    <contour>
      <point x="90" y="716"/>
      <point x="65" y="691"/>
      <point x="65" y="648" type="curve" smooth="yes"/>
      <point x="65" y="605"/>
      <point x="90" y="580"/>
      <point x="133" y="580" type="curve" smooth="yes"/>
      <point x="176" y="580"/>
      <point x="201" y="605"/>
      <point x="201" y="648" type="curve" smooth="yes"/>
      <point x="201" y="691"/>
      <point x="176" y="716"/>
      <point x="133" y="716" type="curve" smooth="yes"/>
    </contour>
    <contour>
      <point x="324" y="716"/>
      <point x="299" y="691"/>
      <point x="299" y="648" type="curve" smooth="yes"/>
      <point x="299" y="605"/>
      <point x="324" y="580"/>
      <point x="367" y="580" type="curve" smooth="yes"/>
      <point x="410" y="580"/>
      <point x="435" y="605"/>
      <point x="435" y="648" type="curve" smooth="yes"/>
      <point x="435" y="691"/>
      <point x="410" y="716"/>
      <point x="367" y="716" type="curve" smooth="yes"/>
    </contour>
    <contour>
      <point x="250" y="806" type="move" name="top"/>
    </contour>
    <contour>
      <point x="250" y="502" type="move" name="_top"/>
    </contour>
  </outline>
</glyph>
<glyph name="ringcomb" format="1">
  <advance width="500"/>
  <unicode hex="030A"/>
  <outline>
    <contour>
      <point x="332" y="562"/>
      <point x="377" y="605"/>
      <point x="377" y="680" type="curve" smooth="yes"/>
      <point x="377" y="755"/>
      <point x="332" y="798"/>
      <point x="250" y="798" type="curve" smooth="yes"/>
      <point x="168" y="798"/>
      <point x="123" y="755"/>
      <point x="123" y="680" type="curve" smooth="yes"/>
      <point x="123" y="605"/>
      <point x="168" y="562"/>
      <point x="250" y="562" type="curve" smooth="yes"/>
    </contour>
    <contour>
      <point x="213" y="619"/>
      <point x="190" y="637"/>
      <point x="190" y="680" type="curve" smooth="yes"/>
      <point x="190" y="723"/>
      <point x="213" y="741"/>
      <point x="250" y="741" type="curve" smooth="yes"/>
      <point x="287" y="741"/>
      <point x="310" y="723"/>
      <point x="310" y="680" type="curve" smooth="yes"/>
      <point x="310" y="637"/>
      <point x="287" y="619"/>
      <point x="250" y="619" type="curve" smooth="yes"/>
    </contour>
    <contour>
      <point x="250" y="848" type="move" name="top"/>
    </contour>
    <contour>
      <point x="250" y="502" type="move" name="_top"/>
    </contour>
  </outline>
</glyph>
<glyph name="hungarumlautcomb" format="1">
  <advance width="500"/>
  <unicode hex="030B"/>
  <outline>
    <contour>
      <point x="200" y="756" type="line"/>
      <point x="126" y="572" type="line"/>
      <point x="202" y="572" type="line"/>
      <point x="301" y="756" type="line"/>
    </contour>
    <contour>
      <point x="372" y="756" type="line"/>
      <point x="298" y="572" type="line"/>
      <point x="374" y="572" type="line"/>
      <point x="473" y="756" type="line"/>
    </contour>
    <contour>
      <point x="250" y="806" type="move" name="top"/>
    </contour>
    <contour>
      <point x="250" y="502" type="move" name="_top"/>
    </contour>
  </outline>
</glyph>
<glyph name="caroncomb" format="1">
  <advance width="500"/>
  <unicode hex="030C"/>
  <outline>
    <component base="circumflexcomb" yOffset="1328" yScale="-1"/>
    <contour>
      <point x="250" y="806" type="move" name="top"/>
    </contour>
    <contour>
      <point x="250" y="502" type="move" name="_top"/>
    </contour>
  </outline>
</glyph>
<glyph name="dotbelowcomb" format="1">
  <advance width="500"/>
  <unicode hex="0323"/>
  <outline>
    <contour>
      <point x="207" y="-65"/>
      <point x="182" y="-90"/>
      <point x="182" y="-133" type="curve" smooth="yes"/>
      <point x="182" y="-176"/>
      <point x="207" y="-201"/>
      <point x="250" y="-201" type="curve" smooth="yes"/>
      <point x="293" y="-201"/>
      <point x="318" y="-176"/>
      <point x="318" y="-133" type="curve" smooth="yes"/>
      <point x="318" y="-90"/>
      <point x="293" y="-65"/>
      <point x="250" y="-65" type="curve" smooth="yes"/>
    </contour>
    <contour>
      <point x="250" y="0" type="move" name="_bottom"/>
    </contour>
    <contour>
      <point x="250" y="-201" type="move" name="bottom"/>
    </contour>
  </outline>
</glyph>
<glyph name="commaaccentcomb" format="1">
  <advance width="500"/>
  <unicode hex="0326"/>
  <outline>
    <contour>
      <point x="209" y="-272" type="line"/>
      <point x="269" y="-272" type="line"/>
      <point x="299" y="-65" type="line"/>
      <point x="209" y="-65" type="line"/>
    </contour>
    <contour>
      <point x="250" y="0" type="move" name="_bottom"/>
    </contour>
    <contour>
      <point x="250" y="-272" type="move" name="bottom"/>
    </contour>
  </outline>
</glyph>
<glyph name="cedillacomb" format="1">
  <advance width="500"/>
  <unicode hex="0327"/>
  <outline>
    <contour>
      <point x="227" y="-237" type="line" smooth="yes"/>
      <point x="370" y="-237"/>
      <point x="405" y="-211"/>
      <point x="405" y="-140" type="curve" smooth="yes"/>
      <point x="405" y="-81"/>
      <point x="380" y="-52"/>
      <point x="275" y="-52" type="curve"/>
      <point x="275" y="0" type="line"/>
      <point x="225" y="0" type="line"/>
      <point x="225" y="-98" type="line"/>
      <point x="318" y="-98"/>
      <point x="333" y="-105"/>
      <point x="333" y="-140" type="curve" smooth="yes"/>
      <point x="333" y="-177"/>
      <point x="311" y="-185"/>
      <point x="177" y="-185" type="curve"/>
      <point x="177" y="-237" type="line"/>
    </contour>
    <contour>
      <point x="250" y="0" type="move" name="_bottom"/>
    </contour>
    <contour>
      <point x="250" y="-237" type="move" name="bottom"/>
    </contour>
  </outline>
</glyph>
<glyph name="ogonekcomb" format="1">
  <advance width="500"/>
  <unicode hex="0328"/>
  <outline>
    <contour>
      <point x="318" y="-167"/>
      <point x="291" y="-170"/>
      <point x="265" y="-170" type="curve" smooth="yes"/>
      <point x="222" y="-170"/>
      <point x="192" y="-155"/>
      <point x="192" y="-114" type="curve" smooth="yes"/>
      <point x="192" y="-73"/>
      <point x="223" y="-40"/>
      <point x="315" y="0" type="curve"/>
      <point x="232" y="0" type="line"/>
      <point x="146" y="-30"/>
      <point x="116" y="-73"/>
      <point x="116" y="-128" type="curve" smooth="yes"/>
      <point x="116" y="-204"/>
      <point x="185" y="-222"/>
      <point x="257" y="-222" type="curve" smooth="yes"/>
      <point x="292" y="-222"/>
      <point x="320" y="-218"/>
      <point x="338" y="-212" type="curve"/>
      <point x="338" y="-162" type="line"/>
    </contour>
    <contour>
      <point x="250" y="10" type="move" name="_ogonek"/>
    </contour>
    <contour>
      <point x="257" y="-222" type="move" name="bottom"/>
    </contour>
  </outline>
</glyph>
<glyph name="Delta" format="1">
  <advance width="662"/>
  <unicode hex="0394"/>
  <outline>
    <contour>
      <point x="270" y="680" type="line"/>
      <point x="10" y="55" type="line"/>
      <point x="10" y="0" type="line"/>
      <point x="652" y="0" type="line"/>
      <point x="652" y="55" type="line"/>
      <point x="385" y="680" type="line"/>
    </contour>
    <contour>
      <point x="566" y="52" type="line"/>
      <point x="565" y="71" type="line"/>
      <point x="72" y="71" type="line"/>
      <point x="87" y="52" type="line"/>
      <point x="333" y="643" type="line"/>
      <point x="313" y="643" type="line"/>
    </contour>
  </outline>
</glyph>
<glyph name="Omega" format="1">
  <advance width="748"/>
  <unicode hex="03A9"/>
  <outline>
    <contour>
      <point x="185" y="692"/>
      <point x="75" y="593"/>
      <point x="75" y="421" type="curve" smooth="yes"/>
      <point x="75" y="278"/>
      <point x="149" y="192"/>
      <point x="248" y="162" type="curve"/>
      <point x="248" y="71" type="line"/>
      <point x="74" y="71" type="line"/>
      <point x="97" y="51" type="line"/>
      <point x="78" y="156" type="line"/>
      <point x="25" y="156" type="line"/>
      <point x="25" y="0" type="line"/>
      <point x="324" y="0" type="line"/>
      <point x="324" y="210" type="line"/>
      <point x="208" y="232"/>
      <point x="165" y="312"/>
      <point x="165" y="419" type="curve" smooth="yes"/>
      <point x="165" y="559"/>
      <point x="240" y="618"/>
      <point x="374" y="618" type="curve" smooth="yes"/>
      <point x="508" y="618"/>
      <point x="583" y="559"/>
      <point x="583" y="419" type="curve" smooth="yes"/>
      <point x="583" y="312"/>
      <point x="540" y="232"/>
      <point x="424" y="210" type="curve"/>
      <point x="424" y="0" type="line"/>
      <point x="723" y="0" type="line"/>
      <point x="723" y="156" type="line"/>
      <point x="670" y="156" type="line"/>
      <point x="651" y="51" type="line"/>
      <point x="674" y="71" type="line"/>
      <point x="500" y="71" type="line"/>
      <point x="500" y="162" type="line"/>
      <point x="599" y="192"/>
      <point x="673" y="278"/>
      <point x="673" y="421" type="curve" smooth="yes"/>
      <point x="673" y="593"/>
      <point x="564" y="692"/>
      <point x="374" y="692" type="curve" smooth="yes"/>
    </contour>
  </outline>
</glyph>
<glyph name="mu" format="1">
  <advance width="634"/>
  <unicode hex="03BC"/>
  <outline>
    <contour>
      <point x="192" y="-4"/>
      <point x="220" y="-10"/>
      <point x="255" y="-10" type="curve" smooth="yes"/>
      <point x="346" y="-10"/>
      <point x="411" y="21"/>
      <point x="470" y="90" type="curve"/>
      <point x="447" y="90" type="line"/>
      <point x="480" y="0" type="line"/>
      <point x="599" y="0" type="line"/>
      <point x="599" y="55" type="line"/>
      <point x="531" y="85" type="line"/>
      <point x="531" y="502" type="line"/>
      <point x="447" y="502" type="line"/>
      <point x="447" y="128" type="line"/>
      <point x="397" y="86"/>
      <point x="344" y="63"/>
      <point x="281" y="63" type="curve" smooth="yes"/>
      <point x="210" y="63"/>
      <point x="169" y="94"/>
      <point x="169" y="175" type="curve"/>
      <point x="169" y="502" type="line"/>
      <point x="85" y="502" type="line"/>
      <point x="85" y="-224" type="line"/>
      <point x="169" y="-224" type="line"/>
      <point x="169" y="8" type="line"/>
    </contour>
  </outline>
</glyph>
<glyph name="pi" format="1">
  <advance width="718"/>
  <unicode hex="03C0"/>
  <outline>
    <contour>
      <point x="46" y="502" type="line"/>
      <point x="46" y="446" type="line"/>
      <point x="114" y="417" type="line"/>
      <point x="114" y="0" type="line"/>
      <point x="198" y="0" type="line"/>
      <point x="198" y="432" type="line"/>
      <point x="454" y="432" type="line"/>
      <point x="454" y="150" type="line" smooth="yes"/>
      <point x="454" y="35"/>
      <point x="512" y="-8"/>
      <point x="604" y="-8" type="curve" smooth="yes"/>
      <point x="667" y="-8"/>
      <point x="693" y="13"/>
      <point x="693" y="57" type="curve" smooth="yes"/>
      <point x="693" y="94"/>
      <point x="675" y="113"/>
      <point x="622" y="113" type="curve"/>
      <point x="600" y="64" type="line"/>
      <point x="560" y="64"/>
      <point x="538" y="86"/>
      <point x="538" y="134" type="curve" smooth="yes"/>
      <point x="538" y="432" type="line"/>
      <point x="668" y="432" type="line"/>
      <point x="668" y="502" type="line"/>
    </contour>
  </outline>
</glyph>
<glyph name="candraBindu-deva" format="1">
  <advance width="250"/>
  <unicode hex="0901"/>
  <note>
	dCandrabindu
  </note>
  <outline>
    <component base="anusvara-deva" yOffset="120"/>
    <component base="eCandraMatra-deva" xOffset="5"/>
    <contour>
      <point x="130" y="1006" type="move" name="top"/>
    </contour>
    <contour>
      <point x="130" y="680" type="move" name="_top"/>
    </contour>
  </outline>
</glyph>
<glyph name="anusvara-deva" format="1">
  <advance width="250"/>
  <unicode hex="0902"/>
  <outline>
    <contour>
      <point x="91" y="886"/>
      <point x="67" y="864"/>
      <point x="67" y="823" type="curve" smooth="yes"/>
      <point x="67" y="782"/>
      <point x="91" y="760"/>
      <point x="130" y="760" type="curve" smooth="yes"/>
      <point x="169" y="760"/>
      <point x="193" y="782"/>
      <point x="193" y="823" type="curve" smooth="yes"/>
      <point x="193" y="864"/>
      <point x="169" y="886"/>
      <point x="130" y="886" type="curve" smooth="yes"/>
    </contour>
    <contour>
      <point x="130" y="680" type="move" name="_top"/>
    </contour>
  </outline>
</glyph>
<glyph name="visarga-deva" format="1">
  <advance width="351"/>
  <unicode hex="0903"/>
  <outline>
    <contour>
      <point x="88" y="543"/>
      <point x="64" y="521"/>
      <point x="64" y="481" type="curve" smooth="yes"/>
      <point x="64" y="441"/>
      <point x="88" y="419"/>
      <point x="127" y="419" type="curve" smooth="yes"/>
      <point x="166" y="419"/>
      <point x="190" y="441"/>
      <point x="190" y="481" type="curve" smooth="yes"/>
      <point x="190" y="521"/>
      <point x="166" y="543"/>
      <point x="127" y="543" type="curve" smooth="yes"/>
    </contour>
    <contour>
      <point x="90" y="251"/>
      <point x="66" y="229"/>
      <point x="66" y="189" type="curve" smooth="yes"/>
      <point x="66" y="149"/>
      <point x="90" y="127"/>
      <point x="129" y="127" type="curve" smooth="yes"/>
      <point x="168" y="127"/>
      <point x="192" y="149"/>
      <point x="192" y="189" type="curve" smooth="yes"/>
      <point x="192" y="229"/>
      <point x="168" y="251"/>
      <point x="129" y="251" type="curve" smooth="yes"/>
    </contour>
  </outline>
</glyph>
<glyph name="a-deva" format="1">
  <advance width="756"/>
  <unicode hex="0905"/>
  <outline>
    <contour>
      <point x="597" y="614" type="line"/>
      <point x="597" y="0" type="line"/>
      <point x="665" y="0" type="line"/>
      <point x="665" y="614" type="line"/>
    </contour>
    <contour>
      <point x="461" y="680" type="line"/>
      <point x="461" y="604" type="line"/>
      <point x="766" y="604" type="line"/>
      <point x="766" y="680" type="line"/>
    </contour>
    <contour>
      <point x="275" y="385" type="line"/>
      <point x="339" y="307" type="line"/>
      <point x="607" y="307" type="line"/>
      <point x="607" y="385" type="line"/>
    </contour>
    <contour>
      <point x="289" y="385" type="line"/>
      <point x="345" y="385"/>
      <point x="389" y="426"/>
      <point x="389" y="531" type="curve" smooth="yes"/>
      <point x="389" y="638"/>
      <point x="342" y="688"/>
      <point x="209" y="688" type="curve" smooth="yes"/>
      <point x="162" y="688"/>
      <point x="109" y="682"/>
      <point x="65" y="671" type="curve"/>
      <point x="65" y="589" type="line"/>
      <point x="108" y="600"/>
      <point x="160" y="606"/>
      <point x="212" y="606" type="curve" smooth="yes"/>
      <point x="301" y="606"/>
      <point x="317" y="588"/>
      <point x="317" y="523" type="curve" smooth="yes"/>
      <point x="317" y="445"/>
      <point x="294" y="423"/>
      <point x="214" y="423" type="curve" smooth="yes"/>
      <point x="114" y="423" type="line"/>
      <point x="114" y="345" type="line"/>
      <point x="214" y="345" type="line" smooth="yes"/>
      <point x="299" y="345"/>
      <point x="328" y="316"/>
      <point x="328" y="243" type="curve" smooth="yes"/>
      <point x="328" y="164"/>
      <point x="295" y="136"/>
      <point x="183" y="136" type="curve" smooth="yes"/>
      <point x="110" y="136"/>
      <point x="70" y="148"/>
      <point x="22" y="167" type="curve"/>
      <point x="22" y="85" type="line"/>
      <point x="60" y="69"/>
      <point x="122" y="54"/>
      <point x="194" y="54" type="curve" smooth="yes"/>
      <point x="339" y="54"/>
      <point x="400" y="115"/>
      <point x="400" y="231" type="curve" smooth="yes"/>
      <point x="400" y="315"/>
      <point x="368" y="363"/>
      <point x="289" y="383" type="curve"/>
    </contour>
    <contour>
      <point x="20" y="0" type="move" name="nukta"/>
    </contour>
    <contour>
      <point x="630" y="0" type="move" name="bottom"/>
    </contour>
    <contour>
      <point x="630" y="680" type="move" name="top"/>
    </contour>
  </outline>
</glyph>
<glyph name="i-deva" format="1">
  <advance width="539"/>
  <unicode hex="0907"/>
  <outline>
    <contour>
      <point x="549" y="604" type="line"/>
      <point x="549" y="680" type="line"/>
      <point x="-10" y="680" type="line"/>
      <point x="-10" y="604" type="line"/>
    </contour>
    <contour>
      <point x="428" y="-8"/>
      <point x="494" y="44"/>
      <point x="494" y="168" type="curve" smooth="yes"/>
      <point x="494" y="247"/>
      <point x="467" y="308"/>
      <point x="363" y="308" type="curve" smooth="yes"/>
      <point x="297" y="308"/>
      <point x="247" y="284"/>
      <point x="192" y="284" type="curve" smooth="yes"/>
      <point x="143" y="284"/>
      <point x="122" y="303"/>
      <point x="122" y="355" type="curve" smooth="yes"/>
      <point x="122" y="406"/>
      <point x="143" y="423"/>
      <point x="212" y="423" type="curve" smooth="yes"/>
      <point x="454" y="423" type="line"/>
      <point x="454" y="614" type="line"/>
      <point x="384" y="614" type="line"/>
      <point x="384" y="484" type="line"/>
      <point x="404" y="501" type="line"/>
      <point x="204" y="501" type="line" smooth="yes"/>
      <point x="92" y="501"/>
      <point x="50" y="452"/>
      <point x="50" y="359" type="curve" smooth="yes"/>
      <point x="50" y="260"/>
      <point x="98" y="204"/>
      <point x="191" y="204" type="curve" smooth="yes"/>
      <point x="252" y="204"/>
      <point x="311" y="228"/>
      <point x="360" y="228" type="curve" smooth="yes"/>
      <point x="403" y="228"/>
      <point x="422" y="209"/>
      <point x="422" y="162" type="curve" smooth="yes"/>
      <point x="422" y="102"/>
      <point x="391" y="74"/>
      <point x="285" y="74" type="curve" smooth="yes"/>
      <point x="225" y="74"/>
      <point x="167" y="83"/>
      <point x="138" y="107" type="curve"/>
      <point x="71" y="97" type="line"/>
      <point x="71" y="-108" type="line"/>
      <point x="139" y="-108" type="line"/>
      <point x="139" y="58" type="line"/>
      <point x="183" y="58" type="line"/>
      <point x="138" y="186" type="line"/>
      <point x="81" y="186"/>
      <point x="50" y="166"/>
      <point x="50" y="116" type="curve" smooth="yes"/>
      <point x="50" y="28"/>
      <point x="147" y="-8"/>
      <point x="275" y="-8" type="curve" smooth="yes"/>
    </contour>
    <contour>
      <point x="419" y="680" type="move" name="top"/>
    </contour>
    <contour>
      <point x="285" y="0" type="move" name="bottom"/>
    </contour>
  </outline>
</glyph>
<glyph name="u-deva" format="1">
  <advance width="491"/>
  <unicode hex="0909"/>
  <outline>
    <contour>
      <point x="506" y="604" type="line"/>
      <point x="506" y="680" type="line"/>
      <point x="-10" y="680" type="line"/>
      <point x="-10" y="604" type="line"/>
    </contour>
    <contour>
      <point x="308" y="616" type="line"/>
      <point x="331" y="587"/>
      <point x="341" y="561"/>
      <point x="341" y="516" type="curve" smooth="yes"/>
      <point x="341" y="444"/>
      <point x="314" y="423"/>
      <point x="238" y="423" type="curve" smooth="yes"/>
      <point x="119" y="423" type="line"/>
      <point x="119" y="345" type="line"/>
      <point x="238" y="345" type="line" smooth="yes"/>
      <point x="322" y="345"/>
      <point x="352" y="317"/>
      <point x="352" y="244" type="curve" smooth="yes"/>
      <point x="352" y="162"/>
      <point x="314" y="136"/>
      <point x="201" y="136" type="curve" smooth="yes"/>
      <point x="110" y="136"/>
      <point x="66" y="153"/>
      <point x="10" y="180" type="curve"/>
      <point x="10" y="100" type="line"/>
      <point x="54" y="77"/>
      <point x="123" y="54"/>
      <point x="214" y="54" type="curve" smooth="yes"/>
      <point x="356" y="54"/>
      <point x="424" y="110"/>
      <point x="424" y="236" type="curve" smooth="yes"/>
      <point x="424" y="337"/>
      <point x="380" y="384"/>
      <point x="295" y="399" type="curve"/>
      <point x="295" y="375" type="line"/>
      <point x="365" y="381"/>
      <point x="413" y="427"/>
      <point x="413" y="519" type="curve" smooth="yes"/>
      <point x="413" y="561"/>
      <point x="403" y="591"/>
      <point x="382" y="616" type="curve"/>
    </contour>
    <contour>
      <point x="341" y="680" type="move" name="top"/>
    </contour>
    <contour>
      <point x="215" y="0" type="move" name="bottom"/>
    </contour>
  </outline>
</glyph>
<glyph name="uu-deva" format="1">
  <advance width="676"/>
  <unicode hex="090A"/>
  <outline>
    <contour>
      <point x="639" y="54"/>
      <point x="691" y="110"/>
      <point x="691" y="217" type="curve" smooth="yes"/>
      <point x="691" y="331"/>
      <point x="633" y="387"/>
      <point x="528" y="387" type="curve" smooth="yes"/>
      <point x="427" y="387"/>
      <point x="369" y="336"/>
      <point x="369" y="234" type="curve"/>
      <point x="424" y="234" type="line"/>
      <point x="424" y="282"/>
      <point x="463" y="305"/>
      <point x="523" y="305" type="curve" smooth="yes"/>
      <point x="598" y="305"/>
      <point x="617" y="270"/>
      <point x="617" y="217" type="curve" smooth="yes"/>
      <point x="617" y="158"/>
      <point x="593" y="136"/>
      <point x="532" y="136" type="curve" smooth="yes"/>
      <point x="522" y="136"/>
      <point x="510" y="136"/>
      <point x="495" y="138" type="curve"/>
      <point x="495" y="58" type="line"/>
      <point x="510" y="55"/>
      <point x="529" y="54"/>
      <point x="542" y="54" type="curve" smooth="yes"/>
    </contour>
    <contour>
      <point x="686" y="604" type="line"/>
      <point x="686" y="680" type="line"/>
      <point x="496" y="680" type="line"/>
      <point x="496" y="604" type="line"/>
    </contour>
    <component base="u-deva"/>
  </outline>
</glyph>
<glyph name="rVocalic-deva" format="1">
  <advance width="758"/>
  <unicode hex="090B"/>
  <outline>
    <contour>
      <point x="419" y="0" type="line"/>
      <point x="419" y="614" type="line"/>
      <point x="351" y="614" type="line"/>
      <point x="351" y="0" type="line"/>
    </contour>
    <contour>
      <point x="768" y="604" type="line"/>
      <point x="768" y="680" type="line"/>
      <point x="-10" y="680" type="line"/>
      <point x="-9" y="604" type="line"/>
    </contour>
    <contour>
      <point x="409" y="254" type="line"/>
      <point x="577" y="407" type="line"/>
      <point x="549" y="407" type="line"/>
      <point x="549" y="382" type="line"/>
      <point x="549" y="331"/>
      <point x="568" y="289"/>
      <point x="623" y="289" type="curve"/>
      <point x="623" y="302" type="line"/>
      <point x="561" y="290"/>
      <point x="524" y="243"/>
      <point x="524" y="157" type="curve" smooth="yes"/>
      <point x="524" y="53"/>
      <point x="579" y="0"/>
      <point x="685" y="0" type="curve" smooth="yes"/>
      <point x="711" y="0"/>
      <point x="737" y="3"/>
      <point x="768" y="11" type="curve"/>
      <point x="768" y="93" type="line"/>
      <point x="730" y="85"/>
      <point x="709" y="82"/>
      <point x="684" y="82" type="curve" smooth="yes"/>
      <point x="622" y="82"/>
      <point x="596" y="101"/>
      <point x="596" y="160" type="curve" smooth="yes"/>
      <point x="596" y="218"/>
      <point x="622" y="239"/>
      <point x="708" y="239" type="curve" smooth="yes"/>
      <point x="743" y="239" type="line"/>
      <point x="743" y="317" type="line"/>
      <point x="688" y="317" type="line" smooth="yes"/>
      <point x="638" y="317"/>
      <point x="617" y="336"/>
      <point x="617" y="378" type="curve" smooth="yes"/>
      <point x="617" y="491" type="line"/>
      <point x="562" y="491" type="line"/>
      <point x="409" y="353" type="line"/>
    </contour>
    <contour>
      <point x="356" y="297" type="line"/>
      <point x="271" y="423"/>
      <point x="205" y="465"/>
      <point x="121" y="465" type="curve" smooth="yes"/>
      <point x="84" y="465"/>
      <point x="46" y="460"/>
      <point x="16" y="450" type="curve"/>
      <point x="16" y="368" type="line"/>
      <point x="50" y="378"/>
      <point x="84" y="383"/>
      <point x="121" y="383" type="curve" smooth="yes"/>
      <point x="190" y="383"/>
      <point x="224" y="365"/>
      <point x="300" y="255" type="curve"/>
    </contour>
    <contour>
      <point x="361" y="319" type="line"/>
      <point x="11" y="1" type="line"/>
      <point x="11" y="0" type="line"/>
      <point x="120" y="0" type="line"/>
      <point x="361" y="220" type="line"/>
    </contour>
    <contour>
      <point x="385" y="680" type="move" name="top"/>
    </contour>
    <contour>
      <point x="385" y="0" type="move" name="bottom"/>
    </contour>
  </outline>
</glyph>
<glyph name="lVocalic-deva" format="1">
  <advance width="730"/>
  <unicode hex="090C"/>
  <outline>
    <contour>
      <point x="740" y="604" type="line"/>
      <point x="740" y="680" type="line"/>
      <point x="-10" y="680" type="line"/>
      <point x="-10" y="604" type="line"/>
    </contour>
    <contour>
      <point x="553" y="441" type="line"/>
      <point x="553" y="614" type="line"/>
      <point x="483" y="614" type="line"/>
      <point x="483" y="441" type="line"/>
    </contour>
    <contour>
      <point x="685" y="391"/>
      <point x="638" y="467"/>
      <point x="504" y="467" type="curve" smooth="yes"/>
      <point x="440" y="467"/>
      <point x="390" y="450"/>
      <point x="365" y="393" type="curve"/>
      <point x="340" y="450"/>
      <point x="290" y="467"/>
      <point x="226" y="467" type="curve" smooth="yes"/>
      <point x="87" y="467"/>
      <point x="45" y="388"/>
      <point x="45" y="237" type="curve" smooth="yes"/>
      <point x="45" y="123"/>
      <point x="69" y="65"/>
      <point x="111" y="32" type="curve" smooth="yes"/>
      <point x="140" y="10"/>
      <point x="174" y="0"/>
      <point x="257" y="0" type="curve" smooth="yes"/>
      <point x="285" y="0" type="line"/>
      <point x="285" y="78" type="line"/>
      <point x="266" y="78" type="line" smooth="yes"/>
      <point x="226" y="78"/>
      <point x="177" y="79"/>
      <point x="153" y="97" type="curve" smooth="yes"/>
      <point x="124" y="118"/>
      <point x="117" y="170"/>
      <point x="117" y="229" type="curve" smooth="yes"/>
      <point x="117" y="331"/>
      <point x="138" y="385"/>
      <point x="229" y="385" type="curve" smooth="yes"/>
      <point x="306" y="385"/>
      <point x="334" y="347"/>
      <point x="334" y="247" type="curve" smooth="yes"/>
      <point x="334" y="208" type="line"/>
      <point x="396" y="208" type="line"/>
      <point x="396" y="247" type="line" smooth="yes"/>
      <point x="396" y="347"/>
      <point x="424" y="385"/>
      <point x="501" y="385" type="curve" smooth="yes"/>
      <point x="577" y="385"/>
      <point x="613" y="348"/>
      <point x="613" y="260" type="curve" smooth="yes"/>
      <point x="613" y="81"/>
      <point x="465" y="160"/>
      <point x="465" y="-1" type="curve" smooth="yes"/>
      <point x="465" y="-95"/>
      <point x="516" y="-150"/>
      <point x="632" y="-150" type="curve" smooth="yes"/>
      <point x="663" y="-150"/>
      <point x="690" y="-146"/>
      <point x="710" y="-139" type="curve"/>
      <point x="710" y="-57" type="line"/>
      <point x="685" y="-65"/>
      <point x="661" y="-68"/>
      <point x="632" y="-68" type="curve" smooth="yes"/>
      <point x="573" y="-68"/>
      <point x="537" y="-56"/>
      <point x="537" y="-4" type="curve" smooth="yes"/>
      <point x="537" y="100"/>
      <point x="685" y="42"/>
      <point x="685" y="265" type="curve" smooth="yes"/>
    </contour>
    <contour>
      <point x="43" y="-65" type="move" name="nukta"/>
    </contour>
    <contour>
      <point x="428" y="0" type="move" name="bottom"/>
    </contour>
    <contour>
      <point x="518" y="680" type="move" name="top"/>
    </contour>
  </outline>
</glyph>
<glyph name="e-deva" format="1">
  <advance width="604"/>
  <unicode hex="090F"/>
  <outline>
    <contour>
      <point x="96" y="614" type="line"/>
      <point x="96" y="212" type="line" smooth="yes"/>
      <point x="96" y="62"/>
      <point x="173" y="0"/>
      <point x="319" y="0" type="curve" smooth="yes"/>
      <point x="368" y="0"/>
      <point x="432" y="7"/>
      <point x="475" y="22" type="curve"/>
      <point x="475" y="104" type="line"/>
      <point x="423" y="88"/>
      <point x="366" y="82"/>
      <point x="318" y="82" type="curve" smooth="yes"/>
      <point x="204" y="82"/>
      <point x="164" y="115"/>
      <point x="164" y="211" type="curve" smooth="yes"/>
      <point x="164" y="614" type="line"/>
    </contour>
    <contour>
      <point x="508" y="614" type="line"/>
      <point x="440" y="614" type="line"/>
      <point x="440" y="383" type="line" smooth="yes"/>
      <point x="440" y="329"/>
      <point x="418" y="312"/>
      <point x="356" y="312" type="curve" smooth="yes"/>
      <point x="335" y="312"/>
      <point x="309" y="314"/>
      <point x="287" y="317" type="curve"/>
      <point x="287" y="235" type="line"/>
      <point x="306" y="231"/>
      <point x="334" y="230"/>
      <point x="352" y="230" type="curve" smooth="yes"/>
      <point x="468" y="230"/>
      <point x="508" y="272"/>
      <point x="508" y="377" type="curve" smooth="yes"/>
    </contour>
    <contour>
      <point x="-10" y="680" type="line"/>
      <point x="-10" y="604" type="line"/>
      <point x="614" y="604" type="line"/>
      <point x="614" y="680" type="line"/>
    </contour>
    <contour>
      <point x="474" y="680" type="move" name="top"/>
    </contour>
    <contour>
      <point x="315" y="0" type="move" name="bottom"/>
    </contour>
  </outline>
</glyph>
<glyph name="ka-deva" format="1">
  <advance width="832"/>
  <unicode hex="0915"/>
  <outline>
    <contour>
      <point x="102" y="496"/>
      <point x="40" y="444"/>
      <point x="40" y="303" type="curve" smooth="yes"/>
      <point x="40" y="163"/>
      <point x="102" y="110"/>
      <point x="233" y="110" type="curve" smooth="yes"/>
      <point x="306" y="110"/>
      <point x="350" y="126"/>
      <point x="393" y="150" type="curve"/>
      <point x="393" y="218" type="line"/>
      <point x="347" y="198"/>
      <point x="310" y="192"/>
      <point x="252" y="192" type="curve" smooth="yes"/>
      <point x="143" y="192"/>
      <point x="112" y="214"/>
      <point x="112" y="302" type="curve" smooth="yes"/>
      <point x="112" y="392"/>
      <point x="144" y="414"/>
      <point x="251" y="414" type="curve" smooth="yes"/>
      <point x="312" y="414"/>
      <point x="347" y="407"/>
      <point x="392" y="387" type="curve"/>
      <point x="392" y="459" type="line"/>
      <point x="348" y="481"/>
      <point x="304" y="496"/>
      <point x="233" y="496" type="curve" smooth="yes"/>
    </contour>
    <contour>
      <point x="382" y="614" type="line"/>
      <point x="382" y="0" type="line"/>
      <point x="450" y="0" type="line"/>
      <point x="450" y="614" type="line"/>
    </contour>
    <contour>
      <point x="-10" y="680" type="line"/>
      <point x="-10" y="604" type="line"/>
      <point x="842" y="604" type="line"/>
      <point x="842" y="680" type="line"/>
    </contour>
    <contour>
      <point x="541" y="114" type="line"/>
      <point x="566" y="111"/>
      <point x="593" y="110"/>
      <point x="613" y="110" type="curve" smooth="yes"/>
      <point x="677" y="110"/>
      <point x="720" y="121"/>
      <point x="748" y="150" type="curve" smooth="yes"/>
      <point x="778" y="181"/>
      <point x="792" y="232"/>
      <point x="792" y="301" type="curve" smooth="yes"/>
      <point x="792" y="444"/>
      <point x="731" y="496"/>
      <point x="599" y="496" type="curve" smooth="yes"/>
      <point x="528" y="496"/>
      <point x="484" y="481"/>
      <point x="440" y="459" type="curve"/>
      <point x="440" y="387" type="line"/>
      <point x="485" y="407"/>
      <point x="519" y="414"/>
      <point x="582" y="414" type="curve" smooth="yes"/>
      <point x="693" y="414"/>
      <point x="720" y="392"/>
      <point x="720" y="300" type="curve" smooth="yes"/>
      <point x="720" y="213"/>
      <point x="696" y="192"/>
      <point x="607" y="192" type="curve" smooth="yes"/>
      <point x="587" y="192"/>
      <point x="564" y="193"/>
      <point x="541" y="196" type="curve"/>
    </contour>
    <contour>
      <point x="112" y="0" type="move" name="nukta"/>
    </contour>
    <contour>
      <point x="416" y="0" type="move" name="bottom"/>
    </contour>
    <contour>
      <point x="416" y="680" type="move" name="top"/>
    </contour>
  </outline>
</glyph>
